STARTFONT 2.1
FONT -FontForge-STIX Two Math-Book-R-Normal--36-360-72-72-P-246-ISO10646-1
SIZE 36 72 72
FONTBOUNDINGBOX 146 154 -35 -59
COMMENT "Generated by fontforge, http://fontforge.sourceforge.net"
COMMENT "Copyright 2001-2021 The STIX Fonts Project Authors (https://github.com/stipub/stixfonts)"
STARTPROPERTIES 40
FOUNDRY "FontForge"
FAMILY_NAME "STIX Two Math"
WEIGHT_NAME "Book"
SLANT "R"
SETWIDTH_NAME "Normal"
ADD_STYLE_NAME ""
PIXEL_SIZE 36
POINT_SIZE 360
RESOLUTION_X 72
RESOLUTION_Y 72
SPACING "P"
AVERAGE_WIDTH 246
CHARSET_REGISTRY "ISO10646"
CHARSET_ENCODING "1"
FONTNAME_REGISTRY ""
CHARSET_COLLECTIONS "ASCII ISOLatin1Encoding ISO8859-2 ISO8859-5 ISO8859-7 ISO8859-9 ISO8859-4 ISO10646-1"
FONT_NAME "STIXTwoMath-Regular"
FACE_NAME "STIX Two Math Regular"
COPYRIGHT "Copyright 2001-2021 The STIX Fonts Project Authors (https://github.com/stipub/stixfonts)"
FONT_VERSION "2.12 b168a"
FONT_ASCENT 27
FONT_DESCENT 9
UNDERLINE_POSITION -4
UNDERLINE_THICKNESS 2
X_HEIGHT 17
CAP_HEIGHT 23
RAW_ASCENT 762
RAW_DESCENT 238
NORM_SPACE 8
RELATIVE_WEIGHT 40
RELATIVE_SETWIDTH 50
SUPERSCRIPT_X 0
SUPERSCRIPT_Y 18
SUPERSCRIPT_SIZE 18
SUBSCRIPT_X 0
SUBSCRIPT_Y 9
SUBSCRIPT_SIZE 18
FIGURE_WIDTH 18
AVG_LOWERCASE_WIDTH 178
AVG_UPPERCASE_WIDTH 244
ENDPROPERTIES
CHARS 6611
STARTCHAR space
ENCODING 32
SWIDTH 235 0
DWIDTH 8 0
BBX 1 1 0 0
BITMAP
00
ENDCHAR
STARTCHAR exclam
ENCODING 33
SWIDTH 283 0
DWIDTH 10 0
BBX 4 24 3 0
BITMAP
60
F0
F0
F0
F0
F0
F0
70
70
60
60
60
60
60
60
60
60
60
00
00
60
F0
F0
70
ENDCHAR
STARTCHAR quotedbl
ENCODING 34
SWIDTH 334 0
DWIDTH 12 0
BBX 8 8 2 19
BITMAP
E7
E7
E7
C7
C6
C6
C6
86
ENDCHAR
STARTCHAR numbersign
ENCODING 35
SWIDTH 702 0
DWIDTH 25 0
BBX 21 25 2 -1
BITMAP
0180C0
0181C0
018180
018180
038180
030180
030180
030180
7FFFF8
7FFFF8
030300
070300
060300
060300
060300
060700
FFFFF0
060600
0C0600
0C0600
0C0600
0C0600
0C0E00
0C0C00
180C00
ENDCHAR
STARTCHAR dollar
ENCODING 36
SWIDTH 495 0
DWIDTH 18 0
BBX 16 30 1 -3
BITMAP
0180
0180
0180
0FE0
3FFC
719E
718E
E186
E186
F186
7180
7D80
3F80
1FC0
0FE0
03F8
01FC
01BE
019E
818E
818F
C18F
C18E
E18E
F19C
7FF8
1FE0
0180
0180
0180
ENDCHAR
STARTCHAR percent
ENCODING 37
SWIDTH 692 0
DWIDTH 25 0
BBX 21 24 2 0
BITMAP
1F0060
31C1C0
60FFC0
E08180
E08300
C08300
C08600
C08E00
C18C00
C11800
E61800
7C3000
0071E0
006318
00C608
00CE08
018C08
010C08
031C08
061C18
060C10
0C0C30
080EE0
1807C0
ENDCHAR
STARTCHAR ampersand
ENCODING 38
SWIDTH 736 0
DWIDTH 27 0
BBX 25 24 1 0
BITMAP
00F80000
03DC0000
07060000
06060000
06060000
07060000
070C0000
07980000
03F1FE00
03C0FC00
03C03000
0FE03000
18E06000
38706000
70784000
7038C000
E03D8000
E01F0000
E00F0000
F00F0000
F00FC180
7C3BE300
3FF1FE00
1FC07C00
ENDCHAR
STARTCHAR quotesingle
ENCODING 39
SWIDTH 187 0
DWIDTH 7 0
BBX 3 7 2 19
BITMAP
E0
E0
E0
C0
C0
C0
80
ENDCHAR
STARTCHAR parenleft
ENCODING 40
SWIDTH 357 0
DWIDTH 13 0
BBX 10 34 2 -7
BITMAP
0040
00C0
0300
0600
0C00
1C00
1800
3000
7000
7000
6000
E000
E000
E000
E000
E000
E000
E000
E000
E000
E000
E000
E000
E000
6000
7000
3000
3800
1800
0C00
0E00
0700
0180
00C0
ENDCHAR
STARTCHAR parenright
ENCODING 41
SWIDTH 357 0
DWIDTH 13 0
BBX 10 34 1 -7
BITMAP
8000
C000
7000
1800
0C00
0E00
0600
0700
0300
0380
0380
01C0
01C0
01C0
01C0
01C0
01C0
01C0
01C0
01C0
01C0
01C0
01C0
0180
0380
0380
0300
0700
0600
0C00
1800
3000
6000
C000
ENDCHAR
STARTCHAR asterisk
ENCODING 42
SWIDTH 410 0
DWIDTH 15 0
BBX 12 14 1 12
BITMAP
0600
0700
0700
6630
F270
7AF0
0F00
0F00
7AF0
F270
6630
0700
0700
0600
ENDCHAR
STARTCHAR plus
ENCODING 43
SWIDTH 720 0
DWIDTH 26 0
BBX 22 23 2 -2
BITMAP
003000
003000
003000
003000
003000
003000
003000
003000
003000
003000
FFFFFC
FFFFFC
FFFFFC
003000
003000
003000
003000
003000
003000
003000
003000
003000
003000
ENDCHAR
STARTCHAR comma
ENCODING 44
SWIDTH 245 0
DWIDTH 9 0
BBX 5 9 2 -5
BITMAP
70
F8
F8
78
18
18
30
60
C0
ENDCHAR
STARTCHAR hyphen
ENCODING 45
SWIDTH 315 0
DWIDTH 11 0
BBX 8 2 2 8
BITMAP
FF
FF
ENDCHAR
STARTCHAR period
ENCODING 46
SWIDTH 245 0
DWIDTH 9 0
BBX 5 5 2 0
BITMAP
70
F0
F8
F0
70
ENDCHAR
STARTCHAR slash
ENCODING 47
SWIDTH 386 0
DWIDTH 14 0
BBX 12 30 1 -3
BITMAP
0030
0060
0060
0060
00C0
00C0
00C0
0180
0180
0180
0300
0300
0300
0700
0600
0600
0600
0C00
0C00
0C00
1800
1800
1800
3000
3000
3000
6000
6000
6000
C000
ENDCHAR
STARTCHAR zero
ENCODING 48
SWIDTH 495 0
DWIDTH 18 0
BBX 16 24 1 0
BITMAP
07E0
1E70
1838
381C
701C
700E
700E
F00E
F00F
E00F
E00F
E00F
E00F
E00F
E00F
F00F
F00E
700E
700E
701C
381C
1C38
1EF0
07E0
ENDCHAR
STARTCHAR one
ENCODING 49
SWIDTH 495 0
DWIDTH 18 0
BBX 12 24 3 0
BITMAP
0100
1F00
FF00
8F00
0700
0700
0700
0700
0700
0700
0700
0700
0700
0700
0700
0700
0700
0700
0700
0700
0F00
0F00
7FE0
FFF0
ENDCHAR
STARTCHAR two
ENCODING 50
SWIDTH 495 0
DWIDTH 18 0
BBX 16 24 1 0
BITMAP
07E0
1FF0
3878
603C
401C
401C
001E
001C
001C
001C
0018
0038
0030
0060
00C0
01C0
0380
0700
0E03
1C02
3806
3FFE
7FFE
FFFE
ENDCHAR
STARTCHAR three
ENCODING 51
SWIDTH 495 0
DWIDTH 18 0
BBX 14 24 2 0
BITMAP
0FC0
1FE0
30F0
4070
C078
0078
0070
0070
0060
00C0
0380
0FE0
03F0
0078
003C
003C
001C
001C
001C
0018
0038
E030
FDC0
7F00
ENDCHAR
STARTCHAR four
ENCODING 52
SWIDTH 495 0
DWIDTH 18 0
BBX 17 24 0 0
BITMAP
001C00
003C00
003C00
007C00
00FC00
00BC00
01BC00
033C00
063C00
043C00
0C3C00
183C00
103C00
303C00
603C00
FFFF80
FFFF80
FFFF80
003C00
003C00
003C00
003C00
003C00
003C00
ENDCHAR
STARTCHAR five
ENCODING 53
SWIDTH 495 0
DWIDTH 18 0
BBX 14 24 2 0
BITMAP
0FFC
1FF8
1FF8
1000
1000
1000
3000
3000
3F80
3FE0
7FF0
01F8
0078
003C
001C
001C
001C
001C
001C
0018
4038
F070
FFC0
7F00
ENDCHAR
STARTCHAR six
ENCODING 54
SWIDTH 495 0
DWIDTH 18 0
BBX 14 24 2 0
BITMAP
0078
01E0
0780
0E00
1C00
3800
7000
7000
F3E0
EFF0
F8F8
F03C
E01C
E01C
E01C
E01C
E01C
E01C
E01C
701C
7018
3838
1EF0
0FC0
ENDCHAR
STARTCHAR seven
ENCODING 55
SWIDTH 495 0
DWIDTH 18 0
BBX 15 24 2 0
BITMAP
7FFE
7FFE
FFFC
C00C
8018
8018
0018
0030
0030
0070
0060
00E0
00E0
00C0
01C0
0180
0380
0380
0300
0700
0700
0E00
0E00
1C00
ENDCHAR
STARTCHAR eight
ENCODING 56
SWIDTH 495 0
DWIDTH 18 0
BBX 14 24 2 0
BITMAP
0FC0
3DF0
7030
E038
E018
E018
E038
F038
7830
3C60
1F80
0FC0
0FE0
19F0
7078
E03C
E03C
C01C
C01C
E01C
E01C
7038
3CF0
0FC0
ENDCHAR
STARTCHAR nine
ENCODING 57
SWIDTH 495 0
DWIDTH 18 0
BBX 15 24 1 0
BITMAP
07E0
1EF0
3838
701C
701C
700E
F00E
F00E
F00E
700E
700E
781E
3C3E
3FEE
0FCE
001C
001C
003C
0038
0070
00F0
03C0
0F80
3C00
ENDCHAR
STARTCHAR colon
ENCODING 58
SWIDTH 245 0
DWIDTH 9 0
BBX 5 18 2 0
BITMAP
70
F0
F8
F0
70
00
00
00
00
00
00
00
00
70
F0
F8
F0
70
ENDCHAR
STARTCHAR semicolon
ENCODING 59
SWIDTH 245 0
DWIDTH 9 0
BBX 5 23 2 -5
BITMAP
70
F0
F8
F0
70
00
00
00
00
00
00
00
00
00
70
F8
F8
78
18
18
30
60
C0
ENDCHAR
STARTCHAR less
ENCODING 60
SWIDTH 720 0
DWIDTH 26 0
BBX 20 21 3 -1
BITMAP
000010
000030
0000F0
0003E0
000F80
003E00
00F800
03E000
0F8000
3E0000
F80000
7C0000
1F0000
07C000
01F000
007C00
001F00
0007C0
0001F0
000070
000010
ENDCHAR
STARTCHAR equal
ENCODING 61
SWIDTH 720 0
DWIDTH 26 0
BBX 22 10 2 5
BITMAP
FFFFFC
FFFFFC
FFFFFC
000000
000000
000000
000000
FFFFFC
FFFFFC
FFFFFC
ENDCHAR
STARTCHAR greater
ENCODING 62
SWIDTH 720 0
DWIDTH 26 0
BBX 20 21 3 -1
BITMAP
800000
C00000
F00000
7C0000
1F0000
07C000
01F000
007C00
001F00
0007C0
0001F0
0003E0
000F80
003E00
00F800
03E000
0F8000
3E0000
F80000
C00000
800000
ENDCHAR
STARTCHAR question
ENCODING 63
SWIDTH 411 0
DWIDTH 15 0
BBX 13 24 1 0
BITMAP
1F80
3BE0
6070
E078
E038
F038
E038
0078
0070
0070
00E0
00C0
0180
0380
0300
0200
0200
0200
0000
0000
0700
0F00
0F00
0700
ENDCHAR
STARTCHAR at
ENCODING 64
SWIDTH 905 0
DWIDTH 33 0
BBX 28 29 2 -6
BITMAP
003FF000
00F87C00
03800F00
07000380
0C0001C0
180000C0
381F18E0
3039B860
70707870
60E07830
60C03830
E1C03830
E1C03830
E1C03830
E1C03030
E1C03030
E1C03030
E1C03070
61C07070
61E0F060
70F1B9C0
707F3F80
383E1F00
38000000
1C000000
0E000000
07800100
01F00F00
007FF800
ENDCHAR
STARTCHAR A
ENCODING 65
SWIDTH 718 0
DWIDTH 26 0
BBX 26 24 0 0
BITMAP
000C0000
001C0000
001E0000
003E0000
003E0000
003F0000
00670000
00678000
00C78000
00C3C000
00C3C000
0181E000
0181E000
0301E000
0300F000
07FFF000
06007800
06007800
0C003C00
0C003C00
18003E00
18003E00
7E007F80
FF00FFC0
ENDCHAR
STARTCHAR B
ENCODING 66
SWIDTH 618 0
DWIDTH 22 0
BBX 20 24 1 0
BITMAP
FFFE00
1FBF80
0E03C0
0E01C0
0E01E0
0E01E0
0E01E0
0E01E0
0E01C0
0E0380
0E0700
0FFC00
0E1F80
0E03C0
0E01E0
0E00F0
0E00F0
0E00F0
0E00F0
0E00F0
0E01E0
0E01E0
1E1F80
FFFE00
ENDCHAR
STARTCHAR C
ENCODING 67
SWIDTH 670 0
DWIDTH 24 0
BBX 21 24 2 0
BITMAP
00FE30
07EFF0
0E01F0
1C0070
380070
780030
700030
F00030
F00010
F00000
F00000
F00000
F00000
F00000
F00000
F00000
F00000
780000
780000
3C0018
1E0070
0FC1E0
07FF80
01FE00
ENDCHAR
STARTCHAR D
ENCODING 68
SWIDTH 730 0
DWIDTH 26 0
BBX 23 24 1 0
BITMAP
FFFE00
1FFFC0
0E03F0
0E00F8
0E0078
0E003C
0E001E
0E001E
0E001E
0E001E
0E000E
0E000E
0E000E
0E000E
0E000E
0E001E
0E001E
0E001C
0E003C
0E0038
0E0078
0E01E0
1E1FC0
FFFE00
ENDCHAR
STARTCHAR E
ENCODING 69
SWIDTH 626 0
DWIDTH 23 0
BBX 21 24 1 0
BITMAP
FFFFE0
1FFFE0
0E0060
0E0020
0E0020
0E0020
0E0000
0E0180
0E0180
0E0180
0E0380
0FFF80
0E0780
0E0180
0E0180
0E0180
0E0000
0E0018
0E0010
0E0010
0E0030
0E0070
1FFFF0
FFFFF0
ENDCHAR
STARTCHAR F
ENCODING 70
SWIDTH 588 0
DWIDTH 21 0
BBX 20 24 1 0
BITMAP
FFFFE0
1FFFF0
0E0070
0E0030
0E0030
0E0030
0E0000
0E0100
0E0100
0E0100
0E0300
0FFF00
0E0700
0E0100
0E0100
0E0100
0E0000
0E0000
0E0000
0E0000
0E0000
0E0000
7FC000
FFE000
ENDCHAR
STARTCHAR G
ENCODING 71
SWIDTH 720 0
DWIDTH 26 0
BBX 23 24 2 0
BITMAP
00FE10
07EFF0
0E01F0
1C0070
380070
780030
700030
F00030
F00010
F00000
F00000
F00000
F003FE
F001F8
F00070
F00070
F00070
700070
780070
380070
3C0070
1F00F0
07E7E0
01FF00
ENDCHAR
STARTCHAR H
ENCODING 72
SWIDTH 777 0
DWIDTH 28 0
BBX 25 24 2 0
BITMAP
FFC1FF80
FF80FF80
1E003C00
1E003C00
1E003C00
1E003C00
1E003C00
1E003C00
1E003C00
1E003C00
1E003C00
1FFFFC00
1E003C00
1E003C00
1E003C00
1E003C00
1E003C00
1E003C00
1E003C00
1E003C00
1E003C00
1E003C00
7F80FF00
FFC1FF80
ENDCHAR
STARTCHAR I
ENCODING 73
SWIDTH 357 0
DWIDTH 13 0
BBX 11 24 1 0
BITMAP
FFE0
7FC0
1E00
0E00
0E00
0E00
0E00
0E00
0E00
0E00
0E00
0E00
0E00
0E00
0E00
0E00
0E00
0E00
0E00
0E00
0E00
1E00
7FC0
FFE0
ENDCHAR
STARTCHAR J
ENCODING 74
SWIDTH 396 0
DWIDTH 14 0
BBX 14 24 0 0
BITMAP
1FFC
0FF8
01E0
01C0
01C0
01C0
01C0
01C0
01C0
01C0
01C0
01C0
01C0
01C0
01C0
01C0
01C0
01C0
01C0
41C0
E1C0
F1C0
FB80
3E00
ENDCHAR
STARTCHAR K
ENCODING 75
SWIDTH 702 0
DWIDTH 25 0
BBX 24 24 1 0
BITMAP
FFE3FE
7FC1FC
1E00E0
0E01C0
0E0180
0E0300
0E0600
0E0C00
0E1800
0E3000
0EE000
0FC000
0FE000
0EF800
0E7C00
0E3E00
0E1F00
0E0F80
0E07C0
0E03E0
0E01F0
1E00F8
7FC1FE
FFE3FF
ENDCHAR
STARTCHAR L
ENCODING 76
SWIDTH 585 0
DWIDTH 21 0
BBX 18 24 2 0
BITMAP
FFC000
FF8000
3C0000
1C0000
1C0000
1C0000
1C0000
1C0000
1C0000
1C0000
1C0000
1C0000
1C0000
1C0000
1C0000
1C0000
1C0000
1C0040
1C0040
1C00C0
1C00C0
1C01C0
3F0FC0
FFFF80
ENDCHAR
STARTCHAR M
ENCODING 77
SWIDTH 895 0
DWIDTH 32 0
BBX 30 24 1 0
BITMAP
FF0001FC
7F0003F8
1F0003E0
1F8007E0
1F8007C0
1BC00FC0
1BC00DC0
19E00DC0
19E019C0
18E019C0
18F031C0
18F031C0
187831C0
187861C0
183861C0
183CC1C0
181CC1C0
181F81C0
181F81C0
180F81C0
180F01C0
1C0701E0
7F0607F8
FF020FFC
ENDCHAR
STARTCHAR N
ENCODING 78
SWIDTH 742 0
DWIDTH 27 0
BBX 25 24 1 0
BITMAP
FE00FF80
7E007F00
1F001C00
1F801C00
1FC00C00
1BC00800
19E00800
19F00800
18F80800
18780800
183C0800
183E0800
181F0800
180F0800
18078800
1803C800
1803E800
1801F800
1800F800
18007800
18003800
1C003800
7F001800
FF000800
ENDCHAR
STARTCHAR O
ENCODING 79
SWIDTH 738 0
DWIDTH 27 0
BBX 23 24 2 0
BITMAP
00FE00
07CFC0
0E01E0
1C00F0
380078
780038
70003C
F0003C
F0001C
F0001E
F0001E
F0001E
F0001E
F0001E
F0001E
F0001C
F0003C
70003C
780038
380078
1C0070
0E01E0
07CF80
00FE00
ENDCHAR
STARTCHAR P
ENCODING 80
SWIDTH 569 0
DWIDTH 20 0
BBX 18 24 2 0
BITMAP
FFF800
3FFE00
1C0F00
1C0780
1C0380
1C03C0
1C03C0
1C0380
1C0380
1C0380
1C0700
1C1E00
1FFC00
1C8000
1C0000
1C0000
1C0000
1C0000
1C0000
1C0000
1C0000
3C0000
FF8000
FFC000
ENDCHAR
STARTCHAR Q
ENCODING 81
SWIDTH 737 0
DWIDTH 27 0
BBX 24 30 2 -6
BITMAP
00FE00
07CF80
0E01E0
1C00F0
380078
780038
70003C
F0003C
F0001C
F0001E
F0001E
F0001E
F0001E
F0001E
F0001E
F0001C
F0003C
70003C
780038
380078
3C0070
1E01E0
07CFC0
01FE00
001E00
001F00
000F80
0007C0
0003F8
0000FF
ENDCHAR
STARTCHAR R
ENCODING 82
SWIDTH 659 0
DWIDTH 24 0
BBX 22 24 2 0
BITMAP
FFF800
3F7F00
1C0780
1C0780
1C03C0
1C03C0
1C03C0
1C0380
1C0780
1C0700
1C3E00
1FF000
1CF000
1C7800
1C3C00
1C1E00
1C1E00
1C0F00
1C0780
1C0780
1C03C0
3C03E0
FF81F8
FFC0FC
ENDCHAR
STARTCHAR S
ENCODING 83
SWIDTH 504 0
DWIDTH 18 0
BBX 16 24 1 0
BITMAP
07E6
1EFE
381E
700E
7006
7006
7006
7802
7C00
3F00
1FC0
0FF0
03F8
00FC
007E
001F
800F
C00F
C007
E00F
E00E
F00E
7E7C
4FF0
ENDCHAR
STARTCHAR T
ENCODING 84
SWIDTH 603 0
DWIDTH 22 0
BBX 20 24 1 0
BITMAP
FFFFF0
F8F3F0
C0F030
80F030
80F010
80F010
00F000
00F000
00F000
00F000
00F000
00F000
00F000
00F000
00F000
00F000
00F000
00F000
00F000
00F000
00F000
00F000
03FC00
07FE00
ENDCHAR
STARTCHAR U
ENCODING 85
SWIDTH 752 0
DWIDTH 27 0
BBX 25 24 1 0
BITMAP
FFC07F80
7F807F80
1E000C00
1E000C00
1E000C00
1E000C00
1E000C00
1E000C00
1E000C00
1E000C00
1E000C00
1E000C00
1E000C00
1E000C00
1E000C00
1E000C00
1E000C00
1E000C00
0E001C00
0F001800
0F003800
07E0F000
03FFE000
00FF0000
ENDCHAR
STARTCHAR V
ENCODING 86
SWIDTH 680 0
DWIDTH 24 0
BBX 25 24 0 0
BITMAP
FF807F80
FF003F00
3E000C00
1E001C00
1E001800
0F001800
0F003000
07803000
07803000
07806000
03C06000
03C0C000
01E0C000
01E08000
00E18000
00F18000
00F30000
007B0000
007A0000
003E0000
003E0000
001C0000
001C0000
00180000
ENDCHAR
STARTCHAR W
ENCODING 87
SWIDTH 944 0
DWIDTH 34 0
BBX 34 24 0 0
BITMAP
FF8FF81FC0
FF07F81F80
3E01C00700
1E01E00600
1E01E00600
0E00E00C00
0F00F00C00
0F00700C00
0780F81800
0780F81800
0381B81800
03C1BC3000
03C11C3000
01E31C3000
01E31E6000
00E20E6000
00F60F6000
00F60FC000
007C07C000
007C07C000
0038038000
0038038000
0038030000
0010010000
ENDCHAR
STARTCHAR X
ENCODING 88
SWIDTH 664 0
DWIDTH 24 0
BBX 24 24 0 0
BITMAP
7FE1FE
7FC0FE
0F0070
0F8060
0780E0
03C0C0
01E180
01E300
00F600
007600
007C00
003C00
003E00
007E00
00CF00
00C780
018780
0303C0
0701E0
0601E0
0C00F0
1C00F8
7E01FE
FF03FF
ENDCHAR
STARTCHAR Y
ENCODING 89
SWIDTH 647 0
DWIDTH 23 0
BBX 23 24 0 0
BITMAP
FFC0FE
7F80FE
3E0030
1E0030
0F0060
0780C0
0780C0
03C180
01E180
01E300
00F600
007600
007C00
003C00
003800
003800
003800
003800
003800
003800
003800
003C00
01FF00
03FF80
ENDCHAR
STARTCHAR Z
ENCODING 90
SWIDTH 594 0
DWIDTH 21 0
BBX 19 24 1 0
BITMAP
3FFFE0
7E01E0
7003C0
600780
600780
400F00
001E00
001E00
003C00
007800
007800
00F000
01E000
01E000
03C000
078000
0F8000
0F0020
1E0020
3E0020
3C0060
7800E0
F807E0
FFFFC0
ENDCHAR
STARTCHAR bracketleft
ENCODING 91
SWIDTH 349 0
DWIDTH 13 0
BBX 8 34 3 -7
BITMAP
FF
E0
E0
E0
E0
E0
E0
E0
E0
E0
E0
E0
E0
E0
E0
E0
E0
E0
E0
E0
E0
E0
E0
E0
E0
E0
E0
E0
E0
E0
E0
E0
E0
FF
ENDCHAR
STARTCHAR backslash
ENCODING 92
SWIDTH 385 0
DWIDTH 14 0
BBX 12 30 1 -3
BITMAP
C000
6000
6000
6000
3000
3000
3000
3000
1800
1800
1800
0C00
0C00
0C00
0600
0600
0600
0300
0300
0300
0180
0180
0180
00C0
00C0
00C0
0040
0060
0060
0070
ENDCHAR
STARTCHAR bracketright
ENCODING 93
SWIDTH 349 0
DWIDTH 13 0
BBX 7 34 2 -7
BITMAP
FE
0E
0E
0E
0E
0E
0E
0E
0E
0E
0E
0E
0E
0E
0E
0E
0E
0E
0E
0E
0E
0E
0E
0E
0E
0E
0E
0E
0E
0E
0E
0E
0E
FE
ENDCHAR
STARTCHAR asciicircum
ENCODING 94
SWIDTH 480 0
DWIDTH 17 0
BBX 15 14 1 11
BITMAP
0180
0380
03C0
06C0
06E0
0C60
0C70
1830
1838
3018
3018
600C
600C
E006
ENDCHAR
STARTCHAR underscore
ENCODING 95
SWIDTH 512 0
DWIDTH 18 0
BBX 18 1 0 -4
BITMAP
FFFFC0
ENDCHAR
STARTCHAR grave
ENCODING 96
SWIDTH 222 0
DWIDTH 8 0
BBX 6 6 1 19
BITMAP
E0
F0
70
38
18
0C
ENDCHAR
STARTCHAR a
ENCODING 97
SWIDTH 480 0
DWIDTH 17 0
BBX 16 18 1 0
BITMAP
0FC0
1DF0
3070
7038
7038
3038
0038
0078
03F8
0E38
3838
7038
7038
F038
F038
7079
7DBE
3E1C
ENDCHAR
STARTCHAR b
ENCODING 98
SWIDTH 522 0
DWIDTH 19 0
BBX 18 27 0 0
BITMAP
040000
7C0000
FC0000
1C0000
1C0000
1C0000
1C0000
1C0000
1C0000
1C7C00
1CFE00
1DFF00
1F0F80
1C0780
1C0380
1C0380
1C03C0
1C03C0
1C0380
1C0380
1C0380
1C0380
1C0300
1C0700
1C0E00
1FBC00
07F000
ENDCHAR
STARTCHAR c
ENCODING 99
SWIDTH 446 0
DWIDTH 16 0
BBX 14 18 1 0
BITMAP
07E0
1EF8
3838
303C
601C
6000
E000
E000
E000
E000
E000
F000
7004
7804
7C18
3FF8
1FF0
07C0
ENDCHAR
STARTCHAR d
ENCODING 100
SWIDTH 539 0
DWIDTH 19 0
BBX 18 27 1 0
BITMAP
000200
001E00
007E00
000E00
000E00
000E00
000E00
000E00
000E00
03EE00
0F7E00
181E00
300E00
700E00
700E00
600E00
E00E00
E00E00
E00E00
E00E00
F00E00
F00E00
780E00
7C1E00
3FFE00
3FCFC0
0F8E00
ENDCHAR
STARTCHAR e
ENCODING 101
SWIDTH 464 0
DWIDTH 17 0
BBX 15 18 1 0
BITMAP
07C0
1EF0
3838
7038
701C
601C
E01C
FFFC
E002
E000
E000
F000
7004
7806
3C0C
3FF8
1FF0
07E0
ENDCHAR
STARTCHAR f
ENCODING 102
SWIDTH 307 0
DWIDTH 11 0
BBX 13 26 1 0
BITMAP
03F0
0EF0
0C78
1C30
1C00
1C00
1C00
1C00
FFC0
1C00
1C00
1C00
1C00
1C00
1C00
1C00
1C00
1C00
1C00
1C00
1C00
1C00
1C00
3C00
FF00
FF80
ENDCHAR
STARTCHAR g
ENCODING 103
SWIDTH 484 0
DWIDTH 17 0
BBX 16 27 1 -9
BITMAP
07FF
1EF8
3838
703C
703C
701C
701C
701C
7038
3838
1C70
1FE0
3000
7000
7000
7FF8
7FFE
3FFE
200F
6003
E003
E002
E006
F00C
FFF8
7FE0
0400
ENDCHAR
STARTCHAR h
ENCODING 104
SWIDTH 577 0
DWIDTH 21 0
BBX 19 26 1 0
BITMAP
1C0000
FC0000
3C0000
1C0000
1C0000
1C0000
1C0000
1C0000
1C7C00
1DFE00
1F0F00
1E0700
1C0700
1C0700
1C0700
1C0700
1C0700
1C0700
1C0700
1C0700
1C0700
1C0700
1C0700
3C0780
7E1FC0
FF1FE0
ENDCHAR
STARTCHAR i
ENCODING 105
SWIDTH 285 0
DWIDTH 10 0
BBX 8 24 1 0
BITMAP
1C
3C
3C
1C
00
00
3C
FC
3C
1C
1C
1C
1C
1C
1C
1C
1C
1C
1C
1C
1C
1C
7F
FF
ENDCHAR
STARTCHAR j
ENCODING 106
SWIDTH 263 0
DWIDTH 9 0
BBX 10 33 -3 -9
BITMAP
0180
03C0
03C0
0180
0000
0000
03C0
0FC0
03C0
01C0
01C0
01C0
01C0
01C0
01C0
01C0
01C0
01C0
01C0
01C0
01C0
01C0
01C0
01C0
01C0
01C0
0180
0180
4380
E380
F300
FE00
1000
ENDCHAR
STARTCHAR k
ENCODING 107
SWIDTH 542 0
DWIDTH 20 0
BBX 18 26 1 0
BITMAP
1C0000
FC0000
3C0000
1C0000
1C0000
1C0000
1C0000
1C0000
1C7F80
1C3F00
1C1C00
1C3800
1C6000
1CC000
1D8000
1F0000
1F8000
1FC000
1DE000
1CF000
1C7800
1C3C00
1C1E00
3C0F00
FF0F80
FF3FC0
ENDCHAR
STARTCHAR l
ENCODING 108
SWIDTH 283 0
DWIDTH 10 0
BBX 8 26 1 0
BITMAP
1C
FC
3C
1C
1C
1C
1C
1C
1C
1C
1C
1C
1C
1C
1C
1C
1C
1C
1C
1C
1C
1C
1C
3C
7F
FF
ENDCHAR
STARTCHAR m
ENCODING 109
SWIDTH 852 0
DWIDTH 31 0
BBX 29 18 1 0
BITMAP
1C7C1F00
FCFE3F80
3F0FE3C0
1E0781C0
1C0701C0
1C0701C0
1C0701C0
1C0701C0
1C0701C0
1C0701C0
1C0701C0
1C0701C0
1C0701C0
1C0701C0
1C0701C0
1C0701C0
7F1FC7F0
FF3FE7F8
ENDCHAR
STARTCHAR n
ENCODING 110
SWIDTH 576 0
DWIDTH 21 0
BBX 19 18 1 0
BITMAP
1C7C00
FCFE00
3F0F00
1E0700
1C0700
1C0700
1C0700
1C0700
1C0700
1C0700
1C0700
1C0700
1C0700
1C0700
1C0700
1C0700
7F1FC0
FF1FE0
ENDCHAR
STARTCHAR o
ENCODING 111
SWIDTH 514 0
DWIDTH 19 0
BBX 16 18 1 0
BITMAP
07E0
1F78
381C
380E
700F
7007
F007
F007
F007
F007
F007
F007
7007
700E
380E
3C1C
1F78
07E0
ENDCHAR
STARTCHAR p
ENCODING 112
SWIDTH 537 0
DWIDTH 19 0
BBX 17 26 1 -8
BITMAP
187800
F9FE00
FBFF00
3E0F00
3C0780
380780
380380
380380
380380
380380
380380
380380
380700
380700
3C0600
3E0E00
3FBC00
3BF000
380000
380000
380000
380000
380000
3C0000
7F0000
FF8000
ENDCHAR
STARTCHAR q
ENCODING 113
SWIDTH 521 0
DWIDTH 19 0
BBX 17 26 1 -8
BITMAP
03E600
0F7E00
181E00
300E00
700E00
700E00
600E00
E00E00
E00E00
E00E00
E00E00
F00E00
F00E00
780E00
7C1E00
3FFE00
3FCE00
0F8E00
000E00
000E00
000E00
000E00
000E00
000E00
007F00
007F80
ENDCHAR
STARTCHAR r
ENCODING 114
SWIDTH 380 0
DWIDTH 14 0
BBX 12 18 1 0
BITMAP
1C70
FCF0
3DF0
1E30
1E00
1C00
1C00
1C00
1C00
1C00
1C00
1C00
1C00
1C00
1C00
1C00
7F00
FF80
ENDCHAR
STARTCHAR s
ENCODING 115
SWIDTH 395 0
DWIDTH 14 0
BBX 12 18 1 0
BITMAP
1FA0
3BE0
6060
6060
E020
F020
7800
7E00
3F80
0FC0
03E0
00F0
8070
C070
C070
E070
FDE0
DF80
ENDCHAR
STARTCHAR t
ENCODING 116
SWIDTH 315 0
DWIDTH 11 0
BBX 10 23 1 0
BITMAP
0800
0800
1800
1800
3800
FF80
3800
3800
3800
3800
3800
3800
3800
3800
3800
3800
3800
3800
3800
3840
1CC0
1F80
0F00
ENDCHAR
STARTCHAR u
ENCODING 117
SWIDTH 570 0
DWIDTH 21 0
BBX 18 18 1 0
BITMAP
F81F00
F83F00
380700
380700
380700
380700
380700
380700
380700
380700
380700
380700
380700
3C0700
1C0F00
1E3F00
1FE7C0
07C780
ENDCHAR
STARTCHAR v
ENCODING 118
SWIDTH 481 0
DWIDTH 17 0
BBX 18 18 0 0
BITMAP
FE0FC0
FE0F80
380300
3C0600
1C0600
1C0600
1E0C00
0E0C00
0E0800
071800
071800
071000
03B000
03A000
03E000
01E000
01C000
00C000
ENDCHAR
STARTCHAR w
ENCODING 119
SWIDTH 749 0
DWIDTH 27 0
BBX 28 18 -1 0
BITMAP
FF1FC3F0
7F1FC1F0
1C0700C0
1E0780C0
0E0380C0
0E038180
0F03C180
0707C100
0705C300
038CE300
0388E200
03C8E600
01D87600
01D07400
01F07C00
00F03800
00E03800
00603800
ENDCHAR
STARTCHAR x
ENCODING 120
SWIDTH 479 0
DWIDTH 17 0
BBX 17 18 0 0
BITMAP
FF1F80
7F1F00
1C0C00
1E0C00
0F1800
073000
03A000
03E000
01C000
01E000
03F000
067000
063800
0C3C00
181C00
381E00
F81F80
FC3F80
ENDCHAR
STARTCHAR y
ENCODING 121
SWIDTH 483 0
DWIDTH 17 0
BBX 18 27 0 -9
BITMAP
FE0FC0
FE0F80
380300
3C0600
1C0600
1C0600
1E0C00
0E0C00
0F0800
071800
079800
039000
03B000
01F000
01E000
01E000
00C000
00C000
00C000
018000
018000
030000
430000
FE0000
FE0000
FC0000
200000
ENDCHAR
STARTCHAR z
ENCODING 122
SWIDTH 458 0
DWIDTH 16 0
BBX 14 18 1 0
BITMAP
7FFC
783C
6038
4078
40F0
00E0
01E0
03C0
0380
0780
0F00
0E00
1E04
3C04
380C
780C
FFFC
FFFC
ENDCHAR
STARTCHAR braceleft
ENCODING 123
SWIDTH 327 0
DWIDTH 12 0
BBX 9 34 1 -7
BITMAP
0780
0F00
1C00
1800
3800
3800
3800
1800
1800
1C00
1C00
1C00
1C00
1C00
1800
1800
F000
E000
3000
1800
1800
1C00
1C00
1C00
1C00
1800
1800
3800
3800
3800
1800
1C00
0E00
0780
ENDCHAR
STARTCHAR bar
ENCODING 124
SWIDTH 267 0
DWIDTH 10 0
BBX 2 35 4 -8
BITMAP
C0
C0
C0
C0
C0
C0
C0
C0
C0
C0
C0
C0
C0
C0
C0
C0
C0
C0
C0
C0
C0
C0
C0
C0
C0
C0
C0
C0
C0
C0
C0
C0
C0
C0
C0
ENDCHAR
STARTCHAR braceright
ENCODING 125
SWIDTH 327 0
DWIDTH 12 0
BBX 9 34 2 -7
BITMAP
E000
7800
1C00
1C00
0C00
0C00
0C00
1C00
1C00
1C00
1C00
1C00
1C00
1C00
1C00
0C00
0780
0380
0600
0C00
1C00
1C00
1C00
1C00
1C00
1C00
1C00
0C00
0C00
0C00
0C00
1C00
3800
F000
ENDCHAR
STARTCHAR asciitilde
ENCODING 126
SWIDTH 557 0
DWIDTH 20 0
BBX 18 6 1 6
BITMAP
000080
1F01C0
7FE380
70FF00
E03E00
400000
ENDCHAR
STARTCHAR uni00A0
ENCODING 160
SWIDTH 235 0
DWIDTH 8 0
BBX 1 1 0 0
BITMAP
00
ENDCHAR
STARTCHAR exclamdown
ENCODING 161
SWIDTH 282 0
DWIDTH 10 0
BBX 4 24 3 -6
BITMAP
70
F0
F0
70
00
00
60
60
60
60
60
60
60
60
60
70
70
F0
F0
F0
F0
F0
F0
F0
ENDCHAR
STARTCHAR cent
ENCODING 162
SWIDTH 495 0
DWIDTH 18 0
BBX 14 25 2 -1
BITMAP
0180
0180
0100
0180
0FF0
1978
3138
613C
E118
E100
E100
E100
E100
E300
E300
E300
F304
FB0C
7F18
3FF0
1FF0
0FC0
0300
0300
0300
ENDCHAR
STARTCHAR sterling
ENCODING 163
SWIDTH 495 0
DWIDTH 18 0
BBX 17 24 0 0
BITMAP
007C00
01DF00
030700
030780
070300
070000
070000
070000
070000
070000
070000
3FF800
078000
078000
038000
038000
038000
030000
030000
3F0080
678180
C7FF00
6CFE00
787C00
ENDCHAR
STARTCHAR currency
ENCODING 164
SWIDTH 617 0
DWIDTH 22 0
BBX 20 19 1 1
BITMAP
600020
F00070
39F8E0
1F9FC0
0E0780
0C0380
180180
1801C0
1800C0
3000C0
3000C0
1800C0
180180
1C0180
0E0300
1F0F80
3BFDC0
F000F0
600060
ENDCHAR
STARTCHAR yen
ENCODING 165
SWIDTH 495 0
DWIDTH 18 0
BBX 18 23 0 0
BITMAP
FF0FC0
7C0780
3C0700
3C0600
1E0400
0E0C00
0F0C00
071800
079800
039000
03F000
01E000
1FFE00
01E000
01E000
01E000
1FFE00
01E000
01E000
01E000
01E000
07F800
0FFC00
ENDCHAR
STARTCHAR brokenbar
ENCODING 166
SWIDTH 267 0
DWIDTH 10 0
BBX 2 27 4 -1
BITMAP
C0
C0
C0
C0
C0
C0
C0
C0
C0
C0
C0
00
00
00
00
00
C0
C0
C0
C0
C0
C0
C0
C0
C0
C0
C0
ENDCHAR
STARTCHAR section
ENCODING 167
SWIDTH 491 0
DWIDTH 18 0
BBX 12 32 3 -8
BITMAP
0F80
3DC0
6060
6060
6060
6060
7020
7800
3C00
1E00
1F00
3780
43C0
C1E0
C0E0
C070
E070
E030
7030
7820
3E60
1F80
0F80
0780
01C0
40E0
E0E0
C060
C060
C0E0
61C0
3F00
ENDCHAR
STARTCHAR dieresis
ENCODING 168
SWIDTH 392 0
DWIDTH 14 0
BBX 12 4 1 21
BITMAP
6060
F0F0
F0F0
6060
ENDCHAR
STARTCHAR copyright
ENCODING 169
SWIDTH 781 0
DWIDTH 28 0
BBX 24 25 2 0
BITMAP
00FF00
03C3C0
0E0070
180018
30000C
207E84
60E786
418182
438083
C30083
830001
830001
830001
830001
830001
C38003
C18043
41E182
607F06
200004
30000C
180018
0E0030
0781E0
01FF80
ENDCHAR
STARTCHAR ordfeminine
ENCODING 170
SWIDTH 410 0
DWIDTH 15 0
BBX 14 14 1 9
BITMAP
1F80
31C0
70E0
70E0
20E0
00E0
0FE0
38E0
70E0
E0E0
E0E0
F0E8
7FFC
3C70
ENDCHAR
STARTCHAR guillemotleft
ENCODING 171
SWIDTH 517 0
DWIDTH 19 0
BBX 16 15 1 1
BITMAP
0103
0306
060C
0C1C
1838
3870
70E0
E0E0
70F0
3830
1C18
0C0C
0606
0303
0102
ENDCHAR
STARTCHAR logicalnot
ENCODING 172
SWIDTH 720 0
DWIDTH 26 0
BBX 21 13 2 3
BITMAP
FFFFF8
FFFFF8
FFFFF8
000038
000038
000038
000038
000038
000038
000038
000038
000038
000038
ENDCHAR
STARTCHAR uni00AD
ENCODING 173
SWIDTH 315 0
DWIDTH 11 0
BBX 8 2 2 8
BITMAP
FF
FF
ENDCHAR
STARTCHAR registered
ENCODING 174
SWIDTH 413 0
DWIDTH 15 0
BBX 13 13 1 14
BITMAP
0F80
38E0
2020
5F10
4C90
8C88
8F08
8D08
8D90
5ED0
6030
3060
1F80
ENDCHAR
STARTCHAR macron
ENCODING 175
SWIDTH 350 0
DWIDTH 13 0
BBX 11 2 1 21
BITMAP
FFE0
FFE0
ENDCHAR
STARTCHAR degree
ENCODING 176
SWIDTH 409 0
DWIDTH 15 0
BBX 11 11 2 15
BITMAP
1F00
7380
60C0
C0E0
C060
C060
C060
C060
E0C0
71C0
3F00
ENDCHAR
STARTCHAR plusminus
ENCODING 177
SWIDTH 720 0
DWIDTH 26 0
BBX 22 23 2 -1
BITMAP
003000
003000
003000
003000
003000
003000
003000
003000
FFFFFC
FFFFFC
003000
003000
003000
003000
003000
003000
003000
003000
003000
000000
000000
FFFFFC
FFFFFC
ENDCHAR
STARTCHAR twosuperior
ENCODING 178
SWIDTH 373 0
DWIDTH 13 0
BBX 12 17 1 9
BITMAP
1F00
7FC0
41C0
80E0
00E0
00E0
00E0
00C0
0180
0300
0600
0C00
1800
3030
6020
FFE0
FFE0
ENDCHAR
STARTCHAR threesuperior
ENCODING 179
SWIDTH 374 0
DWIDTH 13 0
BBX 11 17 1 9
BITMAP
1F00
7F80
41C0
81C0
01C0
0180
0300
1F00
03C0
01E0
00E0
0060
0060
00E0
40C0
F180
7E00
ENDCHAR
STARTCHAR acute
ENCODING 180
SWIDTH 222 0
DWIDTH 8 0
BBX 6 6 1 19
BITMAP
1C
3C
38
70
60
C0
ENDCHAR
STARTCHAR uni00B5
ENCODING 181
SWIDTH 556 0
DWIDTH 20 0
BBX 18 26 2 -8
BITMAP
701C00
701C00
701C00
701C00
701C00
601C00
601800
601800
601800
603800
603800
603800
607800
F05800
F0DC40
DF8F80
DF8F80
CF0F00
C00000
C00000
E00000
E00000
E00000
E00000
E00000
800000
ENDCHAR
STARTCHAR paragraph
ENCODING 182
SWIDTH 605 0
DWIDTH 22 0
BBX 18 30 2 -6
BITMAP
0FFFC0
3FCF00
71CE00
71CC00
E1CC00
E1CC00
E1CC00
E1CC00
E1CC00
E1CC00
E1CC00
71CC00
71CC00
39CC00
0FCC00
01CC00
01CC00
01CC00
01CC00
01CC00
01CC00
01CC00
01CC00
01CC00
01CC00
01CC00
01CC00
01CE00
03CF00
0FCFC0
ENDCHAR
STARTCHAR periodcentered
ENCODING 183
SWIDTH 282 0
DWIDTH 10 0
BBX 4 4 3 7
BITMAP
60
F0
F0
70
ENDCHAR
STARTCHAR cedilla
ENCODING 184
SWIDTH 247 0
DWIDTH 9 0
BBX 7 8 1 -8
BITMAP
20
20
3C
0E
06
06
8C
7C
ENDCHAR
STARTCHAR onesuperior
ENCODING 185
SWIDTH 343 0
DWIDTH 12 0
BBX 9 17 2 9
BITMAP
3C00
FC00
1C00
1C00
1C00
1C00
1C00
1C00
1C00
1C00
1C00
1C00
1C00
1C00
1C00
3C00
FF80
ENDCHAR
STARTCHAR ordmasculine
ENCODING 186
SWIDTH 432 0
DWIDTH 16 0
BBX 13 14 1 9
BITMAP
0FC0
38E0
7030
6038
E038
E018
E018
E018
E018
E038
6038
7030
3860
0FC0
ENDCHAR
STARTCHAR guillemotright
ENCODING 187
SWIDTH 517 0
DWIDTH 19 0
BBX 15 15 2 1
BITMAP
8180
C0C0
6060
3030
1838
1C1C
0E0E
070E
0E0E
1C1C
3838
3070
6060
C080
8180
ENDCHAR
STARTCHAR onequarter
ENCODING 188
SWIDTH 861 0
DWIDTH 31 0
BBX 28 26 2 0
BITMAP
00000C00
38001800
F8001800
38003000
18002000
18006000
1800C000
1800C000
18018000
18018000
180300C0
180601C0
180603C0
180C07C0
3C0C0DC0
FF1809C0
001019C0
003031C0
006061C0
0060C1C0
00C0FFF0
00C0FFF0
018001C0
010001C0
030001C0
060001C0
ENDCHAR
STARTCHAR onehalf
ENCODING 189
SWIDTH 889 0
DWIDTH 32 0
BBX 29 26 2 0
BITMAP
00000C00
08000800
78001800
F8003000
18003000
18006000
18004000
1800C000
18018000
18018000
18030000
180307C0
18061FE0
180C3070
180C2070
3C180030
FF180070
00300070
00600060
006000C0
00C00180
00C00300
01800C08
01001818
03003FF8
06003FF0
ENDCHAR
STARTCHAR threequarters
ENCODING 190
SWIDTH 861 0
DWIDTH 31 0
BBX 29 26 1 0
BITMAP
00000600
1F000C00
63C00C00
41C01800
81C01000
01C03000
01806000
06006000
1F80C000
07C0C000
00E180E0
00E300E0
00E301E0
40C603E0
F1C606E0
7F0C04E0
00080CE0
001818E0
003030E0
003060E0
00607FF8
00607FF8
00C000E0
008000E0
018000E0
030000E0
ENDCHAR
STARTCHAR questiondown
ENCODING 191
SWIDTH 411 0
DWIDTH 15 0
BBX 13 25 1 -7
BITMAP
0700
0780
0780
0700
0000
0000
0200
0200
0200
0600
0600
0C00
1C00
3800
3800
7000
7000
E010
E078
E078
E038
F038
7030
3870
1FC0
ENDCHAR
STARTCHAR Agrave
ENCODING 192
SWIDTH 718 0
DWIDTH 26 0
BBX 26 31 0 0
BITMAP
00780000
003C0000
001C0000
000E0000
00030000
00000000
00000000
000C0000
001C0000
001E0000
003E0000
003E0000
003F0000
00670000
00678000
00C78000
00C3C000
00C3C000
0181E000
0181E000
0301E000
0300F000
07FFF000
06007800
06007800
0C003C00
0C003C00
18003E00
18003E00
7E007F80
FF00FFC0
ENDCHAR
STARTCHAR Aacute
ENCODING 193
SWIDTH 718 0
DWIDTH 26 0
BBX 26 31 0 0
BITMAP
00078000
000F0000
001C0000
00380000
00700000
00000000
00000000
000C0000
001C0000
001E0000
003E0000
003E0000
003F0000
00670000
00678000
00C78000
00C3C000
00C3C000
0181E000
0181E000
0301E000
0300F000
07FFF000
06007800
06007800
0C003C00
0C003C00
18003E00
18003E00
7E007F80
FF00FFC0
ENDCHAR
STARTCHAR Acircumflex
ENCODING 194
SWIDTH 718 0
DWIDTH 26 0
BBX 26 31 0 0
BITMAP
001C0000
003E0000
00770000
00618000
01C0C000
00000000
00000000
000C0000
001C0000
001E0000
003E0000
003E0000
003F0000
00670000
00678000
00C78000
00C3C000
00C3C000
0181E000
0181E000
0301E000
0300F000
07FFF000
06007800
06007800
0C003C00
0C003C00
18003E00
18003E00
7E007F80
FF00FFC0
ENDCHAR
STARTCHAR Atilde
ENCODING 195
SWIDTH 718 0
DWIDTH 26 0
BBX 26 31 0 0
BITMAP
00782000
00FE4000
019FC000
01078000
00000000
00000000
00000000
000C0000
001C0000
001E0000
003E0000
003E0000
003F0000
00670000
00678000
00C78000
00C3C000
00C3C000
0181E000
0181E000
0301E000
0300F000
07FFF000
06007800
06007800
0C003C00
0C003C00
18003E00
18003E00
7E007F80
FF00FFC0
ENDCHAR
STARTCHAR Adieresis
ENCODING 196
SWIDTH 718 0
DWIDTH 26 0
BBX 26 30 0 0
BITMAP
01C1C000
01E1E000
01E1E000
01C1C000
00000000
00000000
000C0000
001C0000
001E0000
003E0000
003E0000
003F0000
00670000
00678000
00C78000
00C3C000
00C3C000
0181E000
0181E000
0301E000
0300F000
07FFF000
06007800
06007800
0C003C00
0C003C00
18003E00
18003E00
7E007F80
FF00FFC0
ENDCHAR
STARTCHAR Aring
ENCODING 197
SWIDTH 718 0
DWIDTH 26 0
BBX 26 33 0 0
BITMAP
001E0000
00330000
00610000
00610000
00610000
00630000
003E0000
00000000
00000000
000C0000
001C0000
001E0000
003E0000
003E0000
003F0000
00670000
00678000
00C78000
00C3C000
00C3C000
0181E000
0181E000
0301E000
0300F000
07FFF000
06007800
06007800
0C003C00
0C003C00
18003E00
18003E00
7E007F80
FF00FFC0
ENDCHAR
STARTCHAR AE
ENCODING 198
SWIDTH 894 0
DWIDTH 32 0
BBX 32 24 -1 0
BITMAP
001FFFFE
0007FFFE
0006E00E
0006E006
000CE002
000CE002
0018E000
0018E000
0030E010
0030E010
0060E010
0060E030
00FFFFF0
01C0E070
0180E010
0300E010
0300E000
0600E001
0600E003
0C00E003
1C00E003
1C00E006
7E07FFFE
FF0FFFFE
ENDCHAR
STARTCHAR Ccedilla
ENCODING 199
SWIDTH 670 0
DWIDTH 24 0
BBX 21 32 2 -8
BITMAP
00FE30
07EFF0
0E01F0
1C0070
380070
780030
700030
F00030
F00010
F00000
F00000
F00000
F00000
F00000
F00000
F00000
F00000
780000
780000
3C0018
1E0070
0FC1E0
07FF80
01FE00
002000
004000
007800
001C00
000C00
000C00
008C00
00F800
ENDCHAR
STARTCHAR Egrave
ENCODING 200
SWIDTH 626 0
DWIDTH 23 0
BBX 21 31 1 0
BITMAP
01E000
00E000
007000
003800
000C00
000000
000000
FFFFE0
1FFFE0
0E0060
0E0020
0E0020
0E0020
0E0000
0E0180
0E0180
0E0180
0E0380
0FFF80
0E0780
0E0180
0E0180
0E0180
0E0000
0E0018
0E0010
0E0010
0E0030
0E0070
1FFFF0
FFFFF0
ENDCHAR
STARTCHAR Eacute
ENCODING 201
SWIDTH 626 0
DWIDTH 23 0
BBX 21 31 1 0
BITMAP
003C00
003C00
007000
00E000
018000
000000
000000
FFFFE0
1FFFE0
0E0060
0E0020
0E0020
0E0020
0E0000
0E0180
0E0180
0E0180
0E0380
0FFF80
0E0780
0E0180
0E0180
0E0180
0E0000
0E0018
0E0010
0E0010
0E0030
0E0070
1FFFF0
FFFFF0
ENDCHAR
STARTCHAR Ecircumflex
ENCODING 202
SWIDTH 626 0
DWIDTH 23 0
BBX 21 31 1 0
BITMAP
007000
00F800
01DC00
038E00
060300
000000
000000
FFFFE0
1FFFE0
0E0060
0E0020
0E0020
0E0020
0E0000
0E0180
0E0180
0E0180
0E0380
0FFF80
0E0780
0E0180
0E0180
0E0180
0E0000
0E0018
0E0010
0E0010
0E0030
0E0070
1FFFF0
FFFFF0
ENDCHAR
STARTCHAR Edieresis
ENCODING 203
SWIDTH 626 0
DWIDTH 23 0
BBX 21 30 1 0
BITMAP
070700
078780
0F8F00
070700
000000
000000
FFFFE0
1FFFE0
0E0060
0E0020
0E0020
0E0020
0E0000
0E0180
0E0180
0E0180
0E0380
0FFF80
0E0780
0E0180
0E0180
0E0180
0E0000
0E0018
0E0010
0E0010
0E0030
0E0070
1FFFF0
FFFFF0
ENDCHAR
STARTCHAR Igrave
ENCODING 204
SWIDTH 357 0
DWIDTH 13 0
BBX 11 31 1 0
BITMAP
3C00
3C00
0E00
0700
0180
0000
0000
FFE0
7FC0
1E00
0E00
0E00
0E00
0E00
0E00
0E00
0E00
0E00
0E00
0E00
0E00
0E00
0E00
0E00
0E00
0E00
0E00
0E00
1E00
7FC0
FFE0
ENDCHAR
STARTCHAR Iacute
ENCODING 205
SWIDTH 357 0
DWIDTH 13 0
BBX 11 31 1 0
BITMAP
0780
0700
0E00
1C00
3000
0000
0000
FFE0
7FC0
1E00
0E00
0E00
0E00
0E00
0E00
0E00
0E00
0E00
0E00
0E00
0E00
0E00
0E00
0E00
0E00
0E00
0E00
0E00
1E00
7FC0
FFE0
ENDCHAR
STARTCHAR Icircumflex
ENCODING 206
SWIDTH 357 0
DWIDTH 13 0
BBX 11 31 1 0
BITMAP
0E00
1F00
3B80
71C0
C060
0000
0000
FFE0
7FC0
1E00
0E00
0E00
0E00
0E00
0E00
0E00
0E00
0E00
0E00
0E00
0E00
0E00
0E00
0E00
0E00
0E00
0E00
0E00
1E00
7FC0
FFE0
ENDCHAR
STARTCHAR Idieresis
ENCODING 207
SWIDTH 357 0
DWIDTH 13 0
BBX 12 30 0 0
BITMAP
7070
F0F0
F8F0
7070
0000
0000
7FF0
3FE0
0F00
0700
0700
0700
0700
0700
0700
0700
0700
0700
0700
0700
0700
0700
0700
0700
0700
0700
0700
0F00
3FE0
7FF0
ENDCHAR
STARTCHAR Eth
ENCODING 208
SWIDTH 737 0
DWIDTH 27 0
BBX 24 24 1 0
BITMAP
FFFE00
1FFFC0
0E01F0
0E00F8
0E007C
0E003C
0E001E
0E001E
0E001E
0E000F
0E000F
FFF80F
0E000F
0E000F
0E000F
0E001E
0E001E
0E001E
0E001C
0E003C
0E0078
0E01F0
1E1FC0
FFFE00
ENDCHAR
STARTCHAR Ntilde
ENCODING 209
SWIDTH 742 0
DWIDTH 27 0
BBX 25 31 1 0
BITMAP
00782000
00FC4000
019FC000
01078000
00000000
00000000
00000000
FE00FF80
7E007F00
1F001C00
1F801C00
1FC00C00
1BC00800
19E00800
19F00800
18F80800
18780800
183C0800
183E0800
181F0800
180F0800
18078800
1803C800
1803E800
1801F800
1800F800
18007800
18003800
1C003800
7F001800
FF000800
ENDCHAR
STARTCHAR Ograve
ENCODING 210
SWIDTH 738 0
DWIDTH 27 0
BBX 23 31 2 0
BITMAP
01E000
00F000
003800
001C00
000E00
000000
000000
00FE00
07CFC0
0E01E0
1C00F0
380078
780038
70003C
F0003C
F0001C
F0001E
F0001E
F0001E
F0001E
F0001E
F0001E
F0001C
F0003C
70003C
780038
380078
1C0070
0E01E0
07CF80
00FE00
ENDCHAR
STARTCHAR Oacute
ENCODING 211
SWIDTH 738 0
DWIDTH 27 0
BBX 23 31 2 0
BITMAP
001E00
003C00
003800
007000
00C000
000000
000000
00FE00
07CFC0
0E01E0
1C00F0
380078
780038
70003C
F0003C
F0001C
F0001E
F0001E
F0001E
F0001E
F0001E
F0001E
F0001C
F0003C
70003C
780038
380078
1C0070
0E01E0
07CF80
00FE00
ENDCHAR
STARTCHAR Ocircumflex
ENCODING 212
SWIDTH 738 0
DWIDTH 27 0
BBX 23 31 2 0
BITMAP
003800
007C00
00EE00
018600
030380
000000
000000
00FE00
07CFC0
0E01E0
1C00F0
380078
780038
70003C
F0003C
F0001C
F0001E
F0001E
F0001E
F0001E
F0001E
F0001E
F0001C
F0003C
70003C
780038
380078
1C0070
0E01E0
07CF80
00FE00
ENDCHAR
STARTCHAR Otilde
ENCODING 213
SWIDTH 738 0
DWIDTH 27 0
BBX 23 31 2 0
BITMAP
00E080
01F980
023F00
020E00
000000
000000
000000
00FE00
07CFC0
0E01E0
1C00F0
380078
780038
70003C
F0003C
F0001C
F0001E
F0001E
F0001E
F0001E
F0001E
F0001E
F0001C
F0003C
70003C
780038
380078
1C0070
0E01E0
07CF80
00FE00
ENDCHAR
STARTCHAR Odieresis
ENCODING 214
SWIDTH 738 0
DWIDTH 27 0
BBX 23 30 2 0
BITMAP
038380
078780
078780
038380
000000
000000
00FE00
07CFC0
0E01E0
1C00F0
380078
780038
70003C
F0003C
F0001C
F0001E
F0001E
F0001E
F0001E
F0001E
F0001E
F0001C
F0003C
70003C
780038
380078
1C0070
0E01E0
07CF80
00FE00
ENDCHAR
STARTCHAR multiply
ENCODING 215
SWIDTH 720 0
DWIDTH 26 0
BBX 20 20 3 -1
BITMAP
C00060
E000F0
7001E0
3803C0
1C0780
0E0F00
071E00
03BC00
01F800
00F000
01F800
03FC00
079E00
0F0F00
1E0780
3C03C0
7801E0
7000F0
E00070
400020
ENDCHAR
STARTCHAR Oslash
ENCODING 216
SWIDTH 737 0
DWIDTH 27 0
BBX 23 24 2 0
BITMAP
00FE18
07CFB0
0E01E0
1C00F0
3800F8
7801B8
70033C
F0063C
F0041C
F00C1E
F0181E
F0301E
F0601E
F0401E
F0C01C
F1801C
F3003C
72003C
7E0038
3C0078
3C0070
3E01E0
67CF80
61FE00
ENDCHAR
STARTCHAR Ugrave
ENCODING 217
SWIDTH 752 0
DWIDTH 27 0
BBX 25 31 1 0
BITMAP
00780000
003C0000
000E0000
00070000
00038000
00000000
00000000
FFC07F80
7F807F80
1E000C00
1E000C00
1E000C00
1E000C00
1E000C00
1E000C00
1E000C00
1E000C00
1E000C00
1E000C00
1E000C00
1E000C00
1E000C00
1E000C00
1E000C00
1E000C00
0E001C00
0F001800
0F003800
07E0F000
03FFE000
00FF0000
ENDCHAR
STARTCHAR Uacute
ENCODING 218
SWIDTH 752 0
DWIDTH 27 0
BBX 25 31 1 0
BITMAP
00078000
00070000
000E0000
001C0000
00300000
00000000
00000000
FFC07F80
7F807F80
1E000C00
1E000C00
1E000C00
1E000C00
1E000C00
1E000C00
1E000C00
1E000C00
1E000C00
1E000C00
1E000C00
1E000C00
1E000C00
1E000C00
1E000C00
1E000C00
0E001C00
0F001800
0F003800
07E0F000
03FFE000
00FF0000
ENDCHAR
STARTCHAR Ucircumflex
ENCODING 219
SWIDTH 752 0
DWIDTH 27 0
BBX 25 31 1 0
BITMAP
000E0000
001F0000
003B8000
00718000
00C06000
00000000
00000000
FFC07F80
7F807F80
1E000C00
1E000C00
1E000C00
1E000C00
1E000C00
1E000C00
1E000C00
1E000C00
1E000C00
1E000C00
1E000C00
1E000C00
1E000C00
1E000C00
1E000C00
1E000C00
0E001C00
0F001800
0F003800
07E0F000
03FFE000
00FF0000
ENDCHAR
STARTCHAR Udieresis
ENCODING 220
SWIDTH 752 0
DWIDTH 27 0
BBX 25 30 1 0
BITMAP
00E0E000
01E1E000
01E1E000
00E0E000
00000000
00000000
FFC07F80
7F807F80
1E000C00
1E000C00
1E000C00
1E000C00
1E000C00
1E000C00
1E000C00
1E000C00
1E000C00
1E000C00
1E000C00
1E000C00
1E000C00
1E000C00
1E000C00
1E000C00
0E001C00
0F001800
0F003800
07E0F000
03FFE000
00FF0000
ENDCHAR
STARTCHAR Yacute
ENCODING 221
SWIDTH 647 0
DWIDTH 23 0
BBX 23 31 0 0
BITMAP
000F00
001E00
001C00
003800
006000
000000
000000
FFC0FE
7F80FE
3E0030
1E0030
0F0060
0780C0
0780C0
03C180
01E180
01E300
00F600
007600
007C00
003C00
003800
003800
003800
003800
003800
003800
003800
003C00
01FF00
03FF80
ENDCHAR
STARTCHAR Thorn
ENCODING 222
SWIDTH 572 0
DWIDTH 21 0
BBX 19 24 1 0
BITMAP
FFE000
7FC000
1E0000
0E0000
0FFC00
0E3F00
0E0780
0E03C0
0E01C0
0E01C0
0E01E0
0E01C0
0E01C0
0E01C0
0E03C0
0E0780
0E0F00
0FFC00
0E0000
0E0000
0E0000
1E0000
7FC000
FFE000
ENDCHAR
STARTCHAR germandbls
ENCODING 223
SWIDTH 563 0
DWIDTH 20 0
BBX 18 27 1 0
BITMAP
01F800
071C00
0C0E00
1C0700
1C0700
1C0700
1C0700
1C0700
1C0E00
FC1C00
1C7000
1C7000
1C3C00
1C0E00
1C0700
1C0380
1C03C0
1C03C0
1C01C0
1C01C0
1C01C0
1C01C0
1CC1C0
1DE380
1DE380
3CF700
FC7C00
ENDCHAR
STARTCHAR agrave
ENCODING 224
SWIDTH 480 0
DWIDTH 17 0
BBX 16 25 1 0
BITMAP
1E00
0E00
0700
0300
0380
0180
0000
0FC0
1DF0
3070
7038
7038
3038
0038
0078
03F8
0E38
3838
7038
7038
F038
F038
7079
7DBE
3E1C
ENDCHAR
STARTCHAR aacute
ENCODING 225
SWIDTH 480 0
DWIDTH 17 0
BBX 16 25 1 0
BITMAP
00E0
01E0
01C0
0180
0300
0600
0000
0FC0
1DF0
3070
7038
7038
3038
0038
0078
03F8
0E38
3838
7038
7038
F038
F038
7079
7DBE
3E1C
ENDCHAR
STARTCHAR acircumflex
ENCODING 226
SWIDTH 480 0
DWIDTH 17 0
BBX 16 25 1 0
BITMAP
0380
0780
07C0
0CE0
1860
3030
0000
0FC0
1DF0
3070
7038
7038
3038
0038
0078
03F8
0E38
3838
7038
7038
F038
F038
7079
7DBE
3E1C
ENDCHAR
STARTCHAR atilde
ENCODING 227
SWIDTH 480 0
DWIDTH 17 0
BBX 16 24 1 0
BITMAP
0E08
1F98
33F0
20E0
0000
0000
0FC0
1DF0
3070
7038
7038
3038
0038
0078
03F8
0E38
3838
7038
7038
F038
F038
7079
7DBE
3E1C
ENDCHAR
STARTCHAR adieresis
ENCODING 228
SWIDTH 480 0
DWIDTH 17 0
BBX 16 25 1 0
BITMAP
3838
7878
7878
3838
0000
0000
0000
0FC0
1DF0
3070
7038
7038
3038
0038
0078
03F8
0E38
3838
7038
7038
F038
F038
7079
7DBE
3E1C
ENDCHAR
STARTCHAR aring
ENCODING 229
SWIDTH 480 0
DWIDTH 17 0
BBX 16 27 1 0
BITMAP
0780
0CC0
0860
0860
0860
0C60
07C0
0000
0000
0FC0
1DF0
3070
7038
7038
3038
0038
0078
03F8
0E38
3838
7038
7038
F038
F038
7079
7DBE
3E1C
ENDCHAR
STARTCHAR ae
ENCODING 230
SWIDTH 709 0
DWIDTH 26 0
BBX 23 18 1 0
BITMAP
0FC3E0
3DE778
707C3C
70781C
70780E
70780E
00700E
007FFE
03F000
1E7000
383800
703800
703802
F03C02
F07E06
78DFFC
7F8FF8
3E03F0
ENDCHAR
STARTCHAR ccedilla
ENCODING 231
SWIDTH 446 0
DWIDTH 16 0
BBX 14 26 1 -8
BITMAP
07E0
1EF8
3838
303C
601C
6000
E000
E000
E000
E000
E000
F000
7004
7804
7C18
3FF8
1FF0
0FC0
0100
0300
03C0
00E0
0060
0060
06E0
03C0
ENDCHAR
STARTCHAR egrave
ENCODING 232
SWIDTH 464 0
DWIDTH 17 0
BBX 15 25 1 0
BITMAP
0E00
0F00
0700
0300
0180
00C0
0000
07C0
1EF0
3838
7038
701C
601C
E01C
FFFC
E002
E000
E000
F000
7004
7806
3C0C
3FF8
1FF0
07E0
ENDCHAR
STARTCHAR eacute
ENCODING 233
SWIDTH 464 0
DWIDTH 17 0
BBX 15 25 1 0
BITMAP
00F0
00E0
01C0
01C0
0380
0300
0000
07C0
1EF0
3838
7038
701C
601C
E01C
FFFC
E002
E000
E000
F000
7004
7806
3C0C
3FF8
1FF0
07E0
ENDCHAR
STARTCHAR ecircumflex
ENCODING 234
SWIDTH 464 0
DWIDTH 17 0
BBX 15 25 1 0
BITMAP
0180
03C0
07C0
0E60
0C30
1818
0000
07C0
1EF0
3838
7038
701C
601C
E01C
FFFC
E002
E000
E000
F000
7004
7806
3C0C
3FF8
1FF0
07E0
ENDCHAR
STARTCHAR edieresis
ENCODING 235
SWIDTH 464 0
DWIDTH 17 0
BBX 15 25 1 0
BITMAP
3838
3C3C
3C3C
3838
0000
0000
0000
07C0
1EF0
3838
7038
701C
601C
E01C
FFFC
E002
E000
E000
F000
7004
7806
3C0C
3FF8
1FF0
07E0
ENDCHAR
STARTCHAR igrave
ENCODING 236
SWIDTH 285 0
DWIDTH 10 0
BBX 8 25 1 0
BITMAP
E0
E0
70
30
18
08
00
3C
FC
3C
1C
1C
1C
1C
1C
1C
1C
1C
1C
1C
1C
1C
1C
7F
FF
ENDCHAR
STARTCHAR iacute
ENCODING 237
SWIDTH 285 0
DWIDTH 10 0
BBX 8 25 1 0
BITMAP
0E
0E
1C
18
30
20
00
3C
FC
3C
1C
1C
1C
1C
1C
1C
1C
1C
1C
1C
1C
1C
1C
7F
FF
ENDCHAR
STARTCHAR icircumflex
ENCODING 238
SWIDTH 285 0
DWIDTH 10 0
BBX 9 25 0 0
BITMAP
1C00
3E00
3600
6300
C180
8080
0000
1E00
7E00
1E00
0E00
0E00
0E00
0E00
0E00
0E00
0E00
0E00
0E00
0E00
0E00
0E00
0E00
3F80
7F80
ENDCHAR
STARTCHAR idieresis
ENCODING 239
SWIDTH 285 0
DWIDTH 10 0
BBX 11 24 -1 0
BITMAP
60C0
F1E0
F1E0
60C0
0000
0000
0F00
3F00
0F00
0700
0700
0700
0700
0700
0700
0700
0700
0700
0700
0700
0700
0700
1FC0
3FC0
ENDCHAR
STARTCHAR eth
ENCODING 240
SWIDTH 532 0
DWIDTH 19 0
BBX 16 27 1 0
BITMAP
1FC0
31E3
007E
0038
00FC
039C
020E
000E
000E
07E7
1F77
381F
380F
700F
7007
F007
F007
F007
F007
F007
F007
700F
700E
780E
381C
1F78
07E0
ENDCHAR
STARTCHAR ntilde
ENCODING 241
SWIDTH 576 0
DWIDTH 21 0
BBX 19 24 1 0
BITMAP
03C100
07F200
04FE00
083C00
000000
000000
1C7C00
FCFE00
3F0F00
1E0700
1C0700
1C0700
1C0700
1C0700
1C0700
1C0700
1C0700
1C0700
1C0700
1C0700
1C0700
1C0700
7F1FC0
FF1FE0
ENDCHAR
STARTCHAR ograve
ENCODING 242
SWIDTH 514 0
DWIDTH 19 0
BBX 16 25 1 0
BITMAP
0F00
0700
0380
0180
00C0
00C0
0000
07E0
1F78
381C
380E
700F
7007
F007
F007
F007
F007
F007
F007
7007
700E
380E
3C1C
1F78
07E0
ENDCHAR
STARTCHAR oacute
ENCODING 243
SWIDTH 514 0
DWIDTH 19 0
BBX 16 25 1 0
BITMAP
0070
0070
00E0
00C0
0180
0300
0000
07E0
1F78
381C
380E
700F
7007
F007
F007
F007
F007
F007
F007
7007
700E
380E
3C1C
1F78
07E0
ENDCHAR
STARTCHAR ocircumflex
ENCODING 244
SWIDTH 514 0
DWIDTH 19 0
BBX 16 25 1 0
BITMAP
01C0
03C0
03E0
0670
0C30
1808
0000
07E0
1F78
381C
380E
700F
7007
F007
F007
F007
F007
F007
F007
7007
700E
380E
3C1C
1F78
07E0
ENDCHAR
STARTCHAR otilde
ENCODING 245
SWIDTH 514 0
DWIDTH 19 0
BBX 16 24 1 0
BITMAP
0704
0FCC
19F8
1070
0000
0000
07E0
1F78
381C
380E
700F
7007
F007
F007
F007
F007
F007
F007
7007
700E
380E
3C1C
1F78
07E0
ENDCHAR
STARTCHAR odieresis
ENCODING 246
SWIDTH 514 0
DWIDTH 19 0
BBX 16 25 1 0
BITMAP
1C1C
3C3C
3C3C
1C1C
0000
0000
0000
07E0
1F78
381C
380E
700F
7007
F007
F007
F007
F007
F007
F007
7007
700E
380E
3C1C
1F78
07E0
ENDCHAR
STARTCHAR divide
ENCODING 247
SWIDTH 720 0
DWIDTH 26 0
BBX 22 20 2 0
BITMAP
003000
007800
007800
003000
000000
000000
000000
000000
000000
FFFFFC
FFFFFC
FFFFFC
000000
000000
000000
000000
003000
007800
007800
003000
ENDCHAR
STARTCHAR oslash
ENCODING 248
SWIDTH 514 0
DWIDTH 19 0
BBX 16 18 1 0
BITMAP
07E6
1F7C
381C
381E
703E
7027
F047
F0C7
F187
F307
F207
F607
7C07
780E
780E
381C
7F78
C7E0
ENDCHAR
STARTCHAR ugrave
ENCODING 249
SWIDTH 570 0
DWIDTH 21 0
BBX 18 25 1 0
BITMAP
070000
078000
038000
01C000
00C000
006000
000000
F81F00
F83F00
380700
380700
380700
380700
380700
380700
380700
380700
380700
380700
380700
3C0700
1C0F00
1E3F00
1FE7C0
07C780
ENDCHAR
STARTCHAR uacute
ENCODING 250
SWIDTH 570 0
DWIDTH 21 0
BBX 18 25 1 0
BITMAP
007800
007800
007000
00E000
00C000
018000
000000
F81F00
F83F00
380700
380700
380700
380700
380700
380700
380700
380700
380700
380700
380700
3C0700
1C0F00
1E3F00
1FE7C0
07C780
ENDCHAR
STARTCHAR ucircumflex
ENCODING 251
SWIDTH 570 0
DWIDTH 21 0
BBX 18 25 1 0
BITMAP
00C000
01E000
03F000
033000
061800
0C0C00
000000
F81F00
F83F00
380700
380700
380700
380700
380700
380700
380700
380700
380700
380700
380700
3C0700
1C0F00
1E3F00
1FE7C0
07C780
ENDCHAR
STARTCHAR udieresis
ENCODING 252
SWIDTH 570 0
DWIDTH 21 0
BBX 18 25 1 0
BITMAP
0C1C00
1E1E00
1E1E00
0C0C00
000000
000000
000000
F81F00
F83F00
380700
380700
380700
380700
380700
380700
380700
380700
380700
380700
380700
3C0700
1C0F00
1E3F00
1FE7C0
07C780
ENDCHAR
STARTCHAR yacute
ENCODING 253
SWIDTH 483 0
DWIDTH 17 0
BBX 18 34 0 -9
BITMAP
003800
003800
007000
006000
00C000
018000
000000
FE0FC0
FE0F80
380300
3C0600
1C0600
1C0600
1E0C00
0E0C00
0F0800
071800
079800
039000
03B000
01F000
01E000
01E000
00C000
00C000
00C000
018000
018000
030000
430000
FE0000
FE0000
FC0000
200000
ENDCHAR
STARTCHAR thorn
ENCODING 254
SWIDTH 524 0
DWIDTH 19 0
BBX 18 35 0 -8
BITMAP
040000
3C0000
FC0000
1C0000
1C0000
1C0000
1C0000
1C0000
1C0000
1C7C00
1CFE00
1DFF00
1F0F80
1C0780
1C0380
1C0380
1C03C0
1C03C0
1C03C0
1C0380
1C0380
1C0380
1C0300
1C0700
1E0E00
1FBC00
1DF000
1C0000
1C0000
1C0000
1C0000
1C0000
1C0000
7F0000
FF8000
ENDCHAR
STARTCHAR ydieresis
ENCODING 255
SWIDTH 483 0
DWIDTH 17 0
BBX 18 34 0 -9
BITMAP
0E0E00
1E1E00
1E1E00
0E0E00
000000
000000
000000
FE0FC0
FE0F80
380300
3C0600
1C0600
1C0600
1E0C00
0E0C00
0F0800
071800
079800
039000
03B000
01F000
01E000
01E000
00C000
00C000
00C000
018000
018000
030000
430000
FE0000
FE0000
FC0000
200000
ENDCHAR
STARTCHAR Amacron
ENCODING 256
SWIDTH 718 0
DWIDTH 26 0
BBX 26 29 0 0
BITMAP
01FFC000
00000000
00000000
00000000
00000000
000C0000
001C0000
001E0000
003E0000
003E0000
003F0000
00670000
00678000
00C78000
00C3C000
00C3C000
0181E000
0181E000
0301E000
0300F000
07FFF000
06007800
06007800
0C003C00
0C003C00
18003E00
18003E00
7E007F80
FF00FFC0
ENDCHAR
STARTCHAR amacron
ENCODING 257
SWIDTH 480 0
DWIDTH 17 0
BBX 16 23 1 0
BITMAP
3FF8
3FF8
0000
0000
0000
0FC0
1DF0
3070
7038
7038
3038
0038
0078
03F8
0E38
3838
7038
7038
F038
F038
7079
7DBE
3E1C
ENDCHAR
STARTCHAR Abreve
ENCODING 258
SWIDTH 718 0
DWIDTH 26 0
BBX 26 32 0 0
BITMAP
01804000
01804000
0080C000
00E18000
007F8000
003E0000
00000000
00000000
000C0000
001C0000
001E0000
003E0000
003E0000
003F0000
00670000
00678000
00C78000
00C3C000
00C3C000
0181E000
0181E000
0301E000
0300F000
07FFF000
06007800
06007800
0C003C00
0C003C00
18003E00
18003E00
7E007F80
FF00FFC0
ENDCHAR
STARTCHAR abreve
ENCODING 259
SWIDTH 480 0
DWIDTH 17 0
BBX 16 26 1 0
BITMAP
2018
2010
3010
1870
1FE0
07C0
0000
0000
0FC0
1DF0
3070
7038
7038
3038
0038
0078
03F8
0E38
3838
7038
7038
F038
F038
7079
7DBE
3E1C
ENDCHAR
STARTCHAR Aogonek
ENCODING 260
SWIDTH 719 0
DWIDTH 26 0
BBX 26 32 0 -8
BITMAP
000C0000
001C0000
001E0000
001E0000
003E0000
003F0000
00670000
00678000
00C38000
00C3C000
00C3C000
0181E000
0181E000
0301E000
0300F000
07FFF000
06007800
06007800
0C007C00
0C003C00
18003E00
18001E00
7E003F80
FF007FC0
00018000
00030000
00060000
00060000
00060000
00061000
00077000
0003C000
ENDCHAR
STARTCHAR aogonek
ENCODING 261
SWIDTH 480 0
DWIDTH 17 0
BBX 16 26 1 -8
BITMAP
0FC0
1DF0
3070
7038
7038
7038
0038
0038
01F8
0F38
3838
7038
7038
F038
F038
7079
7DBF
3E1E
001C
0030
0070
0060
0060
0061
0077
003C
ENDCHAR
STARTCHAR Cacute
ENCODING 262
SWIDTH 670 0
DWIDTH 24 0
BBX 21 31 2 0
BITMAP
000F00
001E00
003800
007000
00C000
000000
000000
00FE30
07EFF0
0E01F0
1C0070
380070
780030
700030
F00030
F00010
F00000
F00000
F00000
F00000
F00000
F00000
F00000
F00000
780000
780000
3C0018
1E0070
0FC1E0
07FF80
01FE00
ENDCHAR
STARTCHAR cacute
ENCODING 263
SWIDTH 446 0
DWIDTH 16 0
BBX 14 25 1 0
BITMAP
00F0
00E0
01C0
0180
0380
0300
0000
07E0
1EF8
3838
303C
601C
6000
E000
E000
E000
E000
E000
F000
7004
7804
7C18
3FF8
1FF0
07C0
ENDCHAR
STARTCHAR Ccircumflex
ENCODING 264
SWIDTH 670 0
DWIDTH 24 0
BBX 21 31 2 0
BITMAP
003800
007C00
00EE00
01C700
030180
000000
000000
00FE30
07EFF0
0E01F0
1C0070
380070
780030
700030
F00030
F00010
F00000
F00000
F00000
F00000
F00000
F00000
F00000
F00000
780000
780000
3C0018
1E0070
0FC1E0
07FF80
01FE00
ENDCHAR
STARTCHAR ccircumflex
ENCODING 265
SWIDTH 446 0
DWIDTH 16 0
BBX 14 25 1 0
BITMAP
0380
03C0
07C0
0E60
0C30
1818
0000
07E0
1EF8
3838
303C
601C
6000
E000
E000
E000
E000
E000
F000
7004
7804
7C18
3FF8
1FF0
07C0
ENDCHAR
STARTCHAR Cdotaccent
ENCODING 266
SWIDTH 670 0
DWIDTH 24 0
BBX 21 30 2 0
BITMAP
003800
003C00
003C00
003800
000000
000000
00FE30
07EFF0
0E01F0
1C0070
380070
780030
700030
F00030
F00010
F00000
F00000
F00000
F00000
F00000
F00000
F00000
F00000
780000
780000
3C0018
1E0070
0FC1E0
07FF80
01FE00
ENDCHAR
STARTCHAR cdotaccent
ENCODING 267
SWIDTH 446 0
DWIDTH 16 0
BBX 14 25 1 0
BITMAP
0380
03C0
03C0
0380
0000
0000
0000
07E0
1EF8
3838
303C
601C
6000
E000
E000
E000
E000
E000
F000
7004
7804
7C18
3FF8
1FF0
07C0
ENDCHAR
STARTCHAR Ccaron
ENCODING 268
SWIDTH 670 0
DWIDTH 24 0
BBX 21 31 2 0
BITMAP
030180
01C700
00EE00
007C00
003800
000000
000000
00FE30
07EFF0
0E01F0
1C0070
380070
780030
700030
F00030
F00010
F00000
F00000
F00000
F00000
F00000
F00000
F00000
F00000
780000
780000
3C0018
1E0070
0FC1E0
07FF80
01FE00
ENDCHAR
STARTCHAR ccaron
ENCODING 269
SWIDTH 446 0
DWIDTH 16 0
BBX 14 25 1 0
BITMAP
1018
1830
0C60
06E0
07C0
0380
0000
07E0
1EF8
3838
303C
601C
6000
E000
E000
E000
E000
E000
F000
7004
7804
7C18
3FF8
1FF0
07C0
ENDCHAR
STARTCHAR Dcaron
ENCODING 270
SWIDTH 730 0
DWIDTH 26 0
BBX 23 31 1 0
BITMAP
030180
01C600
00EE00
007C00
003800
000000
000000
FFFE00
1FFFC0
0E03F0
0E00F8
0E0078
0E003C
0E001E
0E001E
0E001E
0E001E
0E000E
0E000E
0E000E
0E000E
0E000E
0E001E
0E001E
0E001C
0E003C
0E0038
0E0078
0E01E0
1E1FC0
FFFE00
ENDCHAR
STARTCHAR dcaron
ENCODING 271
SWIDTH 626 0
DWIDTH 23 0
BBX 21 27 1 0
BITMAP
000200
001E38
007E38
000E38
000E30
000E30
000E20
000E60
000E00
03EE00
0F7E00
181E00
300E00
700E00
700E00
600E00
E00E00
E00E00
E00E00
E00E00
F00E00
F00E00
780E00
7C1E00
3FFE00
3FCFC0
0F8E00
ENDCHAR
STARTCHAR Dcroat
ENCODING 272
SWIDTH 733 0
DWIDTH 26 0
BBX 24 24 1 0
BITMAP
FFFE00
1FFFC0
0E03E0
0E00F8
0E0078
0E003C
0E003E
0E001E
0E001E
0E001E
0E001E
FFF80E
0E000F
0E001E
0E001E
0E001E
0E001E
0E001E
0E003C
0E0038
0E0078
0E01E0
1E1FC0
FFFE00
ENDCHAR
STARTCHAR dcroat
ENCODING 273
SWIDTH 540 0
DWIDTH 19 0
BBX 18 27 1 0
BITMAP
000200
001E00
007E00
000E00
000E00
01FF80
000E00
000E00
000E00
03EE00
0F7E00
181E00
300E00
700E00
700E00
600E00
E00E00
E00E00
E00E00
E00E00
F00E00
F00E00
780E00
7C1E00
3FFE00
3FCFC0
0F8E00
ENDCHAR
STARTCHAR Emacron
ENCODING 274
SWIDTH 626 0
DWIDTH 23 0
BBX 21 29 1 0
BITMAP
07FF00
000000
000000
000000
000000
FFFFE0
1FFFE0
0E0060
0E0020
0E0020
0E0020
0E0000
0E0180
0E0180
0E0180
0E0380
0FFF80
0E0780
0E0180
0E0180
0E0180
0E0000
0E0018
0E0010
0E0010
0E0030
0E0070
1FFFF0
FFFFF0
ENDCHAR
STARTCHAR emacron
ENCODING 275
SWIDTH 464 0
DWIDTH 17 0
BBX 15 23 1 0
BITMAP
3FF8
3FF8
0000
0000
0000
07C0
1EF0
3838
7038
701C
601C
E01C
FFFC
E002
E000
E000
F000
7004
7806
3C0C
3FF8
1FF0
07E0
ENDCHAR
STARTCHAR Ebreve
ENCODING 276
SWIDTH 626 0
DWIDTH 23 0
BBX 21 32 1 0
BITMAP
040100
060300
060200
038600
01FC00
00F800
000000
000000
FFFFE0
1FFFE0
0E0060
0E0020
0E0020
0E0020
0E0000
0E0180
0E0180
0E0180
0E0380
0FFF80
0E0780
0E0180
0E0180
0E0180
0E0000
0E0018
0E0010
0E0010
0E0030
0E0070
1FFFF0
FFFFF0
ENDCHAR
STARTCHAR ebreve
ENCODING 277
SWIDTH 464 0
DWIDTH 17 0
BBX 15 26 1 0
BITMAP
3008
3008
1018
1C30
0FF0
07C0
0000
0000
07C0
1EF0
3838
7038
701C
601C
E01C
FFFC
E002
E000
E000
F000
7004
7806
3C0C
3FF8
1FF0
07E0
ENDCHAR
STARTCHAR Edotaccent
ENCODING 278
SWIDTH 626 0
DWIDTH 23 0
BBX 21 30 1 0
BITMAP
007000
007800
00F000
007000
000000
000000
FFFFE0
1FFFE0
0E0060
0E0020
0E0020
0E0020
0E0000
0E0180
0E0180
0E0180
0E0380
0FFF80
0E0780
0E0180
0E0180
0E0180
0E0000
0E0018
0E0010
0E0010
0E0030
0E0070
1FFFF0
FFFFF0
ENDCHAR
STARTCHAR edotaccent
ENCODING 279
SWIDTH 464 0
DWIDTH 17 0
BBX 15 25 1 0
BITMAP
0380
03C0
03C0
0380
0000
0000
0000
07C0
1EF0
3838
7038
701C
601C
E01C
FFFC
E002
E000
E000
F000
7004
7806
3C0C
3FF8
1FF0
07E0
ENDCHAR
STARTCHAR Eogonek
ENCODING 280
SWIDTH 625 0
DWIDTH 23 0
BBX 20 32 1 -8
BITMAP
FFFFE0
1E07E0
0E0060
0E0020
0E0020
0E0020
0E0000
0E0100
0E0100
0E0100
0E0300
0FFF00
0E0700
0E0100
0E0100
0E0100
0E0000
0E0010
0E0010
0E0030
0E0030
0E0070
1E07F0
FFFFF0
000080
000300
000200
000600
000600
000610
000770
0003C0
ENDCHAR
STARTCHAR eogonek
ENCODING 281
SWIDTH 464 0
DWIDTH 17 0
BBX 15 26 1 -8
BITMAP
07C0
1EF0
3838
7038
701C
601C
E01C
FFFC
E002
E000
E000
F000
7000
7806
3C0C
3FF8
1FF8
07E0
00C0
0180
0300
0700
0700
0708
03B0
01E0
ENDCHAR
STARTCHAR Ecaron
ENCODING 282
SWIDTH 626 0
DWIDTH 23 0
BBX 21 31 1 0
BITMAP
060300
038E00
01DC00
00F800
007000
000000
000000
FFFFE0
1FFFE0
0E0060
0E0020
0E0020
0E0020
0E0000
0E0180
0E0180
0E0180
0E0380
0FFF80
0E0780
0E0180
0E0180
0E0180
0E0000
0E0018
0E0010
0E0010
0E0030
0E0070
1FFFF0
FFFFF0
ENDCHAR
STARTCHAR ecaron
ENCODING 283
SWIDTH 464 0
DWIDTH 17 0
BBX 15 25 1 0
BITMAP
1018
1830
0C60
06E0
07C0
0380
0000
07C0
1EF0
3838
7038
701C
601C
E01C
FFFC
E002
E000
E000
F000
7004
7806
3C0C
3FF8
1FF0
07E0
ENDCHAR
STARTCHAR Gcircumflex
ENCODING 284
SWIDTH 720 0
DWIDTH 26 0
BBX 23 31 2 0
BITMAP
003800
007C00
00EE00
01C700
030180
000000
000000
00FE10
07EFF0
0E01F0
1C0070
380070
780030
700030
F00030
F00010
F00000
F00000
F00000
F003FE
F001F8
F00070
F00070
F00070
700070
780070
380070
3C0070
1F00F0
07E7E0
01FF00
ENDCHAR
STARTCHAR gcircumflex
ENCODING 285
SWIDTH 484 0
DWIDTH 17 0
BBX 16 34 1 -9
BITMAP
0180
03C0
07C0
0E60
0C30
1818
0000
07FF
1EF8
3838
703C
703C
701C
701C
701C
7038
3838
1C70
1FE0
3000
7000
7000
7FF8
7FFE
3FFE
200F
6003
E003
E002
E006
F00C
FFF8
7FE0
0400
ENDCHAR
STARTCHAR Gbreve
ENCODING 286
SWIDTH 720 0
DWIDTH 26 0
BBX 23 32 2 0
BITMAP
020080
030180
030100
01C300
00FE00
007C00
000000
000000
00FE10
07EFF0
0E01F0
1C0070
380070
780030
700030
F00030
F00010
F00000
F00000
F00000
F003FE
F001F8
F00070
F00070
F00070
700070
780070
380070
3C0070
1F00F0
07E7E0
01FF00
ENDCHAR
STARTCHAR gbreve
ENCODING 287
SWIDTH 484 0
DWIDTH 17 0
BBX 16 35 1 -9
BITMAP
3008
3008
1018
1C30
0FF0
07C0
0000
0000
07FF
1EF8
3838
703C
703C
701C
701C
701C
7038
3838
1C70
1FE0
3000
7000
7000
7FF8
7FFE
3FFE
200F
6003
E003
E002
E006
F00C
FFF8
7FE0
0400
ENDCHAR
STARTCHAR Gdotaccent
ENCODING 288
SWIDTH 720 0
DWIDTH 26 0
BBX 23 30 2 0
BITMAP
003800
003C00
003C00
003800
000000
000000
00FE10
07EFF0
0E01F0
1C0070
380070
780030
700030
F00030
F00010
F00000
F00000
F00000
F003FE
F001F8
F00070
F00070
F00070
700070
780070
380070
3C0070
1F00F0
07E7E0
01FF00
ENDCHAR
STARTCHAR gdotaccent
ENCODING 289
SWIDTH 484 0
DWIDTH 17 0
BBX 16 34 1 -9
BITMAP
0380
03C0
03C0
0380
0000
0000
0000
07FF
1EF8
3838
703C
703C
701C
701C
701C
7038
3838
1C70
1FE0
3000
7000
7000
7FF8
7FFE
3FFE
200F
6003
E003
E002
E006
F00C
FFF8
7FE0
0400
ENDCHAR
STARTCHAR Gcommaaccent
ENCODING 290
SWIDTH 720 0
DWIDTH 26 0
BBX 23 34 2 -10
BITMAP
00FE10
07EFF0
0E01F0
1C0070
380070
780030
700030
F00030
F00010
F00000
F00000
F00000
F003FE
F001F8
F00070
F00070
F00070
700070
780070
380070
3C0070
1F00F0
07E7E0
01FF00
000000
000000
007000
007800
007800
007800
000800
001800
003000
006000
ENDCHAR
STARTCHAR gcommaaccent
ENCODING 291
SWIDTH 484 0
DWIDTH 17 0
BBX 16 36 1 -9
BITMAP
00C0
0300
0200
0600
0780
07C0
07C0
0380
0000
07FF
1EF8
3838
703C
703C
701C
701C
701C
7038
3838
1C70
1FE0
3000
7000
7000
7FF8
7FFE
3FFE
200F
6003
E003
E002
E006
F00C
FFF8
7FE0
0400
ENDCHAR
STARTCHAR Hcircumflex
ENCODING 292
SWIDTH 777 0
DWIDTH 28 0
BBX 26 31 1 0
BITMAP
001E0000
001F0000
00330000
00618000
00C0C000
00000000
00000000
FFE1FFC0
7FC0FF80
1E001C00
0E001C00
0E001C00
0E001C00
0E001C00
0E001C00
0E001C00
0E001C00
0E001C00
0FFFFC00
0E001C00
0E001C00
0E001C00
0E001C00
0E001C00
0E001C00
0E001C00
0E001C00
0E001C00
0E001C00
7FC0FF80
FFE1FFC0
ENDCHAR
STARTCHAR hcircumflex
ENCODING 293
SWIDTH 577 0
DWIDTH 21 0
BBX 19 32 1 0
BITMAP
01C000
03E000
077000
061800
1C0C00
000000
1C0000
FC0000
3C0000
1C0000
1C0000
1C0000
1C0000
1C0000
1C7C00
1DFE00
1F0F00
1E0700
1C0700
1C0700
1C0700
1C0700
1C0700
1C0700
1C0700
1C0700
1C0700
1C0700
1C0700
3C0780
7E1FC0
FF1FE0
ENDCHAR
STARTCHAR Hbar
ENCODING 294
SWIDTH 788 0
DWIDTH 28 0
BBX 26 24 1 0
BITMAP
FFE0FFC0
7FC0FF80
0F001E00
0E001C00
0E001C00
0E001C00
FFFFFFC0
0E001C00
0E001C00
0E001C00
0E001C00
0FFFFC00
0E001C00
0E001C00
0E001C00
0E001C00
0E001C00
0E001C00
0E001C00
0E001C00
0E001C00
0F001E00
7FC0FF80
FFE0FFC0
ENDCHAR
STARTCHAR hbar
ENCODING 295
SWIDTH 579 0
DWIDTH 21 0
BBX 19 26 1 0
BITMAP
1C0000
FC0000
3C0000
1C0000
1C0000
FFE000
1C0000
1C0000
1C7C00
1DFE00
1F8F00
1E0700
1C0700
1C0700
1C0700
1C0700
1C0700
1C0700
1C0700
1C0700
1C0700
1C0700
1C0700
1C0780
7F1FC0
FF1FE0
ENDCHAR
STARTCHAR Itilde
ENCODING 296
SWIDTH 357 0
DWIDTH 13 0
BBX 11 31 1 0
BITMAP
3820
7E20
CFE0
83C0
0000
0000
0000
FFE0
7FC0
1E00
0E00
0E00
0E00
0E00
0E00
0E00
0E00
0E00
0E00
0E00
0E00
0E00
0E00
0E00
0E00
0E00
0E00
0E00
1E00
7FC0
FFE0
ENDCHAR
STARTCHAR itilde
ENCODING 297
SWIDTH 285 0
DWIDTH 10 0
BBX 11 24 -1 0
BITMAP
3820
7E60
4FC0
4380
8000
0000
0F00
3F00
0F00
0700
0700
0700
0700
0700
0700
0700
0700
0700
0700
0700
0700
0700
1FC0
3FC0
ENDCHAR
STARTCHAR Imacron
ENCODING 298
SWIDTH 357 0
DWIDTH 13 0
BBX 11 29 1 0
BITMAP
FFE0
0000
0000
0000
0000
FFE0
7FC0
1E00
0E00
0E00
0E00
0E00
0E00
0E00
0E00
0E00
0E00
0E00
0E00
0E00
0E00
0E00
0E00
0E00
0E00
0E00
1E00
7FC0
FFE0
ENDCHAR
STARTCHAR imacron
ENCODING 299
SWIDTH 285 0
DWIDTH 10 0
BBX 9 23 0 0
BITMAP
FF80
FF80
0000
0000
0000
1E00
7E00
1E00
0E00
0E00
0E00
0E00
0E00
0E00
0E00
0E00
0E00
0E00
0E00
0E00
0E00
3F80
7F80
ENDCHAR
STARTCHAR Ibreve
ENCODING 300
SWIDTH 357 0
DWIDTH 13 0
BBX 11 32 1 0
BITMAP
8020
8060
C040
60C0
7F80
1F00
0000
0000
FFE0
7FC0
1E00
0E00
0E00
0E00
0E00
0E00
0E00
0E00
0E00
0E00
0E00
0E00
0E00
0E00
0E00
0E00
0E00
0E00
0E00
1E00
7FC0
FFE0
ENDCHAR
STARTCHAR ibreve
ENCODING 301
SWIDTH 285 0
DWIDTH 10 0
BBX 9 26 0 0
BITMAP
8080
8080
C180
E300
7F00
3E00
0000
0000
1E00
7E00
1E00
0E00
0E00
0E00
0E00
0E00
0E00
0E00
0E00
0E00
0E00
0E00
0E00
0E00
3F80
7F80
ENDCHAR
STARTCHAR Iogonek
ENCODING 302
SWIDTH 357 0
DWIDTH 13 0
BBX 11 32 1 -8
BITMAP
FFE0
7FC0
1E00
0E00
0E00
0E00
0E00
0E00
0E00
0E00
0E00
0E00
0E00
0E00
0E00
0E00
0E00
0E00
0E00
0E00
0E00
1E00
7FC0
FFE0
0600
0C00
1800
3800
3800
3840
3D80
1F00
ENDCHAR
STARTCHAR iogonek
ENCODING 303
SWIDTH 285 0
DWIDTH 10 0
BBX 8 34 1 -8
BITMAP
1C
3C
3C
1C
00
00
00
00
3C
FC
3C
1C
1C
1C
1C
1C
1C
1C
1C
1C
1C
1C
1C
1C
7F
FF
18
30
60
60
60
61
77
3C
ENDCHAR
STARTCHAR Idotaccent
ENCODING 304
SWIDTH 357 0
DWIDTH 13 0
BBX 11 30 1 0
BITMAP
0E00
1E00
1E00
0E00
0000
0000
FFE0
7FC0
1E00
0E00
0E00
0E00
0E00
0E00
0E00
0E00
0E00
0E00
0E00
0E00
0E00
0E00
0E00
0E00
0E00
0E00
0E00
1E00
7FC0
FFE0
ENDCHAR
STARTCHAR dotlessi
ENCODING 305
SWIDTH 285 0
DWIDTH 10 0
BBX 8 18 1 0
BITMAP
3C
FC
3C
1C
1C
1C
1C
1C
1C
1C
1C
1C
1C
1C
1C
1C
7F
FF
ENDCHAR
STARTCHAR IJ
ENCODING 306
SWIDTH 753 0
DWIDTH 27 0
BBX 25 24 1 0
BITMAP
FFE1FF80
7FC0FF80
1E003C00
0E001C00
0E001C00
0E001C00
0E001C00
0E001C00
0E001C00
0E001C00
0E001C00
0E001C00
0E001C00
0E001C00
0E001C00
0E001C00
0E001C00
0E001C00
0E001C00
0E041C00
0E0E1C00
1E0F3800
7FCFF800
FFE7E000
ENDCHAR
STARTCHAR ij
ENCODING 307
SWIDTH 548 0
DWIDTH 20 0
BBX 16 33 1 -9
BITMAP
1C07
3C0F
3C0F
1C07
0000
0000
3C07
FC3F
3C07
1C07
1C07
1C07
1C07
1C07
1C07
1C07
1C07
1C07
1C07
1C07
1C07
1C07
7F07
FF07
0007
0007
0007
0007
0106
0386
03CC
01F8
0040
ENDCHAR
STARTCHAR Jcircumflex
ENCODING 308
SWIDTH 396 0
DWIDTH 14 0
BBX 14 31 0 0
BITMAP
01C0
03E0
0770
0E38
180C
0000
0000
1FFC
0FF8
01E0
01C0
01C0
01C0
01C0
01C0
01C0
01C0
01C0
01C0
01C0
01C0
01C0
01C0
01C0
01C0
01C0
41C0
E1C0
F1C0
FB80
3E00
ENDCHAR
STARTCHAR jcircumflex
ENCODING 309
SWIDTH 263 0
DWIDTH 9 0
BBX 13 34 -3 -9
BITMAP
0380
03C0
07C0
0E60
0C30
1818
0000
03C0
0FC0
03C0
01C0
01C0
01C0
01C0
01C0
01C0
01C0
01C0
01C0
01C0
01C0
01C0
01C0
01C0
01C0
01C0
01C0
0180
0180
4380
E380
F300
FE00
1000
ENDCHAR
STARTCHAR Kcommaaccent
ENCODING 310
SWIDTH 702 0
DWIDTH 25 0
BBX 24 34 1 -10
BITMAP
FFE3FE
7FC1FC
1E00E0
0E01C0
0E0180
0E0300
0E0600
0E0C00
0E1800
0E3000
0EE000
0FC000
0FE000
0EF800
0E7C00
0E3E00
0E1F00
0E0F80
0E07C0
0E03E0
0E01F0
1E00F8
7FC1FE
FFE3FF
000000
000000
003800
007C00
007C00
003C00
000C00
000C00
001800
003000
ENDCHAR
STARTCHAR kcommaaccent
ENCODING 311
SWIDTH 542 0
DWIDTH 20 0
BBX 18 36 1 -10
BITMAP
1C0000
FC0000
3C0000
1C0000
1C0000
1C0000
1C0000
1C0000
1C7F80
1C3F00
1C1C00
1C3800
1C6000
1CC000
1D8000
1F0000
1F8000
1FC000
1DE000
1CF000
1C7800
1C3C00
1C1E00
3C0F00
FF0F80
FF3FC0
000000
000000
01C000
01E000
01E000
01E000
006000
006000
00C000
018000
ENDCHAR
STARTCHAR kgreenlandic
ENCODING 312
SWIDTH 542 0
DWIDTH 20 0
BBX 18 18 1 0
BITMAP
1C3F80
FC1F80
3C1C00
1C1800
1C3000
1C6000
1CC000
1D8000
1F8000
1FC000
1DE000
1CF000
1C7800
1C3C00
1C1E00
1C0F00
7F0FC0
FF1FC0
ENDCHAR
STARTCHAR Lacute
ENCODING 313
SWIDTH 585 0
DWIDTH 21 0
BBX 18 31 2 0
BITMAP
03C000
078000
0F0000
0C0000
380000
000000
000000
FFC000
FF8000
3C0000
1C0000
1C0000
1C0000
1C0000
1C0000
1C0000
1C0000
1C0000
1C0000
1C0000
1C0000
1C0000
1C0000
1C0000
1C0040
1C0040
1C00C0
1C00C0
1C01C0
3F0FC0
FFFF80
ENDCHAR
STARTCHAR lacute
ENCODING 314
SWIDTH 283 0
DWIDTH 10 0
BBX 8 32 1 0
BITMAP
0F
0F
1C
38
60
00
1C
FC
3C
1C
1C
1C
1C
1C
1C
1C
1C
1C
1C
1C
1C
1C
1C
1C
1C
1C
1C
1C
1C
3C
7F
FF
ENDCHAR
STARTCHAR Lcommaaccent
ENCODING 315
SWIDTH 585 0
DWIDTH 21 0
BBX 18 34 2 -10
BITMAP
FFC000
FF8000
3C0000
1C0000
1C0000
1C0000
1C0000
1C0000
1C0000
1C0000
1C0000
1C0000
1C0000
1C0000
1C0000
1C0000
1C0000
1C0040
1C0040
1C00C0
1C00C0
1C01C0
3F0FC0
FFFF80
000000
000000
01C000
03E000
03E000
01E000
006000
004000
00C000
030000
ENDCHAR
STARTCHAR lcommaaccent
ENCODING 316
SWIDTH 283 0
DWIDTH 10 0
BBX 8 36 1 -10
BITMAP
1C
FC
3C
1C
1C
1C
1C
1C
1C
1C
1C
1C
1C
1C
1C
1C
1C
1C
1C
1C
1C
1C
1C
3C
7F
FF
00
00
3C
3C
3C
3C
04
0C
18
30
ENDCHAR
STARTCHAR Lcaron
ENCODING 317
SWIDTH 585 0
DWIDTH 21 0
BBX 18 24 2 0
BITMAP
FFC700
FF8700
3C0700
1C0700
1C0600
1C0600
1C0400
1C0000
1C0000
1C0000
1C0000
1C0000
1C0000
1C0000
1C0000
1C0000
1C0000
1C0040
1C0040
1C00C0
1C00C0
1C01C0
3F0FC0
FFFF80
ENDCHAR
STARTCHAR lcaron
ENCODING 318
SWIDTH 366 0
DWIDTH 13 0
BBX 11 26 1 0
BITMAP
1CE0
FCE0
3CE0
1CE0
1CE0
1CC0
1CC0
1C00
1C00
1C00
1C00
1C00
1C00
1C00
1C00
1C00
1C00
1C00
1C00
1C00
1C00
1C00
1C00
3C00
7F00
FF00
ENDCHAR
STARTCHAR Ldot
ENCODING 319
SWIDTH 605 0
DWIDTH 22 0
BBX 18 24 2 0
BITMAP
FFC000
FF8000
3C0000
1C0000
1C0000
1C0000
1C0000
1C0000
1C0380
1C0780
1C0780
1C0380
1C0000
1C0000
1C0000
1C0000
1C0000
1C0040
1C0040
1C00C0
1C00C0
1C01C0
3F0FC0
FFFF80
ENDCHAR
STARTCHAR ldot
ENCODING 320
SWIDTH 357 0
DWIDTH 13 0
BBX 13 26 1 0
BITMAP
1C00
FC00
3C00
1C00
1C00
1C00
1C00
1C00
1C00
1C00
1C70
1CF8
1C70
1C70
1C00
1C00
1C00
1C00
1C00
1C00
1C00
1C00
1C00
3C00
7F00
FF00
ENDCHAR
STARTCHAR Lslash
ENCODING 321
SWIDTH 590 0
DWIDTH 21 0
BBX 20 24 1 0
BITMAP
7FE000
7FC000
0F0000
0E0000
0E0000
0E0000
0E0000
0E0C00
0E3800
0E6000
0FC000
0F0000
0E0000
3E0000
EE0000
8E0000
0E0000
0E0030
0E0020
0E0020
0E0060
0E00E0
1F87E0
7FFFE0
ENDCHAR
STARTCHAR lslash
ENCODING 322
SWIDTH 290 0
DWIDTH 10 0
BBX 10 26 0 0
BITMAP
0E00
7E00
0E00
0E00
0E00
0E00
0E00
0E00
0E40
0FC0
0F00
0E00
1E00
3E00
EE00
4E00
0E00
0E00
0E00
0E00
0E00
0E00
0E00
0E00
3F80
7FC0
ENDCHAR
STARTCHAR Nacute
ENCODING 323
SWIDTH 742 0
DWIDTH 27 0
BBX 25 31 1 0
BITMAP
00078000
000F0000
001C0000
00380000
00700000
00000000
00000000
FE00FF80
7E007F00
1F001C00
1F801C00
1FC00C00
1BC00800
19E00800
19F00800
18F80800
18780800
183C0800
183E0800
181F0800
180F0800
18078800
1803C800
1803E800
1801F800
1800F800
18007800
18003800
1C003800
7F001800
FF000800
ENDCHAR
STARTCHAR nacute
ENCODING 324
SWIDTH 576 0
DWIDTH 21 0
BBX 19 25 1 0
BITMAP
003C00
003800
007800
007000
006000
00C000
000000
1C7C00
FCFE00
3F0F00
1E0700
1C0700
1C0700
1C0700
1C0700
1C0700
1C0700
1C0700
1C0700
1C0700
1C0700
1C0700
1C0700
7F1FC0
FF1FE0
ENDCHAR
STARTCHAR Ncommaaccent
ENCODING 325
SWIDTH 742 0
DWIDTH 27 0
BBX 25 34 1 -10
BITMAP
FE00FF80
7E007F00
1F001C00
1F801C00
1FC00C00
1BC00800
19E00800
19F00800
18F80800
18780800
183C0800
183E0800
181F0800
180F0800
18078800
1803C800
1803E800
1801F800
1800F800
18007800
18003800
1C003800
7F001800
FF000800
00000000
00000000
00380000
003C0000
003C0000
003C0000
00040000
000C0000
00180000
00300000
ENDCHAR
STARTCHAR ncommaaccent
ENCODING 326
SWIDTH 576 0
DWIDTH 21 0
BBX 19 28 1 -10
BITMAP
1C7C00
FCFE00
3F0F00
1E0700
1C0700
1C0700
1C0700
1C0700
1C0700
1C0700
1C0700
1C0700
1C0700
1C0700
1C0700
1C0700
7F1FC0
FF1FE0
000000
000000
00E000
01E000
01F000
01F000
002000
006000
00C000
018000
ENDCHAR
STARTCHAR Ncaron
ENCODING 327
SWIDTH 742 0
DWIDTH 27 0
BBX 25 31 1 0
BITMAP
01C0C000
00618000
00770000
003E0000
001C0000
00000000
00000000
FE00FF80
7E007F00
1F001C00
1F801C00
1FC00C00
1BC00800
19E00800
19F00800
18F80800
18780800
183C0800
183E0800
181F0800
180F0800
18078800
1803C800
1803E800
1801F800
1800F800
18007800
18003800
1C003800
7F001800
FF000800
ENDCHAR
STARTCHAR ncaron
ENCODING 328
SWIDTH 576 0
DWIDTH 21 0
BBX 19 25 1 0
BITMAP
040200
060C00
031C00
01B800
00F000
00E000
000000
1C7C00
FCFE00
3F0F00
1E0700
1C0700
1C0700
1C0700
1C0700
1C0700
1C0700
1C0700
1C0700
1C0700
1C0700
1C0700
1C0700
7F1FC0
FF1FE0
ENDCHAR
STARTCHAR napostrophe
ENCODING 329
SWIDTH 576 0
DWIDTH 21 0
BBX 25 26 -5 0
BITMAP
F0000000
F0000000
F8000000
F8000000
10000000
30000000
30000000
60000000
8071F000
03F3F800
00FC3C00
00781C00
00701C00
00701C00
00701C00
00701C00
00701C00
00701C00
00701C00
00701C00
00701C00
00701C00
00701C00
00701C00
01FC7F00
03FC7F80
ENDCHAR
STARTCHAR Eng
ENCODING 330
SWIDTH 742 0
DWIDTH 27 0
BBX 25 33 1 -9
BITMAP
FE00FF80
7E007F00
1F001C00
1F801C00
1FC00C00
1BC00800
19E00800
19F00800
18F80800
18780800
183C0800
183E0800
181F0800
180F0800
18078800
1807C800
1803C800
1801E800
1800F800
1800F800
18007800
1C003800
7F001800
FF001800
00000800
00000800
00000800
00001800
000C1800
001E1800
001F7000
000FE000
00010000
ENDCHAR
STARTCHAR eng
ENCODING 331
SWIDTH 559 0
DWIDTH 20 0
BBX 16 27 1 -9
BITMAP
1C7C
FCFE
3F0F
1E07
1C07
1C07
1C07
1C07
1C07
1C07
1C07
1C07
1C07
1C07
1C07
1C07
7F07
FF07
0007
0007
0007
0007
0107
03C6
03CE
01FC
0020
ENDCHAR
STARTCHAR Omacron
ENCODING 332
SWIDTH 738 0
DWIDTH 27 0
BBX 23 29 2 0
BITMAP
03FF80
000000
000000
000000
000000
00FE00
07CFC0
0E01E0
1C00F0
380078
780038
70003C
F0003C
F0001C
F0001E
F0001E
F0001E
F0001E
F0001E
F0001E
F0001C
F0003C
70003C
780038
380078
1C0070
0E01E0
07CF80
00FE00
ENDCHAR
STARTCHAR omacron
ENCODING 333
SWIDTH 514 0
DWIDTH 19 0
BBX 16 23 1 0
BITMAP
1FFC
1FFC
0000
0000
0000
07E0
1F78
381C
380E
700F
7007
F007
F007
F007
F007
F007
F007
7007
700E
380E
3C1C
1F78
07E0
ENDCHAR
STARTCHAR Obreve
ENCODING 334
SWIDTH 738 0
DWIDTH 27 0
BBX 23 32 2 0
BITMAP
020080
020100
030100
018700
01FE00
007C00
000000
000000
00FE00
07CFC0
0E01E0
1C00F0
380078
780038
70003C
F0003C
F0001C
F0001E
F0001E
F0001E
F0001E
F0001E
F0001E
F0001C
F0003C
70003C
780038
380078
1C0070
0E01E0
07CF80
00FE00
ENDCHAR
STARTCHAR obreve
ENCODING 335
SWIDTH 514 0
DWIDTH 19 0
BBX 16 26 1 0
BITMAP
1004
1008
1808
0C18
0FF0
03E0
0000
0000
07E0
1F78
381C
380E
700F
7007
F007
F007
F007
F007
F007
F007
7007
700E
380E
3C1C
1F78
07E0
ENDCHAR
STARTCHAR Ohungarumlaut
ENCODING 336
SWIDTH 738 0
DWIDTH 27 0
BBX 23 31 2 0
BITMAP
003DE0
0039C0
007380
00E300
00C600
000000
000000
00FE00
07CFC0
0E01E0
1C00F0
380078
780038
70003C
F0003C
F0001C
F0001E
F0001E
F0001E
F0001E
F0001E
F0001E
F0001C
F0003C
70003C
780038
380078
1C0070
0E01E0
07CF80
00FE00
ENDCHAR
STARTCHAR ohungarumlaut
ENCODING 337
SWIDTH 514 0
DWIDTH 19 0
BBX 16 25 1 0
BITMAP
01EE
01DE
039C
0318
0330
0630
0000
07E0
1F78
381C
380E
700F
7007
F007
F007
F007
F007
F007
F007
7007
700E
380E
3C1C
1F78
07E0
ENDCHAR
STARTCHAR OE
ENCODING 338
SWIDTH 945 0
DWIDTH 34 0
BBX 31 24 2 0
BITMAP
00FFFFFC
07EFFFFC
0E03C00C
1C01C00C
3801C004
7801C000
7001C020
F001C020
F001C060
F001C0E0
F001FFE0
F001C0E0
F001C060
F001C020
F001C020
F001C000
F001C000
7001C002
7801C006
3801C006
1C01C00C
0E03C01C
07EFFFFC
01FFFFFC
ENDCHAR
STARTCHAR oe
ENCODING 339
SWIDTH 807 0
DWIDTH 29 0
BBX 27 18 1 0
BITMAP
07E03E00
1F78EF00
381D8380
380F01C0
700F01C0
700F01C0
F00701E0
F007FFE0
F0070000
F0070000
F0070000
F0070000
700F8020
700F8060
380FE0C0
3C1DFF80
1F78FF80
07E03E00
ENDCHAR
STARTCHAR Racute
ENCODING 340
SWIDTH 659 0
DWIDTH 24 0
BBX 22 31 2 0
BITMAP
007800
00F000
00E000
01C000
030000
000000
000000
FFF800
3F7F00
1C0780
1C0780
1C03C0
1C03C0
1C03C0
1C0380
1C0780
1C0700
1C3E00
1FF000
1CF000
1C7800
1C3C00
1C1E00
1C1E00
1C0F00
1C0780
1C0780
1C03C0
3C03E0
FF81F8
FFC0FC
ENDCHAR
STARTCHAR racute
ENCODING 341
SWIDTH 380 0
DWIDTH 14 0
BBX 12 25 1 0
BITMAP
01C0
03C0
0380
0700
0600
0C00
0000
1C70
FCF0
3DF0
1E30
1E00
1C00
1C00
1C00
1C00
1C00
1C00
1C00
1C00
1C00
1C00
1C00
7F00
FF80
ENDCHAR
STARTCHAR Rcommaaccent
ENCODING 342
SWIDTH 659 0
DWIDTH 24 0
BBX 22 34 2 -10
BITMAP
FFF800
3F7F00
1C0780
1C0780
1C03C0
1C03C0
1C03C0
1C0380
1C0780
1C0700
1C3E00
1FF000
1CF000
1C7800
1C3C00
1C1E00
1C1E00
1C0F00
1C0780
1C0780
1C03C0
3C03E0
FF81F8
FFC0FC
000000
000000
00E000
00F000
00F000
00F000
001000
003000
006000
00C000
ENDCHAR
STARTCHAR rcommaaccent
ENCODING 343
SWIDTH 380 0
DWIDTH 14 0
BBX 12 28 1 -10
BITMAP
1C70
FCF0
3DF0
1E30
1E00
1C00
1C00
1C00
1C00
1C00
1C00
1C00
1C00
1C00
1C00
1C00
7F00
FF80
0000
0000
1C00
3E00
3E00
1E00
0600
0600
0C00
3800
ENDCHAR
STARTCHAR Rcaron
ENCODING 344
SWIDTH 659 0
DWIDTH 24 0
BBX 22 31 2 0
BITMAP
0C0E00
061800
03B800
01F000
00E000
000000
000000
FFF800
3F7F00
1C0780
1C0780
1C03C0
1C03C0
1C03C0
1C0380
1C0780
1C0700
1C3E00
1FF000
1CF000
1C7800
1C3C00
1C1E00
1C1E00
1C0F00
1C0780
1C0780
1C03C0
3C03E0
FF81F8
FFC0FC
ENDCHAR
STARTCHAR rcaron
ENCODING 345
SWIDTH 380 0
DWIDTH 14 0
BBX 12 25 1 0
BITMAP
4020
2040
38C0
1D80
0F00
0700
0000
1C70
FCF0
3DF0
1E30
1E00
1C00
1C00
1C00
1C00
1C00
1C00
1C00
1C00
1C00
1C00
1C00
7F00
FF80
ENDCHAR
STARTCHAR Sacute
ENCODING 346
SWIDTH 504 0
DWIDTH 18 0
BBX 16 31 1 0
BITMAP
00F0
01E0
03C0
0300
0600
0000
0000
07E6
1EFE
381E
700E
7006
7006
7006
7802
7C00
3F00
1FC0
0FF0
03F8
00FC
007E
001F
800F
C00F
C007
E00F
E00E
F00E
7E7C
4FF0
ENDCHAR
STARTCHAR sacute
ENCODING 347
SWIDTH 394 0
DWIDTH 14 0
BBX 12 25 1 0
BITMAP
01C0
03C0
0380
0700
0600
0C00
0000
1FA0
3BE0
6060
6060
E020
F020
7800
7E00
3F80
0FC0
03E0
00F0
8070
C070
C070
E070
FDE0
DF80
ENDCHAR
STARTCHAR Scircumflex
ENCODING 348
SWIDTH 504 0
DWIDTH 18 0
BBX 16 31 1 0
BITMAP
03C0
03E0
0660
0C30
1818
0000
0000
07E6
1EFE
381E
700E
7006
7006
7006
7802
7C00
3F00
1FC0
0FF0
03F8
00FC
007E
001F
800F
C00F
C007
E00F
E00E
F00E
7E7C
4FF0
ENDCHAR
STARTCHAR scircumflex
ENCODING 349
SWIDTH 394 0
DWIDTH 14 0
BBX 12 25 1 0
BITMAP
0600
0F00
0F80
19C0
30C0
6060
0000
1FA0
3BE0
6060
6060
E020
F020
7800
7E00
3F80
0FC0
03E0
00F0
8070
C070
C070
E070
FDE0
DF80
ENDCHAR
STARTCHAR uni015E
ENCODING 350
SWIDTH 504 0
DWIDTH 18 0
BBX 16 32 1 -8
BITMAP
07E6
1EFE
381E
700E
7006
7006
7006
7802
7C00
3F00
1FC0
0FF0
03F8
00FC
007E
001F
800F
C00F
C007
E00F
E00E
F00E
7E7C
47F0
0100
0100
03C0
0060
0060
0060
0460
07C0
ENDCHAR
STARTCHAR uni015F
ENCODING 351
SWIDTH 394 0
DWIDTH 14 0
BBX 12 26 1 -8
BITMAP
1FA0
3BE0
6060
6060
E020
F020
7800
7E00
3F80
0FC0
03E0
00F0
8070
C070
C070
E070
FDE0
DF80
0400
0400
0F00
0180
01C0
0180
1180
1F00
ENDCHAR
STARTCHAR Scaron
ENCODING 352
SWIDTH 504 0
DWIDTH 18 0
BBX 16 31 1 0
BITMAP
1818
0C30
0760
03E0
03C0
0000
0000
07E6
1EFE
381E
700E
7006
7006
7006
7802
7C00
3F00
1FC0
0FF0
03F8
00FC
007E
001F
800F
C00F
C007
E00F
E00E
F00E
7E7C
4FF0
ENDCHAR
STARTCHAR scaron
ENCODING 353
SWIDTH 394 0
DWIDTH 14 0
BBX 12 25 1 0
BITMAP
4020
3060
38C0
1D80
0F00
0700
0000
1FA0
3BE0
6060
6060
E020
F020
7800
7E00
3F80
0FC0
03E0
00F0
8070
C070
C070
E070
FDE0
DF80
ENDCHAR
STARTCHAR uni0162
ENCODING 354
SWIDTH 603 0
DWIDTH 22 0
BBX 20 32 1 -8
BITMAP
FFFFF0
F8F3F0
C0F030
80F030
80F010
80F010
00F000
00F000
00F000
00F000
00F000
00F000
00F000
00F000
00F000
00F000
00F000
00F000
00F000
00F000
00F000
00F000
03FC00
07FE00
004000
004000
00F000
001800
001800
001800
011800
01F000
ENDCHAR
STARTCHAR uni0163
ENCODING 355
SWIDTH 315 0
DWIDTH 11 0
BBX 10 31 1 -8
BITMAP
0800
0800
1800
1800
3800
FF80
3800
3800
3800
3800
3800
3800
3800
3800
3800
3800
3800
3800
3800
3840
1CC0
1F80
0F00
0400
0800
0F00
0180
0180
0180
1180
1F00
ENDCHAR
STARTCHAR Tcaron
ENCODING 356
SWIDTH 603 0
DWIDTH 22 0
BBX 20 31 1 0
BITMAP
060600
030C00
01B800
01F000
00F000
000000
000000
FFFFF0
F8F3F0
C0F030
80F030
80F010
80F010
00F000
00F000
00F000
00F000
00F000
00F000
00F000
00F000
00F000
00F000
00F000
00F000
00F000
00F000
00F000
00F000
03FC00
07FE00
ENDCHAR
STARTCHAR tcaron
ENCODING 357
SWIDTH 353 0
DWIDTH 13 0
BBX 11 26 1 0
BITMAP
00E0
00E0
00E0
08E0
08C0
18C0
18C0
3800
FF80
3800
3800
3800
3800
3800
3800
3800
3800
3800
3800
3800
3800
3800
3840
1CC0
1F80
0F00
ENDCHAR
STARTCHAR Tbar
ENCODING 358
SWIDTH 603 0
DWIDTH 22 0
BBX 20 24 1 0
BITMAP
FFFFF0
F8F3F0
C0F030
80F030
80F010
80F010
80F010
00F000
00F000
00F000
00F000
0FFF00
00F000
00F000
00F000
00F000
00F000
00F000
00F000
00F000
00F000
00F000
03FC00
07FE00
ENDCHAR
STARTCHAR tbar
ENCODING 359
SWIDTH 328 0
DWIDTH 12 0
BBX 10 23 1 0
BITMAP
0800
0800
1800
1800
3800
7F80
B800
3800
3800
3800
3800
FF80
3800
3800
3800
3800
3800
3800
3800
3C40
1CC0
1F80
0F00
ENDCHAR
STARTCHAR Utilde
ENCODING 360
SWIDTH 752 0
DWIDTH 27 0
BBX 25 31 1 0
BITMAP
00382000
007E2000
00CFC000
0083C000
00000000
00000000
00000000
FFC07F80
7F807F80
1E000C00
1E000C00
1E000C00
1E000C00
1E000C00
1E000C00
1E000C00
1E000C00
1E000C00
1E000C00
1E000C00
1E000C00
1E000C00
1E000C00
1E000C00
1E000C00
0E001C00
0F001800
0F003800
07E0F000
03FFE000
00FF0000
ENDCHAR
STARTCHAR utilde
ENCODING 361
SWIDTH 570 0
DWIDTH 21 0
BBX 18 24 1 0
BITMAP
078200
0FE400
09FC00
107800
000000
000000
F81F00
F83F00
380700
380700
380700
380700
380700
380700
380700
380700
380700
380700
380700
3C0700
1C0F00
1E3F00
1FE7C0
07C780
ENDCHAR
STARTCHAR Umacron
ENCODING 362
SWIDTH 752 0
DWIDTH 27 0
BBX 25 29 1 0
BITMAP
00FFE000
00000000
00000000
00000000
00000000
FFC07F80
7F807F80
1E000C00
1E000C00
1E000C00
1E000C00
1E000C00
1E000C00
1E000C00
1E000C00
1E000C00
1E000C00
1E000C00
1E000C00
1E000C00
1E000C00
1E000C00
1E000C00
0E001C00
0F001800
0F003800
07E0F000
03FFE000
00FF0000
ENDCHAR
STARTCHAR umacron
ENCODING 363
SWIDTH 570 0
DWIDTH 21 0
BBX 18 23 1 0
BITMAP
0FFC00
0FFC00
000000
000000
000000
F81F00
F83F00
380700
380700
380700
380700
380700
380700
380700
380700
380700
380700
380700
3C0700
1C0F00
1E3F00
1FE7C0
07C780
ENDCHAR
STARTCHAR Ubreve
ENCODING 364
SWIDTH 752 0
DWIDTH 27 0
BBX 25 32 1 0
BITMAP
00802000
00806000
00C04000
0061C000
007F8000
001F0000
00000000
00000000
FFC07F80
7F807F80
1E000C00
1E000C00
1E000C00
1E000C00
1E000C00
1E000C00
1E000C00
1E000C00
1E000C00
1E000C00
1E000C00
1E000C00
1E000C00
1E000C00
1E000C00
1E000C00
0E001C00
0F001800
0F003800
07E0F000
03FFE000
00FF0000
ENDCHAR
STARTCHAR ubreve
ENCODING 365
SWIDTH 570 0
DWIDTH 21 0
BBX 18 26 1 0
BITMAP
080400
080400
080C00
0E1800
07F800
03F000
000000
000000
F81F00
F83F00
380700
380700
380700
380700
380700
380700
380700
380700
380700
380700
380700
3C0700
1C0F00
1E3F00
1FE7C0
07C780
ENDCHAR
STARTCHAR Uring
ENCODING 366
SWIDTH 752 0
DWIDTH 27 0
BBX 25 33 1 0
BITMAP
001F0000
00330000
00218000
00218000
00218000
00318000
001F0000
00000000
00000000
FFC07F80
7F807F80
1E000C00
1E000C00
1E000C00
1E000C00
1E000C00
1E000C00
1E000C00
1E000C00
1E000C00
1E000C00
1E000C00
1E000C00
1E000C00
1E000C00
1E000C00
1E000C00
0E001C00
0F001800
0F003800
07E0F000
03FFE000
00FF0000
ENDCHAR
STARTCHAR uring
ENCODING 367
SWIDTH 570 0
DWIDTH 21 0
BBX 18 27 1 0
BITMAP
01E000
033000
061000
061800
061800
033000
03E000
000000
000000
F81F00
F83F00
380700
380700
380700
380700
380700
380700
380700
380700
380700
380700
380700
3C0700
1C0F00
1E3F00
1FE7C0
07C780
ENDCHAR
STARTCHAR Uhungarumlaut
ENCODING 368
SWIDTH 752 0
DWIDTH 27 0
BBX 25 31 1 0
BITMAP
000F7800
000E7000
001CE000
0018C000
00318000
00000000
00000000
FFC07F80
7F807F80
1E000C00
1E000C00
1E000C00
1E000C00
1E000C00
1E000C00
1E000C00
1E000C00
1E000C00
1E000C00
1E000C00
1E000C00
1E000C00
1E000C00
1E000C00
1E000C00
0E001C00
0F001800
0F003800
07E0F000
03FFE000
00FF0000
ENDCHAR
STARTCHAR uhungarumlaut
ENCODING 369
SWIDTH 570 0
DWIDTH 21 0
BBX 18 25 1 0
BITMAP
00EF00
01EE00
01CE00
039C00
031800
063000
000000
F81F00
F83F00
380700
380700
380700
380700
380700
380700
380700
380700
380700
380700
380700
3C0700
1C0F00
1E3F00
1FE7C0
07C780
ENDCHAR
STARTCHAR Uogonek
ENCODING 370
SWIDTH 753 0
DWIDTH 27 0
BBX 25 32 1 -8
BITMAP
FFC07F80
7F807F80
1E000C00
1E000C00
1E000C00
1E000C00
1E000C00
1E000C00
1E000C00
1E000C00
1E000C00
1E000C00
1E000C00
1E000C00
1E000C00
1E000C00
1E000C00
1E000C00
0E001C00
0F001800
0F003800
07E0F000
03FFF000
00FFE000
00030000
000E0000
000C0000
001C0000
00180000
00182000
001EC000
000F8000
ENDCHAR
STARTCHAR uogonek
ENCODING 371
SWIDTH 570 0
DWIDTH 21 0
BBX 18 26 1 -8
BITMAP
F81F00
F83F00
380700
380700
380700
380700
380700
380700
380700
380700
380700
380700
380700
3C0700
1C0F00
1E3F00
1FE7C0
07C700
000C00
001800
003000
003000
003000
003080
003B80
001E00
ENDCHAR
STARTCHAR Wcircumflex
ENCODING 372
SWIDTH 944 0
DWIDTH 34 0
BBX 34 31 0 0
BITMAP
0001C00000
0003E00000
0007700000
000E380000
00180C0000
0000000000
0000000000
FF8FF81FC0
FF07F81F80
3E01C00700
1E01E00600
1E01E00600
0E00E00C00
0F00F00C00
0F00700C00
0780F81800
0780F81800
0381B81800
03C1BC3000
03C11C3000
01E31C3000
01E31E6000
00E20E6000
00F60F6000
00F60FC000
007C07C000
007C07C000
0038038000
0038038000
0038030000
0010010000
ENDCHAR
STARTCHAR wcircumflex
ENCODING 373
SWIDTH 749 0
DWIDTH 27 0
BBX 28 25 -1 0
BITMAP
00070000
00070000
000F8000
0018C000
00306000
00603000
00000000
FF1FC3F0
7F1FC1F0
1C0700C0
1E0780C0
0E0380C0
0E038180
0F03C180
0707C100
0705C300
038CE300
0388E200
03C8E600
01D87600
01D07400
01F07C00
00F03800
00E03800
00603800
ENDCHAR
STARTCHAR Ycircumflex
ENCODING 374
SWIDTH 647 0
DWIDTH 23 0
BBX 23 31 0 0
BITMAP
001C00
003E00
007700
00C300
0181C0
000000
000000
FFC0FE
7F80FE
3E0030
1E0030
0F0060
0780C0
0780C0
03C180
01E180
01E300
00F600
007600
007C00
003C00
003800
003800
003800
003800
003800
003800
003800
003C00
01FF00
03FF80
ENDCHAR
STARTCHAR ycircumflex
ENCODING 375
SWIDTH 483 0
DWIDTH 17 0
BBX 18 34 0 -9
BITMAP
00E000
01E000
01F000
033800
061800
0C0400
000000
FE0FC0
FE0F80
380300
3C0600
1C0600
1C0600
1E0C00
0E0C00
0F0800
071800
079800
039000
03B000
01F000
01E000
01E000
00C000
00C000
00C000
018000
018000
030000
430000
FE0000
FE0000
FC0000
200000
ENDCHAR
STARTCHAR Ydieresis
ENCODING 376
SWIDTH 647 0
DWIDTH 23 0
BBX 23 30 0 0
BITMAP
01C1C0
03C3C0
03C3C0
01C1C0
000000
000000
FFC0FE
7F80FE
3E0030
1E0030
0F0060
0780C0
0780C0
03C180
01E180
01E300
00F600
007600
007C00
003C00
003800
003800
003800
003800
003800
003800
003800
003C00
01FF00
03FF80
ENDCHAR
STARTCHAR Zacute
ENCODING 377
SWIDTH 594 0
DWIDTH 21 0
BBX 19 31 1 0
BITMAP
003C00
007800
007000
00E000
018000
000000
000000
3FFFE0
7E01E0
7003C0
600780
600780
400F00
001E00
001E00
003C00
007800
007800
00F000
01E000
01E000
03C000
078000
0F8000
0F0020
1E0020
3E0020
3C0060
7800E0
F807E0
FFFFC0
ENDCHAR
STARTCHAR zacute
ENCODING 378
SWIDTH 458 0
DWIDTH 16 0
BBX 14 25 1 0
BITMAP
00F0
00E0
01C0
0180
0380
0300
0000
7FFC
783C
6038
4078
40F0
00E0
01E0
03C0
0380
0780
0F00
0E00
1E04
3C04
380C
780C
FFFC
FFFC
ENDCHAR
STARTCHAR Zdotaccent
ENCODING 379
SWIDTH 594 0
DWIDTH 21 0
BBX 19 30 1 0
BITMAP
007000
00F000
00F000
007000
000000
000000
3FFFE0
7E01E0
7003C0
600780
600780
400F00
001E00
001E00
003C00
007800
007800
00F000
01E000
01E000
03C000
078000
0F8000
0F0020
1E0020
3E0020
3C0060
7800E0
F807E0
FFFFC0
ENDCHAR
STARTCHAR zdotaccent
ENCODING 380
SWIDTH 458 0
DWIDTH 16 0
BBX 14 25 1 0
BITMAP
0380
03C0
03C0
0380
0000
0000
0000
7FFC
783C
6038
4078
40F0
00E0
01E0
03C0
0380
0780
0F00
0E00
1E04
3C04
380C
780C
FFFC
FFFC
ENDCHAR
STARTCHAR Zcaron
ENCODING 381
SWIDTH 594 0
DWIDTH 21 0
BBX 19 31 1 0
BITMAP
060700
030C00
01DC00
00F800
007000
000000
000000
3FFFE0
7E01E0
7003C0
600780
600780
400F00
001E00
001E00
003C00
007800
007800
00F000
01E000
01E000
03C000
078000
0F8000
0F0020
1E0020
3E0020
3C0060
7800E0
F807E0
FFFFC0
ENDCHAR
STARTCHAR zcaron
ENCODING 382
SWIDTH 458 0
DWIDTH 16 0
BBX 14 25 1 0
BITMAP
1018
1830
0C60
06E0
07C0
0380
0000
7FFC
783C
6038
4078
40F0
00E0
01E0
03C0
0380
0780
0F00
0E00
1E04
3C04
380C
780C
FFFC
FFFC
ENDCHAR
STARTCHAR longs
ENCODING 383
SWIDTH 285 0
DWIDTH 10 0
BBX 13 26 1 0
BITMAP
03F0
0EF0
0C78
1C30
1C00
1C00
1C00
1C00
FC00
1C00
1C00
1C00
1C00
1C00
1C00
1C00
1C00
1C00
1C00
1C00
1C00
1C00
1C00
3C00
FF00
FF80
ENDCHAR
STARTCHAR uni0180
ENCODING 384
SWIDTH 522 0
DWIDTH 19 0
BBX 18 27 0 0
BITMAP
040000
7C0000
FC0000
1C0000
1C0000
FFF800
1C0000
1C0000
1C0000
1C7C00
1CFE00
1DFF00
1F0F80
1C0780
1C0380
1C0380
1C03C0
1C03C0
1C0380
1C0380
1C0380
1C0380
1C0300
1C0700
1C0E00
1FBC00
07F000
ENDCHAR
STARTCHAR uni0188
ENCODING 392
SWIDTH 446 0
DWIDTH 16 0
BBX 18 24 1 0
BITMAP
000780
000DC0
0018C0
001040
001000
001000
07F000
1EF800
383800
303C00
601C00
600000
E00000
E00000
E00000
E00000
E00000
F00000
700400
780400
7C1800
3FF800
1FF000
07C000
ENDCHAR
STARTCHAR uni0190
ENCODING 400
SWIDTH 518 0
DWIDTH 19 0
BBX 17 24 1 0
BITMAP
07F800
1F7E00
381F00
780F00
700700
700000
700000
780000
380000
0E0000
03F000
0F8000
3C0000
380000
700000
700000
F00000
F00000
700100
780180
780300
3E0E00
1FFC00
07F000
ENDCHAR
STARTCHAR uni0192
ENCODING 402
SWIDTH 301 0
DWIDTH 11 0
BBX 17 36 -3 -9
BITMAP
003E00
00EF00
00C780
01C300
01C000
01C000
01C000
01C000
01C000
0FFC00
01C000
01C000
01C000
01C000
01C000
01C000
01C000
01C000
01C000
01C000
01C000
01C000
01C000
01C000
01C000
01C000
01C000
01C000
018000
018000
018000
C38000
E38000
E30000
FE0000
100000
ENDCHAR
STARTCHAR uni0195
ENCODING 405
SWIDTH 798 0
DWIDTH 29 0
BBX 26 27 1 0
BITMAP
04000000
FC000000
FC000000
1C000000
1C000000
1C000000
1C000000
1C000000
1C000000
1C780700
1DFE0780
1F1E0380
1E0F03C0
1C0701C0
1C0700C0
1C0700C0
1C0700C0
1C0700C0
1C0700C0
1C0700C0
1C0700C0
1C070080
1C070080
1C070180
3C038700
7E03FE00
FF00F800
ENDCHAR
STARTCHAR uni0199
ENCODING 409
SWIDTH 538 0
DWIDTH 19 0
BBX 18 26 1 0
BITMAP
03F000
06F800
0C3C00
1C1800
180000
180000
380000
380000
387F80
383F00
381C00
383000
386000
38C000
398000
3B0000
3F8000
3BC000
39E000
38F000
387800
383C00
381C00
3C1E00
FF1F80
FF3FC0
ENDCHAR
STARTCHAR uni019A
ENCODING 410
SWIDTH 287 0
DWIDTH 10 0
BBX 8 26 1 0
BITMAP
1C
FC
3C
1C
1C
1C
1C
1C
1C
1C
1C
1C
FF
1C
1C
1C
1C
1C
1C
1C
1C
1C
1C
1C
7F
FF
ENDCHAR
STARTCHAR uni019B
ENCODING 411
SWIDTH 495 0
DWIDTH 18 0
BBX 18 26 0 0
BITMAP
3C0000
7E0000
7F1800
21F000
01C000
03C000
1EC000
084000
006000
006000
00E000
00F000
01D000
01D000
039800
038800
078C00
070C00
0F0400
0E0600
1E0600
1C0200
3C0300
380300
FE07C0
FE0FC0
ENDCHAR
STARTCHAR uni019E
ENCODING 414
SWIDTH 559 0
DWIDTH 20 0
BBX 19 26 1 -8
BITMAP
1C7C00
FCFE00
3F0F00
1E0700
1C0700
1C0700
1C0700
1C0700
1C0700
1C0700
1C0700
1C0700
1C0700
1C0700
1C0700
1C0700
7F0700
FF0700
000700
000700
000700
000700
000700
000700
0007C0
0007E0
ENDCHAR
STARTCHAR Ohorn
ENCODING 416
SWIDTH 737 0
DWIDTH 27 0
BBX 24 30 2 0
BITMAP
00000E
00000E
00000F
000007
000006
00000E
00FFFC
07CFC0
0E01E0
1C00F0
380078
780038
70003C
F0003C
F0001C
F0001E
F0001E
F0001E
F0001E
F0001E
F0001C
F0001C
F0003C
70003C
780038
380070
1C0070
0E01E0
07CF80
01FE00
ENDCHAR
STARTCHAR ohorn
ENCODING 417
SWIDTH 516 0
DWIDTH 19 0
BBX 17 24 1 0
BITMAP
000100
000380
000380
000180
000180
000180
07FF00
1F7C00
381C00
380E00
700E00
700700
F00700
F00700
F00700
F00700
F00700
F00700
700700
700E00
380E00
3C1C00
1F7800
07E000
ENDCHAR
STARTCHAR uni01A5
ENCODING 421
SWIDTH 522 0
DWIDTH 19 0
BBX 18 34 0 -8
BITMAP
03F800
067C00
0C3C00
0C1C00
1C0000
1C0000
1C0000
1C0000
1C7C00
1CFE00
1DFF00
1F0F80
1C0780
1C0380
1C0380
1C03C0
1C03C0
1C0380
1C0380
1C0380
1C0380
1C0300
1C0700
1E0E00
1FBC00
1DF000
1C0000
1C0000
1C0000
1C0000
1C0000
1C0000
7F0000
FF8000
ENDCHAR
STARTCHAR uni01AA
ENCODING 426
SWIDTH 298 0
DWIDTH 11 0
BBX 16 36 -2 -9
BITMAP
3E00
6700
C300
8380
8180
8180
8180
C3C0
7FC0
01C0
01C0
01C0
01C0
01C0
01C0
01C0
01C0
01C0
01C0
01C0
01C0
01C0
01C0
01C0
01C0
01C0
01C0
01C0
01C0
01C0
01C0
01C1
01C7
00C7
007F
0008
ENDCHAR
STARTCHAR uni01AB
ENCODING 427
SWIDTH 321 0
DWIDTH 12 0
BBX 10 32 1 -9
BITMAP
0800
0800
1800
1800
3800
FF80
3800
3800
3800
3800
3800
3800
3800
3800
3800
3800
3800
3800
3800
3840
1CC0
1FC0
0F40
0040
0040
0040
0040
00C0
18C0
1C80
1F80
0400
ENDCHAR
STARTCHAR uni01AD
ENCODING 429
SWIDTH 315 0
DWIDTH 11 0
BBX 14 27 1 0
BITMAP
03F0
06F8
0C3C
1818
1800
1800
3800
3800
3800
FF80
3800
3800
3800
3800
3800
3800
3800
3800
3800
3800
3800
3800
3800
3840
1CC0
1F80
0F00
ENDCHAR
STARTCHAR Uhorn
ENCODING 431
SWIDTH 762 0
DWIDTH 27 0
BBX 29 31 1 0
BITMAP
00000070
00000070
00000078
00000078
00000030
00000030
00000060
FFC07F80
7F807E00
1E000C00
1E000C00
1E000C00
1E000C00
1E000C00
1E000C00
1E000C00
1E000C00
1E000C00
1E000C00
1E000C00
1E000C00
1E000C00
1E000C00
1E000C00
1E000C00
0E001800
0F001800
0F003800
07E0F000
03FFE000
00FF0000
ENDCHAR
STARTCHAR uhorn
ENCODING 432
SWIDTH 574 0
DWIDTH 21 0
BBX 20 24 1 0
BITMAP
000020
000070
000070
000070
000030
000060
380FE0
F83F00
380F00
380700
380700
380700
380700
380700
380700
380700
380700
380700
380700
3C0700
1C0F00
1E3F00
1FE7C0
07C780
ENDCHAR
STARTCHAR uni01B5
ENCODING 437
SWIDTH 594 0
DWIDTH 21 0
BBX 19 24 1 0
BITMAP
3FFFE0
7E01E0
7003C0
600780
600780
600F00
001E00
001E00
003C00
007800
007800
1FFF80
01E000
01E000
03C000
078000
078000
0F0020
1E0020
1E0020
3C0060
7800E0
F807E0
FFFFE0
ENDCHAR
STARTCHAR uni01BA
ENCODING 442
SWIDTH 430 0
DWIDTH 15 0
BBX 13 27 1 -9
BITMAP
FFF8
F070
C0E0
81C0
83C0
0780
0700
0E00
1C00
1FE0
01F0
0078
0038
0038
0038
0078
0070
01E0
07C0
3C00
6000
4020
4070
40F0
61F0
3FE0
0400
ENDCHAR
STARTCHAR uni01BB
ENCODING 443
SWIDTH 508 0
DWIDTH 18 0
BBX 16 26 1 0
BITMAP
07E0
1FF0
3878
203C
401C
C01E
001E
001E
001E
001C
001C
001C
0038
7FFF
0060
00C0
01C0
0380
0300
0600
0C01
1803
3006
7FFE
FFFE
FFFE
ENDCHAR
STARTCHAR uni01BE
ENCODING 446
SWIDTH 406 0
DWIDTH 15 0
BBX 13 23 1 0
BITMAP
0400
0C00
1C00
1C00
3C00
FFC0
1C00
1C00
1C00
1F00
03C0
01E0
00F0
0070
0070
0078
0078
8078
C070
C070
E060
F9E0
DF80
ENDCHAR
STARTCHAR uni01C0
ENCODING 448
SWIDTH 250 0
DWIDTH 9 0
BBX 3 26 3 0
BITMAP
E0
E0
E0
E0
E0
E0
E0
E0
E0
E0
E0
E0
E0
E0
E0
E0
E0
E0
E0
E0
E0
E0
E0
E0
E0
E0
ENDCHAR
STARTCHAR uni01C1
ENCODING 449
SWIDTH 423 0
DWIDTH 15 0
BBX 9 26 3 0
BITMAP
E380
E380
E380
E380
E380
E380
E380
E380
E380
E380
E380
E380
E380
E380
E380
E380
E380
E380
E380
E380
E380
E380
E380
E380
E380
E380
ENDCHAR
STARTCHAR uni01C2
ENCODING 450
SWIDTH 422 0
DWIDTH 15 0
BBX 13 26 1 0
BITMAP
0700
0700
0700
0700
0700
0700
0700
0700
FFF8
0700
0700
0700
0700
0700
FFF8
0700
0700
0700
0700
0700
0700
0700
0700
0700
0700
0700
ENDCHAR
STARTCHAR uni01C3
ENCODING 451
SWIDTH 245 0
DWIDTH 9 0
BBX 4 27 2 0
BITMAP
20
70
70
70
70
70
70
70
70
70
70
70
70
70
60
60
20
20
20
20
20
00
00
70
F0
F0
70
ENDCHAR
STARTCHAR uni01DE
ENCODING 478
SWIDTH 718 0
DWIDTH 26 0
BBX 26 33 0 0
BITMAP
01FFC000
00000000
00000000
01C1C000
01E1E000
01E1E000
01C1C000
00000000
00000000
000C0000
001C0000
001E0000
003E0000
003E0000
003F0000
00670000
00678000
00C78000
00C3C000
00C3C000
0181E000
0181E000
0301E000
0300F000
07FFF000
06007800
06007800
0C003C00
0C003C00
18003E00
18003E00
7E007F80
FF00FFC0
ENDCHAR
STARTCHAR uni01DF
ENCODING 479
SWIDTH 480 0
DWIDTH 17 0
BBX 16 29 1 0
BITMAP
3FF8
3FF8
0000
0000
3838
7878
7878
3838
0000
0000
0000
0FC0
1DF0
3070
7038
7038
3038
0038
0078
03F8
0E38
3838
7038
7038
F038
F038
7079
7DBE
3E1C
ENDCHAR
STARTCHAR uni01F0
ENCODING 496
SWIDTH 263 0
DWIDTH 9 0
BBX 13 34 -3 -9
BITMAP
1018
1830
0C60
06E0
07C0
0380
0000
03C0
0FC0
03C0
01C0
01C0
01C0
01C0
01C0
01C0
01C0
01C0
01C0
01C0
01C0
01C0
01C0
01C0
01C0
01C0
01C0
0180
0180
4380
E380
F300
FE00
1000
ENDCHAR
STARTCHAR Aringacute
ENCODING 506
SWIDTH 718 0
DWIDTH 26 0
BBX 26 38 0 0
BITMAP
00078000
000F0000
001C0000
00380000
00700000
00000000
001E0000
00330000
00610000
00610000
00610000
00630000
003E0000
00000000
000C0000
001C0000
001E0000
003E0000
003E0000
003F0000
00670000
00678000
00C78000
00C3C000
00C3C000
0181E000
0181E000
0301E000
0300F000
07FFF000
06007800
06007800
0C003C00
0C003C00
18003E00
18003E00
7E007F80
FF00FFC0
ENDCHAR
STARTCHAR aringacute
ENCODING 507
SWIDTH 480 0
DWIDTH 17 0
BBX 16 32 1 0
BITMAP
01E0
03C0
0380
0700
0C00
0780
0CC0
0860
0860
0860
0C60
07C0
0000
0000
0FC0
1DF0
3070
7038
7038
3038
0038
0078
03F8
0E38
3838
7038
7038
F038
F038
7079
7DBE
3E1C
ENDCHAR
STARTCHAR AEacute
ENCODING 508
SWIDTH 894 0
DWIDTH 32 0
BBX 32 31 -1 0
BITMAP
00000780
00000F00
00000E00
00001C00
00003000
00000000
00000000
001FFFFE
0007FFFE
0006E00E
0006E006
000CE002
000CE002
0018E000
0018E000
0030E010
0030E010
0060E010
0060E030
00FFFFF0
01C0E070
0180E010
0300E010
0300E000
0600E001
0600E003
0C00E003
1C00E003
1C00E006
7E07FFFE
FF0FFFFE
ENDCHAR
STARTCHAR aeacute
ENCODING 509
SWIDTH 709 0
DWIDTH 26 0
BBX 23 25 1 0
BITMAP
001E00
001C00
003800
003000
006000
006000
000000
0FC3E0
3DE778
707C3C
70781C
70780E
70780E
00700E
007FFE
03F000
1E7000
383800
703800
703802
F03C02
F07E06
78DFFC
7F8FF8
3E03F0
ENDCHAR
STARTCHAR Oslashacute
ENCODING 510
SWIDTH 737 0
DWIDTH 27 0
BBX 23 31 2 0
BITMAP
001E00
003C00
003800
006000
00C000
000000
000000
00FE18
07CFB0
0E01E0
1C00F0
3800F8
7801B8
70033C
F0063C
F0041C
F00C1E
F0181E
F0301E
F0601E
F0401E
F0C01C
F1801C
F3003C
72003C
7E0038
3C0078
3C0070
3E01E0
67CF80
61FE00
ENDCHAR
STARTCHAR oslashacute
ENCODING 511
SWIDTH 514 0
DWIDTH 19 0
BBX 16 25 1 0
BITMAP
00F0
00E0
01C0
0180
0380
0300
0000
07E6
1F7C
381C
381E
703E
7027
F047
F0C7
F187
F307
F207
F607
7C07
780E
780E
381C
7F78
C7E0
ENDCHAR
STARTCHAR uni0218
ENCODING 536
SWIDTH 504 0
DWIDTH 18 0
BBX 16 34 1 -10
BITMAP
07E6
1EFE
381E
700E
7006
7006
7006
7802
7C00
3F00
1FC0
0FF0
03F8
00FC
007E
001F
800F
C00F
C007
E00F
E00E
F00E
7E7C
47F0
0000
0000
0380
03C0
03C0
03C0
00C0
00C0
0180
0300
ENDCHAR
STARTCHAR uni0219
ENCODING 537
SWIDTH 394 0
DWIDTH 14 0
BBX 12 28 1 -10
BITMAP
1FA0
3BE0
6060
6060
E020
F020
7800
7E00
3F80
0FC0
03E0
00F0
8070
C070
C070
E070
FDE0
DF80
0000
0000
0E00
0F00
0F00
0F00
0100
0300
0600
0C00
ENDCHAR
STARTCHAR uni021A
ENCODING 538
SWIDTH 603 0
DWIDTH 22 0
BBX 20 34 1 -10
BITMAP
FFFFF0
F8F3F0
C0F030
80F030
80F010
80F010
00F000
00F000
00F000
00F000
00F000
00F000
00F000
00F000
00F000
00F000
00F000
00F000
00F000
00F000
00F000
00F000
03FC00
07FE00
000000
000000
00E000
00F000
00F000
00F000
003000
003000
006000
00C000
ENDCHAR
STARTCHAR uni021B
ENCODING 539
SWIDTH 315 0
DWIDTH 11 0
BBX 10 33 1 -10
BITMAP
0800
0800
1800
1800
3800
FF80
3800
3800
3800
3800
3800
3800
3800
3800
3800
3800
3800
3800
3800
3840
1CC0
1F80
0F00
0000
0000
0E00
1F00
1F00
0F00
0300
0300
0600
0C00
ENDCHAR
STARTCHAR uni0221
ENCODING 545
SWIDTH 674 0
DWIDTH 24 0
BBX 23 32 1 -5
BITMAP
000200
003E00
007E00
000E00
000E00
000E00
000E00
000E00
000E00
03EE00
0F7E00
181E00
300E00
700E00
700E00
600E00
E00E00
E00E00
E00E00
E00E00
F00E00
F00E1E
780E36
7C1E42
3FFE82
3FC7BC
0F83F8
000300
000200
000600
000400
000C00
ENDCHAR
STARTCHAR uni0228
ENCODING 552
SWIDTH 626 0
DWIDTH 23 0
BBX 21 32 1 -8
BITMAP
FFFFE0
1FFFE0
0E0060
0E0020
0E0020
0E0020
0E0000
0E0180
0E0180
0E0180
0E0380
0FFF80
0E0780
0E0180
0E0180
0E0180
0E0000
0E0018
0E0010
0E0010
0E0030
0E0070
1FFFF0
FFFFF0
002000
004000
007800
001C00
000C00
000C00
019C00
00F800
ENDCHAR
STARTCHAR uni0229
ENCODING 553
SWIDTH 464 0
DWIDTH 17 0
BBX 15 26 1 -8
BITMAP
07C0
1EF0
3838
7038
701C
601C
E01C
FFFC
E002
E000
E000
F000
7004
7806
3C0C
3FF8
1FF0
07E0
0100
0200
03C0
00E0
0060
0060
0CE0
07C0
ENDCHAR
STARTCHAR uni0234
ENCODING 564
SWIDTH 399 0
DWIDTH 14 0
BBX 15 32 0 -5
BITMAP
0400
7C00
FC00
1C00
1C00
1C00
1C00
1C00
1C00
1C00
1C00
1C00
1C00
1C00
1C00
1C00
1C00
1C00
1C00
1C00
1C3C
1C6C
1CC6
1D86
1D0C
0F78
07E0
0600
0400
0C00
0800
1000
ENDCHAR
STARTCHAR uni0235
ENCODING 565
SWIDTH 702 0
DWIDTH 25 0
BBX 24 23 1 -5
BITMAP
1C7C00
FCFE00
3F1E00
1E0F00
1C0700
1C0700
1C0700
1C0700
1C0700
1C0700
1C0700
1C0700
1C070F
1C0719
1C0721
1C0741
7F03DE
FF01FC
000180
000100
000300
000200
000600
ENDCHAR
STARTCHAR uni0236
ENCODING 566
SWIDTH 406 0
DWIDTH 15 0
BBX 14 28 1 -5
BITMAP
0800
0800
1800
1800
3800
FFC0
3800
3800
3800
3800
3800
3800
3800
3800
3800
3800
3800
3878
38CC
3984
1B0C
1E78
0FE0
0400
0C00
1800
1000
3000
ENDCHAR
STARTCHAR uni0237
ENCODING 567
SWIDTH 263 0
DWIDTH 9 0
BBX 10 27 -3 -9
BITMAP
03C0
0FC0
03C0
01C0
01C0
01C0
01C0
01C0
01C0
01C0
01C0
01C0
01C0
01C0
01C0
01C0
01C0
01C0
01C0
01C0
0180
0180
4380
E380
F300
FE00
1000
ENDCHAR
STARTCHAR uni0250
ENCODING 592
SWIDTH 475 0
DWIDTH 17 0
BBX 16 18 0 0
BITMAP
387C
7DBE
9E0E
1C0F
1C07
1C0F
1C0E
1C1C
1C78
1FC0
1E00
1C00
1C0E
1C0E
1E0E
0E0E
07BC
03F0
ENDCHAR
STARTCHAR uni0251
ENCODING 593
SWIDTH 542 0
DWIDTH 20 0
BBX 17 18 1 0
BITMAP
03E600
0F7E00
181E00
300E00
700E00
700E00
600E00
E00E00
E00E00
E00E00
E00E00
F00E00
F00E00
700E00
7C1E00
3FFE00
3FCF80
0F8E00
ENDCHAR
STARTCHAR uni0252
ENCODING 594
SWIDTH 544 0
DWIDTH 20 0
BBX 17 18 1 0
BITMAP
387C00
F9FE00
3BFF00
1E0F00
1C0780
1C0380
1C0380
1C0380
1C0380
1C0380
1C0380
1C0380
1C0380
1C0300
1C0700
1E0E00
1FBC00
13F000
ENDCHAR
STARTCHAR uni0253
ENCODING 595
SWIDTH 518 0
DWIDTH 19 0
BBX 14 27 3 0
BITMAP
1FC0
33E0
61E0
60E0
E000
E000
E000
E000
E000
E3E0
E7F0
EFF8
F878
E03C
E03C
E01C
E01C
E01C
E01C
E01C
E01C
E01C
E038
E038
E070
FDE0
3F80
ENDCHAR
STARTCHAR uni0254
ENCODING 596
SWIDTH 454 0
DWIDTH 16 0
BBX 14 18 1 0
BITMAP
0FC0
3FE0
3FF0
60F8
C038
803C
001C
001C
001C
001C
001C
001C
401C
F018
F038
7870
7DE0
1F80
ENDCHAR
STARTCHAR uni0255
ENCODING 597
SWIDTH 447 0
DWIDTH 16 0
BBX 14 22 1 -4
BITMAP
07E0
1EF8
383C
303C
601C
6000
E000
E000
E000
E000
E000
F0F8
719C
7B0C
7E0C
3E0C
1FF8
0FE0
1800
1000
1000
3000
ENDCHAR
STARTCHAR uni0256
ENCODING 598
SWIDTH 528 0
DWIDTH 19 0
BBX 22 36 1 -9
BITMAP
000200
001E00
007E00
000E00
000E00
000E00
000E00
000E00
000E00
03EE00
0F7E00
181E00
300E00
700E00
700E00
600E00
E00E00
E00E00
E00E00
E00E00
F00E00
F00E00
780E00
7C1E00
3FFE00
3FCE00
0F8E00
000E00
000E00
000E00
000E00
000E08
00061C
00063C
0003F8
000040
ENDCHAR
STARTCHAR uni0257
ENCODING 599
SWIDTH 542 0
DWIDTH 20 0
BBX 22 27 1 0
BITMAP
0001F8
00033C
00061C
00061C
000E00
000E00
000E00
000E00
000E00
03EE00
0F7E00
181E00
300E00
700E00
700E00
600E00
E00E00
E00E00
E00E00
E00E00
F00E00
F00E00
780E00
7C1E00
3FFE00
3FCFC0
0F8F00
ENDCHAR
STARTCHAR uni0258
ENCODING 600
SWIDTH 466 0
DWIDTH 17 0
BBX 15 18 1 0
BITMAP
07C0
1EF0
3838
7018
701C
701C
F00C
FFFC
000E
000E
001C
001C
001C
C03C
6078
3FF8
1FE0
0FC0
ENDCHAR
STARTCHAR uni0259
ENCODING 601
SWIDTH 464 0
DWIDTH 17 0
BBX 14 18 1 0
BITMAP
0FC0
1FE0
3FF0
60F8
C03C
801C
001C
001C
001C
000C
FFFC
F00C
F01C
701C
7018
3838
1EF0
0FC0
ENDCHAR
STARTCHAR uni025A
ENCODING 602
SWIDTH 642 0
DWIDTH 23 0
BBX 22 18 1 0
BITMAP
0FC000
3FE000
3FF000
60F8C0
C03FC4
001CC4
001C78
001C00
001C00
000C00
FFFC00
F00C00
F01C00
701C00
701800
383000
1EE000
0FC000
ENDCHAR
STARTCHAR uni025B
ENCODING 603
SWIDTH 399 0
DWIDTH 14 0
BBX 13 18 1 0
BITMAP
0FC0
3DF0
7070
7078
7020
7000
7000
3800
0780
3C00
7000
7000
E000
E000
F008
7830
3FE0
1F80
ENDCHAR
STARTCHAR uni025C
ENCODING 604
SWIDTH 398 0
DWIDTH 14 0
BBX 12 18 1 0
BITMAP
3F80
7BE0
E0E0
E070
4070
0070
00E0
01C0
1F00
03C0
00E0
0070
0070
0070
8070
80E0
73E0
3F80
ENDCHAR
STARTCHAR uni025D
ENCODING 605
SWIDTH 575 0
DWIDTH 21 0
BBX 20 18 1 0
BITMAP
3F8000
FBE000
E0E000
E07200
007E10
006320
00C3E0
010000
1FC000
03E000
00F000
007000
007000
007000
807000
80E000
73C000
3F8000
ENDCHAR
STARTCHAR uni025E
ENCODING 606
SWIDTH 500 0
DWIDTH 18 0
BBX 16 18 1 0
BITMAP
03F0
0F3C
1C0E
380E
700E
700E
E00E
E01C
E1E0
E03C
E00E
E00E
7007
7007
380F
180E
0F7C
03F0
ENDCHAR
STARTCHAR uni025F
ENCODING 607
SWIDTH 272 0
DWIDTH 10 0
BBX 12 27 -3 -9
BITMAP
01C0
0FC0
03C0
01C0
01C0
01C0
01C0
01C0
0FF0
01C0
01C0
01C0
01C0
01C0
01C0
01C0
01C0
01C0
01C0
01C0
01C0
0180
4180
E380
F300
FE00
1000
ENDCHAR
STARTCHAR uni0260
ENCODING 608
SWIDTH 541 0
DWIDTH 19 0
BBX 23 36 1 -9
BITMAP
0000FC
00033E
00061E
00060E
000E00
000E00
000E00
000E00
000E00
03EE00
0F7E00
181E00
300E00
700E00
700E00
600E00
E00E00
E00E00
E00E00
E00E00
F00E00
F00E00
780E00
7C1E00
3FFE00
3FCE00
0F8E00
000E00
000E00
000E00
000C00
701C00
781800
7C3800
3FE000
020000
ENDCHAR
STARTCHAR uni0261
ENCODING 609
SWIDTH 521 0
DWIDTH 19 0
BBX 15 27 1 -9
BITMAP
03E6
0F7E
181E
300E
700E
700E
600E
E00E
E00E
E00E
E00E
F00E
F00E
780E
7C1E
3FFE
3FCE
0F8E
000E
000E
000E
000C
701C
781C
7C38
3FE0
0200
ENDCHAR
STARTCHAR uni0262
ENCODING 610
SWIDTH 535 0
DWIDTH 19 0
BBX 18 18 1 0
BITMAP
03F300
0FBF00
1C0700
380300
700300
700100
F00000
F00000
F00000
F01FC0
F01F80
F00700
700700
700700
780700
3C0700
1FBE00
03F800
ENDCHAR
STARTCHAR uni0263
ENCODING 611
SWIDTH 479 0
DWIDTH 17 0
BBX 19 26 -1 -8
BITMAP
FF07E0
7F07C0
1C0180
1C0300
0E0300
0E0300
0F0600
070600
070C00
038C00
038800
03D800
01D800
01D000
00F000
00E000
00F000
00F000
00F000
01B800
013800
011800
031800
031800
01B800
01F000
ENDCHAR
STARTCHAR uni0264
ENCODING 612
SWIDTH 466 0
DWIDTH 17 0
BBX 17 18 0 0
BITMAP
3E1E00
777700
E1C300
E1C380
43E300
027000
067000
043800
0C3800
083800
083800
083800
183800
083800
083800
0C3800
06F000
03E000
ENDCHAR
STARTCHAR uni0265
ENCODING 613
SWIDTH 553 0
DWIDTH 20 0
BBX 19 26 1 -8
BITMAP
380700
F81F00
380700
380700
380700
380700
380700
380700
380700
380700
380700
380700
380700
3C0700
1C0F00
1E3F00
0FE700
078700
000700
000700
000700
000700
000700
000700
0007C0
0007E0
ENDCHAR
STARTCHAR uni0266
ENCODING 614
SWIDTH 577 0
DWIDTH 21 0
BBX 19 26 1 0
BITMAP
03F000
067C00
0C3C00
1C1800
1C0000
1C0000
1C0000
1C0000
1C7C00
1DFE00
1F0F00
1E0700
1C0700
1C0700
1C0700
1C0700
1C0700
1C0700
1C0700
1C0700
1C0700
1C0700
1C0700
3C0780
7E1FC0
FF1FE0
ENDCHAR
STARTCHAR uni0267
ENCODING 615
SWIDTH 562 0
DWIDTH 20 0
BBX 16 36 1 -9
BITMAP
03F0
06FC
0C3C
1C1C
1C00
1C00
1C00
1C00
1C00
1C7C
1DFE
1F0F
1E07
1C07
1C07
1C07
1C07
1C07
1C07
1C07
1C07
1C07
1C07
1C07
3C07
7E07
FF07
0007
0007
0007
0007
0107
03C6
03C6
01FC
0020
ENDCHAR
STARTCHAR uni0268
ENCODING 616
SWIDTH 295 0
DWIDTH 11 0
BBX 9 26 1 0
BITMAP
1C00
3C00
3C00
1C00
0000
0000
0000
0000
1C00
FC00
3C00
1C00
1C00
1C00
1C00
1C00
FF80
1C00
1C00
1C00
1C00
1C00
1C00
1C00
7F00
FF00
ENDCHAR
STARTCHAR uni0269
ENCODING 617
SWIDTH 286 0
DWIDTH 10 0
BBX 10 18 1 0
BITMAP
3800
F800
3800
3800
3800
3800
3800
3800
3800
3800
3800
3800
3800
3800
3840
3CC0
1F80
0F00
ENDCHAR
STARTCHAR uni026A
ENCODING 618
SWIDTH 287 0
DWIDTH 10 0
BBX 8 18 1 0
BITMAP
FF
7F
1C
1C
1C
1C
1C
1C
1C
1C
1C
1C
1C
1C
1C
1C
7E
FF
ENDCHAR
STARTCHAR uni026B
ENCODING 619
SWIDTH 290 0
DWIDTH 10 0
BBX 11 26 0 0
BITMAP
0E00
7E00
1E00
0E00
0E00
0E00
0E00
0E00
0E00
0E00
0E20
7E40
FFC0
8F80
8E00
0E00
0E00
0E00
0E00
0E00
0E00
0E00
0E00
0E00
3F80
7F80
ENDCHAR
STARTCHAR uni026C
ENCODING 620
SWIDTH 318 0
DWIDTH 11 0
BBX 12 26 0 0
BITMAP
0700
3F00
0700
0700
0700
0700
0700
0700
3F00
7700
C700
C700
C710
C720
E7E0
7FC0
3F00
0700
0700
0700
0700
0700
0700
0700
1FC0
3FC0
ENDCHAR
STARTCHAR uni026D
ENCODING 621
SWIDTH 248 0
DWIDTH 9 0
BBX 13 36 0 -9
BITMAP
0400
3C00
FC00
1C00
1C00
1C00
1C00
1C00
1C00
1C00
1C00
1C00
1C00
1C00
1C00
1C00
1C00
1C00
1C00
1C00
1C00
1C00
1C00
1C00
1C00
1C00
1C00
1C00
1C00
1C00
1C00
1C10
0C38
0E78
07F0
0080
ENDCHAR
STARTCHAR uni026E
ENCODING 622
SWIDTH 590 0
DWIDTH 21 0
BBX 20 36 1 -9
BITMAP
040000
7C0000
FC0000
3C0000
1C0000
1C0000
1C0000
1C0000
1C0000
1FFFE0
1C01E0
1C03C0
1C0380
1C0780
1C0F00
1C0E00
1C1E00
1C3C00
1C3800
1C7800
1C7C00
1C0F80
1C03C0
1C01E0
3C00E0
7F00E0
FF00F0
0000F0
0000F0
0000F0
0000E0
0700E0
0781C0
078780
03FE00
006000
ENDCHAR
STARTCHAR uni026F
ENCODING 623
SWIDTH 846 0
DWIDTH 30 0
BBX 28 18 1 0
BITMAP
380E01C0
F83E0FC0
380E01C0
380E01C0
380E01C0
380E01C0
380E01C0
380E01C0
380E01C0
380E01C0
380E01C0
380E01C0
380E01C0
380F01C0
1C1F03C0
1E378DC0
1FE3F9F0
0781E1C0
ENDCHAR
STARTCHAR uni0270
ENCODING 624
SWIDTH 826 0
DWIDTH 30 0
BBX 29 26 1 -8
BITMAP
380E01C0
F83E0FC0
380E01C0
380E01C0
380E01C0
380E01C0
380E01C0
380E01C0
380E01C0
380E01C0
380E01C0
380E01C0
380E01C0
380F01C0
1C1F03C0
1E378DC0
1FE3F9C0
0781E1C0
000001C0
000001C0
000001C0
000001C0
000001C0
000001C0
000001F0
000001F8
ENDCHAR
STARTCHAR uni0271
ENCODING 625
SWIDTH 835 0
DWIDTH 30 0
BBX 26 27 1 -9
BITMAP
1C7C1F00
FCFE3F80
3F8FE3C0
1E0781C0
1C0701C0
1C0701C0
1C0701C0
1C0701C0
1C0701C0
1C0701C0
1C0701C0
1C0701C0
1C0701C0
1C0701C0
1C0701C0
1C0701C0
7F1FC1C0
FF3FE1C0
000001C0
000001C0
000001C0
000001C0
000061C0
0000F180
0000F380
00007F00
00001800
ENDCHAR
STARTCHAR uni0272
ENCODING 626
SWIDTH 574 0
DWIDTH 21 0
BBX 23 27 -3 -9
BITMAP
01C7C0
0FCFE0
03F0F0
01E070
01C070
01C070
01C070
01C070
01C070
01C070
01C070
01C070
01C070
01C070
01C070
01C070
01C1FC
01C1FE
01C000
01C000
018000
018000
438000
E38000
F30000
FE0000
100000
ENDCHAR
STARTCHAR uni0273
ENCODING 627
SWIDTH 563 0
DWIDTH 20 0
BBX 23 27 1 -9
BITMAP
1C7C00
FCFE00
3F1F00
1E0700
1C0700
1C0700
1C0700
1C0700
1C0700
1C0700
1C0700
1C0700
1C0700
1C0700
1C0700
1C0700
7F0700
FF0700
000700
000700
000700
000300
000304
00038E
00019E
0000FC
000010
ENDCHAR
STARTCHAR uni0274
ENCODING 628
SWIDTH 568 0
DWIDTH 20 0
BBX 19 18 1 0
BITMAP
F80FE0
FC07C0
3E0380
3F0100
3F0100
378100
33C100
33E100
31E100
30F100
307900
303D00
301F00
301F00
300F00
300700
FC0300
FC0100
ENDCHAR
STARTCHAR uni0275
ENCODING 629
SWIDTH 514 0
DWIDTH 19 0
BBX 16 18 1 0
BITMAP
07E0
1F78
381C
380E
700F
7007
F007
F007
FFFF
F007
F007
F007
7007
700E
380E
3C1C
1F78
07E0
ENDCHAR
STARTCHAR uni0276
ENCODING 630
SWIDTH 732 0
DWIDTH 26 0
BBX 24 18 1 0
BITMAP
03FFFE
1F7C1E
3C1C06
381C02
701C02
701C00
F01C08
F01C18
F01FF8
F01C18
F01C08
F01C08
701C00
701C01
381C03
381C03
1F7C1F
07FFFE
ENDCHAR
STARTCHAR uni0277
ENCODING 631
SWIDTH 672 0
DWIDTH 24 0
BBX 22 18 1 0
BITMAP
01FE00
07CF80
0E01E0
1C0070
380070
700038
701038
F0783C
F0781C
F0781C
F0781C
F0381C
F0303C
703038
703038
386870
1ECEF0
0F87C0
ENDCHAR
STARTCHAR uni0278
ENCODING 632
SWIDTH 658 0
DWIDTH 24 0
BBX 21 35 1 -8
BITMAP
001000
00F000
01F000
007000
007000
007000
007000
007000
007000
03FF00
0F77C0
1C71E0
3870F0
707078
707038
707038
F07038
F07038
F07038
F07038
F07038
707038
707070
387070
3C70E0
1F73C0
07FF00
007000
007000
007000
007000
007000
007000
01FC00
01FE00
ENDCHAR
STARTCHAR uni0279
ENCODING 633
SWIDTH 380 0
DWIDTH 14 0
BBX 13 18 0 0
BITMAP
0FF8
07F0
01C0
01C0
01C0
01C0
01C0
01C0
01C0
01C0
01C0
01C0
01C0
03C0
67C0
FDE0
F9F0
71C0
ENDCHAR
STARTCHAR uni027A
ENCODING 634
SWIDTH 374 0
DWIDTH 13 0
BBX 12 27 0 0
BITMAP
0040
07C0
0FC0
01C0
01C0
01C0
01C0
01C0
01C0
01C0
01C0
01C0
01C0
01C0
01C0
01C0
01C0
01C0
01C0
01C0
01C0
01C0
03C0
67C0
FDC0
F9F0
71C0
ENDCHAR
STARTCHAR uni027B
ENCODING 635
SWIDTH 375 0
DWIDTH 14 0
BBX 17 27 0 -9
BITMAP
0FF800
07F000
01C000
01C000
01C000
01C000
01C000
01C000
01C000
01C000
01C000
01C000
01C000
03C000
67C000
FDC000
F9C000
71C000
01C000
01C000
01C000
01C000
00C300
00C380
006780
003F00
000400
ENDCHAR
STARTCHAR uni027C
ENCODING 636
SWIDTH 378 0
DWIDTH 14 0
BBX 12 26 1 -8
BITMAP
1C70
FDF0
3DF0
1E70
1C00
1C00
1C00
1C00
1C00
1C00
1C00
1C00
1C00
1C00
1C00
1C00
1C00
1C00
1C00
1C00
1C00
1C00
1C00
3C00
7F00
FF80
ENDCHAR
STARTCHAR uni027D
ENCODING 637
SWIDTH 373 0
DWIDTH 13 0
BBX 12 27 1 -9
BITMAP
18F0
F9F0
3BF0
3A70
3C00
3C00
3800
3800
3800
3800
3800
3800
3800
3800
3800
3800
3800
3800
3800
3800
1800
1800
1C20
1C70
0CF0
07F0
0080
ENDCHAR
STARTCHAR uni027E
ENCODING 638
SWIDTH 371 0
DWIDTH 13 0
BBX 12 18 1 0
BITMAP
03E0
06F0
0C70
1C20
1C00
1800
3800
3800
3800
3800
3800
3800
3800
3800
3C00
3C00
7F00
FF80
ENDCHAR
STARTCHAR uni027F
ENCODING 639
SWIDTH 371 0
DWIDTH 13 0
BBX 13 18 0 0
BITMAP
7C00
FF00
F180
4180
0180
01C0
01C0
01C0
01C0
01C0
01C0
01C0
01C0
01C0
01C0
01C0
07F0
0FF8
ENDCHAR
STARTCHAR uni0280
ENCODING 640
SWIDTH 494 0
DWIDTH 18 0
BBX 17 18 1 0
BITMAP
FFE000
3C7800
1C1C00
1C1C00
1C1C00
1C1C00
1C1C00
1C3800
1C7000
1FC000
1DE000
1CE000
1C7000
1C7800
1C3C00
1C1E00
7E1F80
FF0F80
ENDCHAR
STARTCHAR uni0281
ENCODING 641
SWIDTH 494 0
DWIDTH 18 0
BBX 17 18 1 0
BITMAP
FF0F80
7E1F80
1C1E00
1C3C00
1C7800
1C7000
1CF000
1DE000
1FC000
1CF000
1C3800
1C1C00
1C1C00
1C1C00
1C1C00
1C1C00
3CF800
FFE000
ENDCHAR
STARTCHAR uni0282
ENCODING 642
SWIDTH 395 0
DWIDTH 14 0
BBX 12 27 1 -9
BITMAP
1FA0
3BE0
6060
6060
E020
F020
7800
7E00
3F80
0FC0
03E0
00F0
C070
C070
C070
E070
F9E0
DF80
4000
4000
4000
4000
4000
4300
6700
3F00
0800
ENDCHAR
STARTCHAR uni0283
ENCODING 643
SWIDTH 253 0
DWIDTH 9 0
BBX 17 36 -4 -9
BITMAP
003F00
006F80
00C380
00C380
01C000
01C000
01C000
01C000
01C000
01C000
01C000
01C000
01C000
01C000
01C000
01C000
01C000
01C000
01C000
01C000
01C000
01C000
01C000
01C000
01C000
01C000
01C000
01C000
01C000
01C000
01C000
41C000
E18000
F18000
7F0000
080000
ENDCHAR
STARTCHAR uni0284
ENCODING 644
SWIDTH 286 0
DWIDTH 10 0
BBX 16 35 -3 -9
BITMAP
003E
006F
00C7
01C2
01C0
01C0
01C0
01C0
01C0
01C0
01C0
01C0
01C0
01C0
01C0
01C0
01C0
01C0
01C0
01C0
01C0
01C0
01C0
01C0
01C0
0FF8
01C0
01C0
0180
0180
0380
E380
F300
FE00
1000
ENDCHAR
STARTCHAR uni0285
ENCODING 645
SWIDTH 361 0
DWIDTH 13 0
BBX 17 27 0 -9
BITMAP
3E0000
7B0000
E18000
618000
01C000
01C000
01C000
01C000
01C000
01C000
01C000
01C000
01C000
01C000
01C000
01C000
01C000
01C000
01C000
01C000
01C000
01C000
01C100
00C380
00C780
007F00
000800
ENDCHAR
STARTCHAR uni0286
ENCODING 646
SWIDTH 253 0
DWIDTH 9 0
BBX 16 36 -3 -9
BITMAP
007E
00DF
0187
0187
0380
0380
0380
0380
0380
0380
0380
0380
0380
0380
0380
0380
0380
0380
0380
0380
0380
0380
0380
0380
0380
0380
0380
0380
3F80
63C0
C3F0
8390
8300
C700
7E00
1000
ENDCHAR
STARTCHAR uni0287
ENCODING 647
SWIDTH 315 0
DWIDTH 11 0
BBX 10 23 0 -5
BITMAP
3E00
7E00
4F00
8700
0700
0700
0700
0700
0700
0700
0700
0700
0700
0700
0700
0700
0700
7FC0
0780
0700
0600
0600
0400
ENDCHAR
STARTCHAR uni0288
ENCODING 648
SWIDTH 309 0
DWIDTH 11 0
BBX 12 32 1 -9
BITMAP
0800
0800
1800
1800
3800
7FC0
B800
3800
3800
3800
3800
3800
3800
3800
3800
3800
3800
3800
3800
3800
3800
3800
3800
3800
1800
1800
1C00
1C20
1C70
0CF0
07F0
0080
ENDCHAR
STARTCHAR uni0289
ENCODING 649
SWIDTH 580 0
DWIDTH 21 0
BBX 19 18 1 0
BITMAP
F83F00
F83F00
380700
380700
380700
380700
380700
FFFFE0
380700
380700
380700
3C0700
3C0700
1C0700
1C0F00
1E3F00
0FE7E0
07C780
ENDCHAR
STARTCHAR uni028A
ENCODING 650
SWIDTH 548 0
DWIDTH 20 0
BBX 16 18 2 0
BITMAP
FC3F
783C
1818
3008
300C
600E
6006
E007
E007
E007
E007
E007
E007
E00F
700E
781C
3EF8
0FE0
ENDCHAR
STARTCHAR uni028B
ENCODING 651
SWIDTH 530 0
DWIDTH 19 0
BBX 16 18 1 0
BITMAP
F80C
F80E
380F
3807
3807
3803
3803
3801
3801
3801
3801
3801
3803
3C02
1C06
1E1C
0FF8
07E0
ENDCHAR
STARTCHAR uni028C
ENCODING 652
SWIDTH 495 0
DWIDTH 18 0
BBX 18 18 0 0
BITMAP
00C000
01C000
01E000
01E000
03E000
027000
067000
067800
043800
0C3800
0C1C00
181C00
181E00
100E00
300E00
300F00
F81F80
FC3FC0
ENDCHAR
STARTCHAR uni028D
ENCODING 653
SWIDTH 764 0
DWIDTH 28 0
BBX 28 18 0 0
BITMAP
00C03000
01C07000
01C07000
01E0F800
03E0B800
02F0BC00
06719C00
06711C00
043B1E00
0C3B0E00
0C3A0E00
181E0700
181C0700
181E0780
300E0380
300E03C0
F81F87E0
FC3FCFF0
ENDCHAR
STARTCHAR uni028E
ENCODING 654
SWIDTH 492 0
DWIDTH 18 0
BBX 18 27 0 0
BITMAP
000780
001F80
001F80
003380
006000
006000
004000
00C000
00C000
01C000
01C000
01C000
03E000
02E000
02E000
067000
067000
047800
0C3800
0C3C00
181C00
181E00
180E00
300F00
300F00
781FC0
FC3FC0
ENDCHAR
STARTCHAR uni028F
ENCODING 655
SWIDTH 454 0
DWIDTH 16 0
BBX 18 18 -1 0
BITMAP
FF0FC0
7E0780
3C0300
1C0200
0E0400
070C00
070800
039800
03D000
01E000
00E000
00E000
00E000
00E000
00E000
00E000
03F800
07FC00
ENDCHAR
STARTCHAR uni0290
ENCODING 656
SWIDTH 458 0
DWIDTH 16 0
BBX 20 27 1 -9
BITMAP
7FFC00
783C00
603800
407800
40F000
00E000
01E000
03C000
038000
078000
0F0000
0E0000
1E0400
3C0400
380C00
780C00
F07C00
FFFC00
000C00
000C00
000C00
000C00
000400
000430
000670
0003E0
000080
ENDCHAR
STARTCHAR uni0291
ENCODING 657
SWIDTH 458 0
DWIDTH 16 0
BBX 15 24 1 -6
BITMAP
7FFC
783C
6038
4078
40F0
00E0
01E0
03C0
0380
0780
0F00
0E00
1E3C
3C66
38C2
7986
F10C
FFF8
0200
0600
0400
0C00
0800
1800
ENDCHAR
STARTCHAR uni0292
ENCODING 658
SWIDTH 443 0
DWIDTH 16 0
BBX 14 27 1 -9
BITMAP
7FFC
F038
C078
C0F0
C0E0
01E0
03C0
0380
0780
0F00
0E00
1F80
01E0
0078
0038
003C
001C
001C
001C
001C
001C
401C
E038
E038
F0F0
7FC0
0800
ENDCHAR
STARTCHAR uni0293
ENCODING 659
SWIDTH 443 0
DWIDTH 16 0
BBX 14 31 1 -13
BITMAP
7FFC
F038
C078
C0F0
C0E0
01E0
03C0
0380
0780
0F00
0E00
1F80
01E0
0078
0038
003C
001C
001C
001C
781C
EC1C
C61C
C238
4170
79E0
1FC0
00C0
0040
0060
0020
0030
ENDCHAR
STARTCHAR uni0294
ENCODING 660
SWIDTH 383 0
DWIDTH 14 0
BBX 13 26 1 0
BITMAP
1FC0
71E0
E070
E070
E070
4078
0078
0078
0078
0070
0070
00E0
01C0
0780
1C00
1C00
1C00
1C00
1C00
1C00
1C00
1C00
1C00
3C00
7F00
FF80
ENDCHAR
STARTCHAR uni0295
ENCODING 661
SWIDTH 383 0
DWIDTH 14 0
BBX 13 26 0 0
BITMAP
0FC0
3CF0
7070
7038
E038
E030
E000
E000
E000
F000
7000
3800
1C00
0E00
01C0
01C0
01C0
01C0
01C0
01C0
01C0
01C0
01C0
01C0
07F0
0FF8
ENDCHAR
STARTCHAR uni0296
ENCODING 662
SWIDTH 408 0
DWIDTH 15 0
BBX 13 27 1 0
BITMAP
0400
7C00
FC00
1C00
1C00
1C00
1C00
1C00
1C00
1C00
1C00
1C00
1E00
0380
01E0
00E0
0070
0070
0078
0078
0038
E078
E070
E070
E060
70E0
1F80
ENDCHAR
STARTCHAR uni0297
ENCODING 663
SWIDTH 437 0
DWIDTH 16 0
BBX 14 25 1 -7
BITMAP
03E0
0EF8
1838
383C
301C
7008
7000
6000
E000
E000
E000
E000
E000
E000
E000
E000
F000
7000
7000
7804
380C
3E18
1FF8
0FF0
03C0
ENDCHAR
STARTCHAR uni0298
ENCODING 664
SWIDTH 736 0
DWIDTH 27 0
BBX 24 26 1 0
BITMAP
007F00
03F7C0
0700F0
0E0078
1C003C
38001C
38000E
70000E
70000F
F00007
F01C07
F03C07
F03E07
F03C07
F01C07
F00007
700007
70000F
70000E
38000E
38001C
1C003C
0E0078
0700F0
03F7C0
007F00
ENDCHAR
STARTCHAR uni0299
ENCODING 665
SWIDTH 485 0
DWIDTH 17 0
BBX 15 18 1 0
BITMAP
FFE0
3CF8
1C1C
1C1C
1C1C
1C1C
1C1C
1C38
1FE0
1CF8
1C1C
1C0E
1C0E
1C0E
1C0E
1C1E
3C7C
FFF0
ENDCHAR
STARTCHAR uni029A
ENCODING 666
SWIDTH 500 0
DWIDTH 18 0
BBX 16 18 1 0
BITMAP
0FC0
3CF0
7038
701C
700E
700E
7007
3807
0787
3C07
7007
7007
E00E
E00E
F01C
7018
3EF0
0FC0
ENDCHAR
STARTCHAR uni029B
ENCODING 667
SWIDTH 536 0
DWIDTH 19 0
BBX 22 24 1 0
BITMAP
0000F8
0001FC
00011C
000308
000300
000300
03F300
0FBF00
1C0700
380300
700300
700100
F00000
F00000
F00000
F01FC0
F01F80
F00700
700700
700700
380700
3C0700
1FBE00
07F800
ENDCHAR
STARTCHAR uni029C
ENCODING 668
SWIDTH 599 0
DWIDTH 22 0
BBX 19 18 1 0
BITMAP
FF1FE0
7F0FE0
1C0380
1C0380
1C0380
1C0380
1C0380
1C0380
1FFF80
1C0380
1C0380
1C0380
1C0380
1C0380
1C0380
1C0380
7E0FE0
FF1FE0
ENDCHAR
STARTCHAR uni029D
ENCODING 669
SWIDTH 263 0
DWIDTH 9 0
BBX 13 33 -3 -9
BITMAP
0180
03C0
03C0
0180
0000
0000
03C0
0FC0
03C0
01C0
01C0
01C0
01C0
01C0
01C0
01C0
01C0
01C0
01C0
01C0
01C0
01C0
01C0
01C0
01C0
1FC0
71E0
41B0
C398
C380
4300
7E00
0800
ENDCHAR
STARTCHAR uni029E
ENCODING 670
SWIDTH 542 0
DWIDTH 20 0
BBX 19 26 0 -8
BITMAP
FF3FC0
7E1FC0
1E0700
0F0700
078700
038700
03C700
01E700
00F700
007F00
003700
006700
00C700
018700
030700
070700
3F0700
7F8700
000700
000700
000700
000700
000700
000700
0007C0
0007E0
ENDCHAR
STARTCHAR uni029F
ENCODING 671
SWIDTH 440 0
DWIDTH 16 0
BBX 14 18 1 0
BITMAP
FF00
7E00
3800
3800
3800
3800
3800
3800
3800
3800
3800
3800
3800
3804
380C
380C
3C3C
FFFC
ENDCHAR
STARTCHAR uni02A0
ENCODING 672
SWIDTH 541 0
DWIDTH 19 0
BBX 23 34 1 -8
BITMAP
0001FC
00033E
00061E
00060E
000E00
000E00
000E00
000E00
03EE00
0F7E00
181E00
300E00
700E00
700E00
600E00
E00E00
E00E00
E00E00
E00E00
F00E00
F00E00
780E00
7C1E00
3FFE00
3FCE00
0F8E00
000E00
000E00
000E00
000E00
000E00
000E00
007F00
007F80
ENDCHAR
STARTCHAR uni02A1
ENCODING 673
SWIDTH 393 0
DWIDTH 14 0
BBX 13 26 1 0
BITMAP
1FC0
79E0
6070
E070
E038
6038
0038
0038
0038
0070
0070
00E0
01C0
0380
1E00
1C00
1C00
1C00
FFC0
1C00
1C00
1C00
1C00
1C00
7F00
FF80
ENDCHAR
STARTCHAR uni02A2
ENCODING 674
SWIDTH 393 0
DWIDTH 14 0
BBX 13 26 0 0
BITMAP
0FE0
3C70
3038
7038
7038
F030
E000
E000
F000
7000
7000
3800
1C00
0E00
03C0
01C0
01C0
01C0
1FF8
01C0
01C0
01C0
01C0
01E0
07F0
0FF8
ENDCHAR
STARTCHAR uni02A3
ENCODING 675
SWIDTH 830 0
DWIDTH 30 0
BBX 28 27 1 0
BITMAP
00020000
001E0000
007E0000
000E0000
000E0000
000E0000
000E0000
000E0000
000E0000
03FFFFF0
0F7E00E0
181E01E0
300E03C0
700E0380
700E0780
600E0F00
E00E0E00
E00E1E00
E00E3C00
E00E3800
F00E7800
F00EF030
780EE030
7C1FE030
3FFFC060
3FCFFFE0
0F8FFFE0
ENDCHAR
STARTCHAR uni02A4
ENCODING 676
SWIDTH 838 0
DWIDTH 30 0
BBX 29 36 1 -9
BITMAP
00020000
001E0000
007E0000
000E0000
000E0000
000E0000
000E0000
000E0000
000E0000
03FFFFF0
0F7E00F0
181E01E0
300E01C0
700E03C0
700E0780
600E0700
E00E0F00
E00E1E00
E00E1C00
E00E3C00
F00E3E00
F00E07C0
780E01E0
7C1E00F0
3FFE0070
3FCFC070
0F8E0070
00000078
00000070
00000070
00000070
000380E0
000380E0
0003C1C0
0001FF00
00002000
ENDCHAR
STARTCHAR uni02A5
ENCODING 677
SWIDTH 829 0
DWIDTH 30 0
BBX 28 33 1 -6
BITMAP
00020000
001E0000
007E0000
000E0000
000E0000
000E0000
000E0000
000E0000
000E0000
03FFFFF0
0F7E00E0
181E01E0
300E03C0
700E03C0
700E0780
600E0F00
E00E0F00
E00E1E00
E00E3C00
E00E3C00
F00E7800
F00EF1F0
780EF330
7C1FE610
3FFFC410
3FCFCC70
0F8FFFC0
00001000
00003000
00002000
00006000
00004000
00004000
ENDCHAR
STARTCHAR uni02A6
ENCODING 678
SWIDTH 614 0
DWIDTH 22 0
BBX 20 23 1 0
BITMAP
080000
080000
180000
180000
380000
7FFFA0
B87BE0
386060
38E060
38E020
38F020
387800
383E00
381F80
380FC0
3803E0
3800F0
380070
380070
1C0070
1E00E0
0FCFC0
03FF00
ENDCHAR
STARTCHAR uni02A7
ENCODING 679
SWIDTH 513 0
DWIDTH 18 0
BBX 21 36 1 -9
BITMAP
0001F0
000678
000638
000E18
080C00
080C00
180C00
181C00
381C00
FFFC00
381C00
381C00
381C00
381C00
381C00
381C00
381C00
381C00
381C00
381C00
381C00
381C00
381C00
385C00
1CDC00
1F9C00
0F1C00
001C00
001C00
001C00
001C00
061C00
071C00
071800
07F000
008000
ENDCHAR
STARTCHAR uni02A8
ENCODING 680
SWIDTH 687 0
DWIDTH 25 0
BBX 23 23 1 0
BITMAP
080000
080000
180000
180000
380000
7F83F0
B80F7C
38183C
38381C
38300C
387000
387000
387000
387000
387000
387000
387078
3879CC
383B06
383C06
1C1E04
1EFF98
0F83F0
ENDCHAR
STARTCHAR uni02A9
ENCODING 681
SWIDTH 866 0
DWIDTH 31 0
BBX 27 36 1 -9
BITMAP
03E00000
06F00000
0C780000
1C300000
1C000000
1C000000
1C000000
1C000000
1C000000
FFFF8F80
1C079FC0
1C03E1E0
1C03C0E0
1C0380E0
1C0380E0
1C0380E0
1C0380E0
1C0380E0
1C0380E0
1C0380E0
1C0380E0
1C0380E0
1C0380E0
1C0380E0
3C0380E0
FF0FE0E0
FF9FE0E0
000000E0
000000E0
000000E0
000000E0
000020E0
000078C0
000078C0
00003F80
00000400
ENDCHAR
STARTCHAR uni02AA
ENCODING 682
SWIDTH 595 0
DWIDTH 21 0
BBX 20 27 0 0
BITMAP
040000
7C0000
FC0000
1C0000
1C0000
1C0000
1C0000
1C0000
1C0000
1C0FB0
1C39F0
1C7070
1C6030
1C6030
1C7030
1C7C00
1C3E00
1C1F80
1C0FE0
1C03F0
1C00F0
1C0070
1C0070
1C0070
0E00F0
0FCFC0
01FF00
ENDCHAR
STARTCHAR uni02AB
ENCODING 683
SWIDTH 580 0
DWIDTH 21 0
BBX 18 26 1 0
BITMAP
1C0000
FC0000
3C0000
1C0000
1C0000
1C0000
1C0000
1C0000
1FFFC0
1C03C0
1C0380
1C0780
1C0700
1C0E00
1C1E00
1C1C00
1C3C00
1C3800
1C7000
1CF000
1CE040
1DE040
1DC0C0
1F80C0
3FFFC0
FFFFC0
ENDCHAR
STARTCHAR uni02AC
ENCODING 684
SWIDTH 599 0
DWIDTH 22 0
BBX 21 27 0 0
BITMAP
FCFC78
787830
383020
183820
1C3860
1C3C40
0E5C40
0E4C80
06CE80
078F80
078700
030700
000000
000000
FCFC78
787838
383020
183820
1C3860
1C3840
0C5C40
0E4CC0
064E80
078E80
078700
038700
030700
ENDCHAR
STARTCHAR uni02AD
ENCODING 685
SWIDTH 479 0
DWIDTH 17 0
BBX 12 24 3 0
BITMAP
FFF0
FFF0
FFF0
C030
C030
C030
C030
C030
C030
C030
C030
0000
0000
FFF0
FFF0
FFF0
C030
C030
C030
C030
C030
C030
C030
C030
ENDCHAR
STARTCHAR uni02AE
ENCODING 686
SWIDTH 595 0
DWIDTH 21 0
BBX 22 26 -1 -8
BITMAP
7C0070
F603F0
E300F0
430070
038070
038070
038070
038070
038070
038070
038070
038070
038070
038070
03C0F0
01E370
01FE70
007870
000070
000070
000070
000070
000070
000070
000078
00007C
ENDCHAR
STARTCHAR uni02AF
ENCODING 687
SWIDTH 600 0
DWIDTH 22 0
BBX 26 27 -1 -9
BITMAP
7C007000
F603F000
E300F000
43007000
03807000
03807000
03807000
03807000
03807000
03807000
03807000
03807000
03807000
03807000
03C0F000
01E37000
01FE7000
00787000
00007000
00007000
00007000
00007000
000070C0
000071C0
000033C0
00001FC0
00000200
ENDCHAR
STARTCHAR uni02B0
ENCODING 688
SWIDTH 488 0
DWIDTH 18 0
BBX 16 20 1 9
BITMAP
7800
F800
3800
3800
3800
3800
39F0
3BF8
3C38
3818
381C
381C
381C
381C
381C
381C
381C
381C
381C
FE7F
ENDCHAR
STARTCHAR uni02B1
ENCODING 689
SWIDTH 488 0
DWIDTH 18 0
BBX 16 21 1 9
BITMAP
07E0
0CF0
1870
3800
3800
3800
3800
39F0
3BF8
3C38
3818
381C
381C
381C
381C
381C
381C
381C
381C
381C
FE7F
ENDCHAR
STARTCHAR uni02B2
ENCODING 690
SWIDTH 222 0
DWIDTH 8 0
BBX 9 26 -3 3
BITMAP
0380
0380
0380
0000
0000
0000
0F80
0F80
0380
0380
0380
0380
0380
0380
0380
0380
0380
0380
0380
0380
0380
0380
0380
6300
F300
7E00
ENDCHAR
STARTCHAR uni02B3
ENCODING 691
SWIDTH 325 0
DWIDTH 12 0
BBX 10 14 1 9
BITMAP
F9C0
7BC0
3CC0
3800
3800
3800
3800
3800
3800
3800
3800
3800
3800
FE00
ENDCHAR
STARTCHAR uni02B4
ENCODING 692
SWIDTH 325 0
DWIDTH 12 0
BBX 10 14 1 9
BITMAP
1FC0
0780
0300
0300
0300
0300
0300
0300
0300
0300
0700
EB00
F380
E3C0
ENDCHAR
STARTCHAR uni02B5
ENCODING 693
SWIDTH 325 0
DWIDTH 12 0
BBX 13 18 1 5
BITMAP
1FC0
0780
0300
0300
0300
0300
0300
0300
0300
0300
0700
EB00
F300
E300
0300
0300
0198
00F8
ENDCHAR
STARTCHAR uni02B6
ENCODING 694
SWIDTH 443 0
DWIDTH 16 0
BBX 15 14 1 9
BITMAP
FE3E
3838
3870
38E0
39C0
3980
3F00
38E0
3870
3870
3870
3870
38F0
FFC0
ENDCHAR
STARTCHAR uni02B7
ENCODING 695
SWIDTH 653 0
DWIDTH 24 0
BBX 23 14 0 9
BITMAP
FCFE3E
78380C
381808
381C18
1C1C18
1C1E10
0C2E30
0E2620
0E6720
074760
074340
0383C0
038380
038180
ENDCHAR
STARTCHAR uni02B8
ENCODING 696
SWIDTH 427 0
DWIDTH 15 0
BBX 15 20 0 3
BITMAP
FE3E
780C
3808
1818
1C10
1C10
0E30
0E20
0720
0740
0340
03C0
0180
0180
0100
0300
0300
7600
7C00
7800
ENDCHAR
STARTCHAR uni02B9
ENCODING 697
SWIDTH 296 0
DWIDTH 11 0
BBX 6 11 2 15
BITMAP
0C
1C
1C
3C
38
38
30
70
60
60
C0
ENDCHAR
STARTCHAR uni02BA
ENCODING 698
SWIDTH 456 0
DWIDTH 16 0
BBX 12 11 2 15
BITMAP
0C70
1C70
1CF0
3CE0
38E0
38C0
31C0
7180
6180
6300
C300
ENDCHAR
STARTCHAR uni02BB
ENCODING 699
SWIDTH 245 0
DWIDTH 9 0
BBX 5 9 2 17
BITMAP
18
30
60
C0
C0
F8
F8
F8
70
ENDCHAR
STARTCHAR uni02BC
ENCODING 700
SWIDTH 244 0
DWIDTH 9 0
BBX 5 9 2 17
BITMAP
F0
F0
F8
F8
18
10
30
60
80
ENDCHAR
STARTCHAR uni02BD
ENCODING 701
SWIDTH 244 0
DWIDTH 9 0
BBX 5 9 2 17
BITMAP
70
F8
F8
F8
C0
C0
60
30
18
ENDCHAR
STARTCHAR uni02BE
ENCODING 702
SWIDTH 203 0
DWIDTH 7 0
BBX 5 7 1 19
BITMAP
F0
38
18
18
18
18
F0
ENDCHAR
STARTCHAR uni02BF
ENCODING 703
SWIDTH 203 0
DWIDTH 7 0
BBX 5 7 1 19
BITMAP
38
E0
C0
C0
C0
E0
78
ENDCHAR
STARTCHAR uni02C0
ENCODING 704
SWIDTH 364 0
DWIDTH 13 0
BBX 10 13 2 13
BITMAP
7E00
F780
E380
C1C0
01C0
01C0
01C0
0180
0380
0F00
3C00
3800
3800
ENDCHAR
STARTCHAR uni02C1
ENCODING 705
SWIDTH 364 0
DWIDTH 13 0
BBX 11 13 1 13
BITMAP
1F80
3BC0
71E0
E0C0
E000
E000
E000
7000
7000
3C00
0700
0700
0700
ENDCHAR
STARTCHAR uni02C2
ENCODING 706
SWIDTH 324 0
DWIDTH 12 0
BBX 9 12 1 16
BITMAP
0080
0080
0380
0F00
1C00
7800
E000
7800
1E00
0700
0380
0080
ENDCHAR
STARTCHAR uni02C3
ENCODING 707
SWIDTH 324 0
DWIDTH 12 0
BBX 9 12 1 16
BITMAP
8000
C000
F000
3800
1E00
0780
0380
0700
1E00
7800
E000
C000
ENDCHAR
STARTCHAR uni02C4
ENCODING 708
SWIDTH 324 0
DWIDTH 12 0
BBX 12 10 0 18
BITMAP
0400
0600
0E00
0F00
1B80
3980
30C0
70C0
6060
C070
ENDCHAR
STARTCHAR uni02C5
ENCODING 709
SWIDTH 324 0
DWIDTH 12 0
BBX 12 10 0 18
BITMAP
C030
E060
60E0
30C0
31C0
1980
1F00
0F00
0E00
0600
ENDCHAR
STARTCHAR circumflex
ENCODING 710
SWIDTH 342 0
DWIDTH 12 0
BBX 10 6 1 19
BITMAP
0C00
1E00
1F00
3300
6180
C0C0
ENDCHAR
STARTCHAR caron
ENCODING 711
SWIDTH 342 0
DWIDTH 12 0
BBX 10 6 1 19
BITMAP
8040
60C0
7180
3B00
1E00
0E00
ENDCHAR
STARTCHAR uni02C8
ENCODING 712
SWIDTH 284 0
DWIDTH 10 0
BBX 2 10 4 17
BITMAP
C0
C0
C0
C0
C0
C0
C0
C0
C0
C0
ENDCHAR
STARTCHAR uni02C9
ENCODING 713
SWIDTH 350 0
DWIDTH 13 0
BBX 11 2 1 21
BITMAP
FFE0
FFE0
ENDCHAR
STARTCHAR uni02CA
ENCODING 714
SWIDTH 222 0
DWIDTH 8 0
BBX 6 6 1 19
BITMAP
1C
3C
38
70
60
C0
ENDCHAR
STARTCHAR uni02CB
ENCODING 715
SWIDTH 222 0
DWIDTH 8 0
BBX 6 6 1 19
BITMAP
E0
F0
70
38
18
0C
ENDCHAR
STARTCHAR uni02CC
ENCODING 716
SWIDTH 284 0
DWIDTH 10 0
BBX 2 10 4 -7
BITMAP
C0
C0
C0
C0
C0
C0
C0
C0
C0
C0
ENDCHAR
STARTCHAR uni02CD
ENCODING 717
SWIDTH 342 0
DWIDTH 12 0
BBX 12 2 0 -6
BITMAP
FFF0
FFF0
ENDCHAR
STARTCHAR uni02CE
ENCODING 718
SWIDTH 222 0
DWIDTH 8 0
BBX 6 6 1 -7
BITMAP
E0
F0
70
38
18
0C
ENDCHAR
STARTCHAR uni02CF
ENCODING 719
SWIDTH 223 0
DWIDTH 8 0
BBX 6 6 1 -7
BITMAP
1C
3C
38
70
60
C0
ENDCHAR
STARTCHAR uni02D0
ENCODING 720
SWIDTH 341 0
DWIDTH 12 0
BBX 6 17 3 1
BITMAP
FC
7C
78
78
30
30
00
00
00
00
00
30
30
78
78
78
FC
ENDCHAR
STARTCHAR uni02D1
ENCODING 721
SWIDTH 341 0
DWIDTH 12 0
BBX 6 6 3 11
BITMAP
FC
7C
78
78
30
30
ENDCHAR
STARTCHAR uni02D2
ENCODING 722
SWIDTH 341 0
DWIDTH 12 0
BBX 7 11 3 3
BITMAP
F0
F8
1C
0C
06
06
06
0E
1C
F8
F0
ENDCHAR
STARTCHAR uni02D3
ENCODING 723
SWIDTH 341 0
DWIDTH 12 0
BBX 8 11 2 3
BITMAP
0F
3F
70
60
60
E0
60
60
70
3F
1F
ENDCHAR
STARTCHAR uni02D4
ENCODING 724
SWIDTH 341 0
DWIDTH 12 0
BBX 8 7 2 6
BITMAP
18
18
18
18
18
FF
FF
ENDCHAR
STARTCHAR uni02D5
ENCODING 725
SWIDTH 341 0
DWIDTH 12 0
BBX 8 7 2 6
BITMAP
FF
18
18
18
18
18
18
ENDCHAR
STARTCHAR uni02D6
ENCODING 726
SWIDTH 341 0
DWIDTH 12 0
BBX 7 7 3 6
BITMAP
30
30
30
FE
30
30
30
ENDCHAR
STARTCHAR uni02D7
ENCODING 727
SWIDTH 341 0
DWIDTH 12 0
BBX 7 1 3 9
BITMAP
FE
ENDCHAR
STARTCHAR breve
ENCODING 728
SWIDTH 353 0
DWIDTH 13 0
BBX 11 6 1 20
BITMAP
8020
8040
C040
60C0
7F80
1F00
ENDCHAR
STARTCHAR dotaccent
ENCODING 729
SWIDTH 194 0
DWIDTH 7 0
BBX 5 4 1 21
BITMAP
70
F8
70
70
ENDCHAR
STARTCHAR ring
ENCODING 730
SWIDTH 265 0
DWIDTH 10 0
BBX 7 7 1 20
BITMAP
3C
66
C2
C2
C2
E6
7C
ENDCHAR
STARTCHAR ogonek
ENCODING 731
SWIDTH 277 0
DWIDTH 10 0
BBX 8 8 1 -8
BITMAP
18
30
60
E0
E0
E1
FE
7C
ENDCHAR
STARTCHAR tilde
ENCODING 732
SWIDTH 381 0
DWIDTH 14 0
BBX 12 4 1 20
BITMAP
3C10
7E20
CFE0
83C0
ENDCHAR
STARTCHAR hungarumlaut
ENCODING 733
SWIDTH 350 0
DWIDTH 13 0
BBX 11 6 1 19
BITMAP
3DE0
39C0
7380
7300
6600
C600
ENDCHAR
STARTCHAR uni02DE
ENCODING 734
SWIDTH 205 0
DWIDTH 7 0
BBX 8 5 -1 8
BITMAP
10
71
F1
B3
3E
ENDCHAR
STARTCHAR uni02DF
ENCODING 735
SWIDTH 302 0
DWIDTH 11 0
BBX 9 9 1 18
BITMAP
4100
C380
6300
3600
1C00
1C00
3600
E380
4100
ENDCHAR
STARTCHAR uni02E0
ENCODING 736
SWIDTH 413 0
DWIDTH 15 0
BBX 15 20 0 3
BITMAP
FC3E
781C
3818
1818
1C10
1C30
0E20
0E60
0640
0740
07C0
0380
0380
0380
03C0
04C0
04C0
04E0
04C0
0780
ENDCHAR
STARTCHAR uni02E1
ENCODING 737
SWIDTH 244 0
DWIDTH 9 0
BBX 7 20 1 9
BITMAP
F8
F8
38
38
38
38
38
38
38
38
38
38
38
38
38
38
38
38
38
FE
ENDCHAR
STARTCHAR uni02E2
ENCODING 738
SWIDTH 337 0
DWIDTH 12 0
BBX 10 14 1 9
BITMAP
3E80
6380
C180
E080
F080
7800
3E00
1F80
07C0
81C0
C1C0
C0C0
E180
BF00
ENDCHAR
STARTCHAR uni02E3
ENCODING 739
SWIDTH 445 0
DWIDTH 16 0
BBX 14 14 1 9
BITMAP
FE7C
3830
3C20
1C60
0EC0
0680
0700
0780
05C0
0DE0
18E0
3070
7078
F8FC
ENDCHAR
STARTCHAR uni02E4
ENCODING 740
SWIDTH 364 0
DWIDTH 13 0
BBX 12 20 1 9
BITMAP
0FC0
38E0
7070
7070
6020
E000
E000
6000
7000
3800
1C00
0F80
0180
0180
0180
0180
0180
0180
03C0
0FF0
ENDCHAR
STARTCHAR uni02E5
ENCODING 741
SWIDTH 423 0
DWIDTH 15 0
BBX 12 24 2 1
BITMAP
FFF0
0030
0030
0030
0030
0030
0030
0030
0030
0030
0030
0030
0030
0030
0030
0030
0030
0030
0030
0030
0030
0030
0030
0030
ENDCHAR
STARTCHAR uni02E6
ENCODING 742
SWIDTH 414 0
DWIDTH 15 0
BBX 12 26 1 0
BITMAP
0010
0010
0010
0010
0010
0010
0010
0010
FFF0
0010
0010
0010
0010
0010
0010
0010
0010
0010
0010
0010
0010
0010
0010
0010
0010
0010
ENDCHAR
STARTCHAR uni02E7
ENCODING 743
SWIDTH 414 0
DWIDTH 15 0
BBX 12 25 1 0
BITMAP
0010
0010
0010
0010
0010
0010
0010
0010
0010
0010
0010
0010
FFF0
0010
0010
0010
0010
0010
0010
0010
0010
0010
0010
0010
0010
ENDCHAR
STARTCHAR uni02E8
ENCODING 744
SWIDTH 414 0
DWIDTH 15 0
BBX 12 25 1 0
BITMAP
0010
0010
0010
0010
0010
0010
0010
0010
0010
0010
0010
0010
0010
0010
0010
0010
0010
FFF0
0010
0010
0010
0010
0010
0010
0010
ENDCHAR
STARTCHAR uni02E9
ENCODING 745
SWIDTH 414 0
DWIDTH 15 0
BBX 12 25 1 1
BITMAP
0010
0010
0010
0010
0010
0010
0010
0010
0010
0010
0010
0010
0010
0010
0010
0010
0010
0010
0010
0010
0010
0010
0010
0010
FFF0
ENDCHAR
STARTCHAR uni02EC
ENCODING 748
SWIDTH 341 0
DWIDTH 12 0
BBX 10 8 1 -6
BITMAP
E0C0
61C0
7180
3300
3F00
1E00
0E00
0C00
ENDCHAR
STARTCHAR uni02ED
ENCODING 749
SWIDTH 380 0
DWIDTH 14 0
BBX 11 6 1 20
BITMAP
FFE0
FFE0
0000
0000
FFE0
FFE0
ENDCHAR
STARTCHAR uni02F7
ENCODING 759
SWIDTH 381 0
DWIDTH 14 0
BBX 12 4 1 -6
BITMAP
3C10
7E20
CFE0
83C0
ENDCHAR
STARTCHAR uni0300
ENCODING 768
SWIDTH 0 0
DWIDTH 0 0
BBX 6 6 -12 19
BITMAP
E0
F0
70
38
18
0C
ENDCHAR
STARTCHAR uni0301
ENCODING 769
SWIDTH 0 0
DWIDTH 0 0
BBX 6 6 -10 19
BITMAP
3C
38
70
70
E0
C0
ENDCHAR
STARTCHAR uni0302
ENCODING 770
SWIDTH 0 0
DWIDTH 0 0
BBX 10 6 -13 19
BITMAP
0C00
1E00
3E00
7300
6180
C0C0
ENDCHAR
STARTCHAR uni0303
ENCODING 771
SWIDTH 0 0
DWIDTH 0 0
BBX 12 4 -14 20
BITMAP
3C10
7E20
CFE0
83C0
ENDCHAR
STARTCHAR uni0304
ENCODING 772
SWIDTH 0 0
DWIDTH 0 0
BBX 11 2 -14 21
BITMAP
FFE0
FFE0
ENDCHAR
STARTCHAR uni0305
ENCODING 773
SWIDTH 0 0
DWIDTH 0 0
BBX 14 2 -14 21
BITMAP
FFFC
FFFC
ENDCHAR
STARTCHAR uni0306
ENCODING 774
SWIDTH 0 0
DWIDTH 0 0
BBX 11 6 -14 20
BITMAP
C020
C020
4060
70C0
3FC0
1F00
ENDCHAR
STARTCHAR uni0307
ENCODING 775
SWIDTH 0 0
DWIDTH 0 0
BBX 4 4 -10 21
BITMAP
E0
F0
F0
E0
ENDCHAR
STARTCHAR uni0308
ENCODING 776
SWIDTH 0 0
DWIDTH 0 0
BBX 12 4 -14 21
BITMAP
E0E0
F0F0
F0F0
E0E0
ENDCHAR
STARTCHAR uni0309
ENCODING 777
SWIDTH 0 0
DWIDTH 0 0
BBX 7 8 -11 19
BITMAP
78
EC
CC
0E
0C
1C
20
20
ENDCHAR
STARTCHAR uni030A
ENCODING 778
SWIDTH 0 0
DWIDTH 0 0
BBX 7 7 -12 20
BITMAP
3C
66
C2
C2
C2
C6
7C
ENDCHAR
STARTCHAR uni030B
ENCODING 779
SWIDTH 0 0
DWIDTH 0 0
BBX 11 6 -12 19
BITMAP
3DE0
39C0
3B80
7380
6300
C600
ENDCHAR
STARTCHAR uni030C
ENCODING 780
SWIDTH 0 0
DWIDTH 0 0
BBX 10 6 -13 19
BITMAP
80C0
C180
6300
3700
3E00
1C00
ENDCHAR
STARTCHAR uni030D
ENCODING 781
SWIDTH 0 0
DWIDTH 0 0
BBX 2 8 -9 19
BITMAP
C0
C0
C0
C0
C0
C0
C0
C0
ENDCHAR
STARTCHAR uni030E
ENCODING 782
SWIDTH 0 0
DWIDTH 0 0
BBX 7 8 -12 19
BITMAP
C6
C6
C6
C6
C6
C6
C6
C6
ENDCHAR
STARTCHAR uni030F
ENCODING 783
SWIDTH 0 0
DWIDTH 0 0
BBX 10 6 -15 19
BITMAP
EF00
F700
7380
3180
19C0
08C0
ENDCHAR
STARTCHAR uni0310
ENCODING 784
SWIDTH 0 0
DWIDTH 0 0
BBX 11 8 -14 20
BITMAP
0E00
0F00
CF20
4E60
4060
70C0
3FC0
1F00
ENDCHAR
STARTCHAR uni0311
ENCODING 785
SWIDTH 0 0
DWIDTH 0 0
BBX 10 5 -13 20
BITMAP
3E00
7F00
E180
8080
80C0
ENDCHAR
STARTCHAR uni0312
ENCODING 786
SWIDTH 0 0
DWIDTH 0 0
BBX 5 8 -11 19
BITMAP
18
60
40
C0
F0
F8
F8
70
ENDCHAR
STARTCHAR uni0313
ENCODING 787
SWIDTH 0 0
DWIDTH 0 0
BBX 5 8 -11 19
BITMAP
70
78
F8
78
18
18
30
60
ENDCHAR
STARTCHAR uni0314
ENCODING 788
SWIDTH 0 0
DWIDTH 0 0
BBX 5 8 -11 19
BITMAP
70
78
F8
F8
C0
40
60
18
ENDCHAR
STARTCHAR uni0315
ENCODING 789
SWIDTH 0 0
DWIDTH 0 0
BBX 4 7 -9 19
BITMAP
70
70
E0
E0
E0
C0
C0
ENDCHAR
STARTCHAR uni0316
ENCODING 790
SWIDTH 0 0
DWIDTH 0 0
BBX 6 6 -12 -8
BITMAP
E0
F0
70
38
18
0C
ENDCHAR
STARTCHAR uni0317
ENCODING 791
SWIDTH 0 0
DWIDTH 0 0
BBX 6 6 -10 -8
BITMAP
1C
3C
38
70
60
C0
ENDCHAR
STARTCHAR uni0318
ENCODING 792
SWIDTH 0 0
DWIDTH 0 0
BBX 5 7 -11 -9
BITMAP
08
08
08
F8
08
08
08
ENDCHAR
STARTCHAR uni0319
ENCODING 793
SWIDTH 0 0
DWIDTH 0 0
BBX 5 7 -11 -9
BITMAP
C0
C0
C0
F8
C0
C0
C0
ENDCHAR
STARTCHAR uni031A
ENCODING 794
SWIDTH 0 0
DWIDTH 0 0
BBX 8 7 -12 19
BITMAP
FF
03
03
03
03
03
03
ENDCHAR
STARTCHAR uni031B
ENCODING 795
SWIDTH 0 0
DWIDTH 0 0
BBX 7 6 -7 17
BITMAP
0C
1E
0E
06
0C
F8
ENDCHAR
STARTCHAR uni031C
ENCODING 796
SWIDTH 0 0
DWIDTH 0 0
BBX 5 7 -11 -9
BITMAP
78
E0
C0
C0
C0
E0
78
ENDCHAR
STARTCHAR uni031D
ENCODING 797
SWIDTH 0 0
DWIDTH 0 0
BBX 7 5 -12 -7
BITMAP
10
10
10
10
FE
ENDCHAR
STARTCHAR uni031E
ENCODING 798
SWIDTH 0 0
DWIDTH 0 0
BBX 7 5 -12 -7
BITMAP
FE
10
10
10
10
ENDCHAR
STARTCHAR uni031F
ENCODING 799
SWIDTH 0 0
DWIDTH 0 0
BBX 7 7 -12 -9
BITMAP
10
10
10
FE
10
10
10
ENDCHAR
STARTCHAR uni0320
ENCODING 800
SWIDTH 0 0
DWIDTH 0 0
BBX 7 1 -12 -6
BITMAP
FE
ENDCHAR
STARTCHAR uni0321
ENCODING 801
SWIDTH 0 0
DWIDTH 0 0
BBX 10 10 -15 -9
BITMAP
01C0
01C0
01C0
0180
0380
0380
C380
E300
FF00
7C00
ENDCHAR
STARTCHAR uni0322
ENCODING 802
SWIDTH 0 0
DWIDTH 0 0
BBX 10 10 -8 -9
BITMAP
E000
E000
E000
E000
E000
E000
E180
63C0
3F80
1F00
ENDCHAR
STARTCHAR uni0323
ENCODING 803
SWIDTH 0 0
DWIDTH 0 0
BBX 4 4 -10 -7
BITMAP
E0
F0
F0
E0
ENDCHAR
STARTCHAR uni0324
ENCODING 804
SWIDTH 0 0
DWIDTH 0 0
BBX 12 4 -14 -7
BITMAP
E0E0
F0F0
F0F0
E0E0
ENDCHAR
STARTCHAR uni0325
ENCODING 805
SWIDTH 0 0
DWIDTH 0 0
BBX 7 7 -12 -9
BITMAP
3C
66
C2
C2
C2
C6
7C
ENDCHAR
STARTCHAR uni0326
ENCODING 806
SWIDTH 0 0
DWIDTH 0 0
BBX 5 8 -11 -10
BITMAP
70
78
F8
78
18
18
30
60
ENDCHAR
STARTCHAR uni0327
ENCODING 807
SWIDTH 0 0
DWIDTH 0 0
BBX 6 8 -11 -8
BITMAP
20
60
78
0C
0C
0C
8C
F8
ENDCHAR
STARTCHAR uni0328
ENCODING 808
SWIDTH 0 0
DWIDTH 0 0
BBX 8 8 -12 -8
BITMAP
1C
30
60
E0
E0
E1
FE
7C
ENDCHAR
STARTCHAR uni0329
ENCODING 809
SWIDTH 0 0
DWIDTH 0 0
BBX 2 7 -9 -8
BITMAP
C0
C0
C0
C0
C0
C0
C0
ENDCHAR
STARTCHAR uni032A
ENCODING 810
SWIDTH 0 0
DWIDTH 0 0
BBX 9 4 -13 -6
BITMAP
FF80
C080
C080
C080
ENDCHAR
STARTCHAR uni032B
ENCODING 811
SWIDTH 0 0
DWIDTH 0 0
BBX 11 4 -14 -6
BITMAP
C420
C420
CE60
7BC0
ENDCHAR
STARTCHAR uni032C
ENCODING 812
SWIDTH 0 0
DWIDTH 0 0
BBX 10 6 -13 -8
BITMAP
80C0
C180
6300
3700
3E00
1C00
ENDCHAR
STARTCHAR uni032D
ENCODING 813
SWIDTH 0 0
DWIDTH 0 0
BBX 10 6 -13 -8
BITMAP
0C00
1E00
3E00
7300
6180
C0C0
ENDCHAR
STARTCHAR uni032E
ENCODING 814
SWIDTH 0 0
DWIDTH 0 0
BBX 11 6 -14 -8
BITMAP
C020
C020
4060
70C0
3FC0
1F00
ENDCHAR
STARTCHAR uni032F
ENCODING 815
SWIDTH 0 0
DWIDTH 0 0
BBX 11 5 -14 -7
BITMAP
1F80
3FC0
60C0
4060
C020
ENDCHAR
STARTCHAR uni0330
ENCODING 816
SWIDTH 0 0
DWIDTH 0 0
BBX 11 4 -14 -6
BITMAP
3820
7E60
CFC0
8380
ENDCHAR
STARTCHAR uni0331
ENCODING 817
SWIDTH 0 0
DWIDTH 0 0
BBX 11 2 -14 -5
BITMAP
FFE0
FFE0
ENDCHAR
STARTCHAR uni0332
ENCODING 818
SWIDTH 0 0
DWIDTH 0 0
BBX 19 1 -18 -5
BITMAP
FFFFE0
ENDCHAR
STARTCHAR uni0333
ENCODING 819
SWIDTH 0 0
DWIDTH 0 0
BBX 19 5 -18 -9
BITMAP
FFFFE0
000000
000000
000000
FFFFE0
ENDCHAR
STARTCHAR uni0334
ENCODING 820
SWIDTH 0 0
DWIDTH 0 0
BBX 12 4 -14 8
BITMAP
3830
7E20
CFE0
83C0
ENDCHAR
STARTCHAR uni0335
ENCODING 821
SWIDTH 0 0
DWIDTH 0 0
BBX 11 1 -14 9
BITMAP
FFE0
ENDCHAR
STARTCHAR uni0336
ENCODING 822
SWIDTH 0 0
DWIDTH 0 0
BBX 19 1 -18 9
BITMAP
FFFFE0
ENDCHAR
STARTCHAR uni0337
ENCODING 823
SWIDTH 0 0
DWIDTH 0 0
BBX 10 7 -13 10
BITMAP
00C0
0380
0600
0C00
3800
6000
C000
ENDCHAR
STARTCHAR uni0338
ENCODING 824
SWIDTH 0 0
DWIDTH 0 0
BBX 16 31 -16 -6
BITMAP
0007
0006
0006
000C
000C
0018
0018
0030
0030
0030
0060
0060
00C0
00C0
0180
0180
0180
0300
0300
0600
0600
0600
0C00
0C00
1800
1800
3000
3000
3000
6000
E000
ENDCHAR
STARTCHAR uni0339
ENCODING 825
SWIDTH 0 0
DWIDTH 0 0
BBX 4 7 -10 -9
BITMAP
E0
30
10
10
10
30
E0
ENDCHAR
STARTCHAR uni033A
ENCODING 826
SWIDTH 0 0
DWIDTH 0 0
BBX 9 4 -13 -6
BITMAP
C080
C080
C080
FF80
ENDCHAR
STARTCHAR uni033B
ENCODING 827
SWIDTH 0 0
DWIDTH 0 0
BBX 6 6 -11 -8
BITMAP
FC
8C
8C
8C
8C
FC
ENDCHAR
STARTCHAR uni033C
ENCODING 828
SWIDTH 0 0
DWIDTH 0 0
BBX 11 4 -14 -6
BITMAP
71E0
FBE0
8E20
0400
ENDCHAR
STARTCHAR uni033D
ENCODING 829
SWIDTH 0 0
DWIDTH 0 0
BBX 7 7 -12 19
BITMAP
C6
6C
38
38
6C
C6
42
ENDCHAR
STARTCHAR uni033E
ENCODING 830
SWIDTH 0 0
DWIDTH 0 0
BBX 4 13 -10 18
BITMAP
10
70
C0
C0
C0
E0
60
60
70
30
60
C0
80
ENDCHAR
STARTCHAR uni033F
ENCODING 831
SWIDTH 0 0
DWIDTH 0 0
BBX 14 5 -15 19
BITMAP
FFFC
0000
0000
0000
FFFC
ENDCHAR
STARTCHAR uni0346
ENCODING 838
SWIDTH 0 0
DWIDTH 0 0
BBX 11 5 -14 19
BITMAP
FFE0
E060
E060
E060
E060
ENDCHAR
STARTCHAR uni0347
ENCODING 839
SWIDTH 0 0
DWIDTH 0 0
BBX 11 6 -14 -8
BITMAP
FFE0
FFE0
0000
0000
FFE0
FFE0
ENDCHAR
STARTCHAR uni034C
ENCODING 844
SWIDTH 0 0
DWIDTH 0 0
BBX 12 8 -14 20
BITMAP
3E30
7FE0
C7C0
0000
3C10
7E20
CFE0
83C0
ENDCHAR
STARTCHAR uni034D
ENCODING 845
SWIDTH 0 0
DWIDTH 0 0
BBX 18 8 -17 -10
BITMAP
080800
100400
300300
7FFF80
FFFFC0
300300
100600
080800
ENDCHAR
STARTCHAR uni0359
ENCODING 857
SWIDTH 0 0
DWIDTH 0 0
BBX 11 12 -14 -14
BITMAP
0600
0600
6660
F4E0
3D80
0600
3D80
F4E0
6460
0600
0600
0600
ENDCHAR
STARTCHAR uni035C
ENCODING 860
SWIDTH 0 0
DWIDTH 0 0
BBX 24 6 -12 -9
BITMAP
800001
C00003
E00007
7E007E
1FFFF8
03FFE0
ENDCHAR
STARTCHAR uni0360
ENCODING 864
SWIDTH 0 0
DWIDTH 0 0
BBX 18 4 -9 20
BITMAP
3F0040
7FF0C0
C1FF80
003F00
ENDCHAR
STARTCHAR uni0361
ENCODING 865
SWIDTH 0 0
DWIDTH 0 0
BBX 18 5 -9 21
BITMAP
0FFC00
3FFF00
700380
600180
C000C0
ENDCHAR
STARTCHAR uni0362
ENCODING 866
SWIDTH 0 0
DWIDTH 0 0
BBX 27 8 -13 -10
BITMAP
00000300
00000100
00000080
FFFFFFE0
FFFFFFE0
00000180
00000100
00000300
ENDCHAR
STARTCHAR uni037E
ENCODING 894
SWIDTH 261 0
DWIDTH 9 0
BBX 5 22 3 -5
BITMAP
E0
F0
F0
E0
00
00
00
00
00
00
00
00
00
E0
F0
F8
F8
10
30
30
60
80
ENDCHAR
STARTCHAR tonos
ENCODING 900
SWIDTH 165 0
DWIDTH 6 0
BBX 4 6 1 18
BITMAP
F0
E0
E0
E0
C0
C0
ENDCHAR
STARTCHAR dieresistonos
ENCODING 901
SWIDTH 426 0
DWIDTH 15 0
BBX 13 6 1 18
BITMAP
0780
6738
F778
F738
6638
0600
ENDCHAR
STARTCHAR Alphatonos
ENCODING 902
SWIDTH 718 0
DWIDTH 26 0
BBX 26 24 0 0
BITMAP
000C0000
001C0000
3C1E0000
383E0000
383E0000
303F0000
30670000
20678000
00C78000
00C3C000
00C3C000
0181E000
0181E000
0301E000
0300F000
07FFF000
06007800
06007800
0C003C00
0C003C00
18003E00
18003E00
7E007F80
FF00FFC0
ENDCHAR
STARTCHAR anoteleia
ENCODING 903
SWIDTH 261 0
DWIDTH 9 0
BBX 4 4 3 13
BITMAP
E0
F0
F0
E0
ENDCHAR
STARTCHAR Epsilontonos
ENCODING 904
SWIDTH 745 0
DWIDTH 27 0
BBX 26 24 0 0
BITMAP
03FFFF80
00FFFF80
E0700380
E0700180
E0700180
C0700180
C0700000
80700400
00700C00
00700C00
00701C00
007FFC00
00701C00
00700C00
00700400
00700400
00700000
00700040
007000C0
007000C0
00700180
00700380
00FFFF80
03FFFF80
ENDCHAR
STARTCHAR Etatonos
ENCODING 905
SWIDTH 896 0
DWIDTH 32 0
BBX 31 24 0 0
BITMAP
03FF07FE
03FE07FC
E07800F0
E07000F0
E07000E0
C07000E0
C07000E0
807000E0
007000E0
007000E0
007000E0
007FFFE0
007000E0
007000E0
007000E0
007000E0
007000E0
007000E0
007000E0
007000E0
007000F0
007800F0
01FE03FC
03FF07FE
ENDCHAR
STARTCHAR Iotatonos
ENCODING 906
SWIDTH 478 0
DWIDTH 17 0
BBX 16 24 0 0
BITMAP
03FF
03FE
E078
E070
E070
C070
C070
8070
0070
0070
0070
0070
0070
0070
0070
0070
0070
0070
0070
0070
0070
0078
03FE
03FF
ENDCHAR
STARTCHAR Omicrontonos
ENCODING 908
SWIDTH 806 0
DWIDTH 29 0
BBX 27 24 0 0
BITMAP
000FF000
003EFC00
E0F01E00
E1E00700
E3C00380
C38003C0
C78001C0
878001E0
070001E0
0F0001E0
0F0001E0
0F0001E0
0F0001E0
0F0001E0
0F0001E0
070001E0
078001C0
078001C0
038003C0
03C00380
01E00700
00F00E00
007E7C00
000FE000
ENDCHAR
STARTCHAR Upsilontonos
ENCODING 910
SWIDTH 787 0
DWIDTH 28 0
BBX 30 24 -1 0
BITMAP
03FF03FC
01FE03F8
F07800E0
E07C00C0
E03C0180
C01E0300
C01E0300
800F0600
00078600
00078C00
0003C800
0001D800
0001F000
0000F000
0000E000
0000E000
0000E000
0000E000
0000E000
0000F000
0000F000
0000F000
0003FC00
0007FE00
ENDCHAR
STARTCHAR Omegatonos
ENCODING 911
SWIDTH 830 0
DWIDTH 30 0
BBX 28 23 0 0
BITMAP
000FF000
E03C3C00
E0F00F00
E1E00780
C3C003C0
C38001C0
878001E0
078001E0
078001E0
078001E0
078001E0
078001E0
078001E0
078001C0
03C003C0
03C00380
01C00780
08E00710
08700E10
0C381830
0FFC3FF0
0FFC3FF0
0FFC3FE0
ENDCHAR
STARTCHAR iotadieresistonos
ENCODING 912
SWIDTH 259 0
DWIDTH 9 0
BBX 13 24 -2 0
BITMAP
0780
6730
F778
F678
6630
0600
0000
0700
0700
0700
0E00
0E00
0E00
0E00
0E00
0E00
0E00
0E00
0E00
0E00
0E00
07F0
07E0
0380
ENDCHAR
STARTCHAR Alpha
ENCODING 913
SWIDTH 718 0
DWIDTH 26 0
BBX 26 24 0 0
BITMAP
000C0000
001C0000
001E0000
003E0000
003E0000
003F0000
00670000
00678000
00C78000
00C3C000
00C3C000
0181E000
0181E000
0301E000
0300F000
07FFF000
06007800
06007800
0C003C00
0C003C00
18003E00
18003E00
7E007F80
FF00FFC0
ENDCHAR
STARTCHAR Beta
ENCODING 914
SWIDTH 618 0
DWIDTH 22 0
BBX 20 24 1 0
BITMAP
FFFE00
1FBF80
0E03C0
0E01C0
0E01E0
0E01E0
0E01E0
0E01E0
0E01C0
0E0380
0E0700
0FFC00
0E1F80
0E03C0
0E01E0
0E00F0
0E00F0
0E00F0
0E00F0
0E00F0
0E01E0
0E01E0
1E1F80
FFFE00
ENDCHAR
STARTCHAR Gamma
ENCODING 915
SWIDTH 569 0
DWIDTH 20 0
BBX 18 23 2 0
BITMAP
FFFFC0
3FFFC0
1C01C0
1C00C0
1C00C0
1C00C0
1C0000
1C0000
1C0000
1C0000
1C0000
1C0000
1C0000
1C0000
1C0000
1C0000
1C0000
1C0000
1C0000
1C0000
1C0000
3E0000
FFC000
ENDCHAR
STARTCHAR Delta
ENCODING 916
SWIDTH 667 0
DWIDTH 24 0
BBX 22 23 1 0
BITMAP
003000
003000
007800
007800
00FC00
00DC00
019E00
018E00
030F00
030F00
060700
060780
0C0380
0C03C0
0C03C0
1801E0
1801E0
3000F0
3000F0
600078
7FFFF8
FFFFF8
FFFFFC
ENDCHAR
STARTCHAR Epsilon
ENCODING 917
SWIDTH 626 0
DWIDTH 23 0
BBX 21 24 1 0
BITMAP
FFFFE0
1FFFE0
0E0060
0E0020
0E0020
0E0020
0E0000
0E0180
0E0180
0E0180
0E0380
0FFF80
0E0780
0E0180
0E0180
0E0180
0E0000
0E0018
0E0010
0E0010
0E0030
0E0070
1FFFF0
FFFFF0
ENDCHAR
STARTCHAR Zeta
ENCODING 918
SWIDTH 594 0
DWIDTH 21 0
BBX 19 24 1 0
BITMAP
3FFFE0
7E01E0
7003C0
600780
600780
400F00
001E00
001E00
003C00
007800
007800
00F000
01E000
01E000
03C000
078000
0F8000
0F0020
1E0020
3E0020
3C0060
7800E0
F807E0
FFFFC0
ENDCHAR
STARTCHAR Eta
ENCODING 919
SWIDTH 777 0
DWIDTH 28 0
BBX 26 24 1 0
BITMAP
FFE1FFC0
7FC0FF80
1E001C00
0E001C00
0E001C00
0E001C00
0E001C00
0E001C00
0E001C00
0E001C00
0E001C00
0FFFFC00
0E001C00
0E001C00
0E001C00
0E001C00
0E001C00
0E001C00
0E001C00
0E001C00
0E001C00
0E001C00
7FC0FF80
FFE1FFC0
ENDCHAR
STARTCHAR Theta
ENCODING 920
SWIDTH 738 0
DWIDTH 27 0
BBX 23 23 2 0
BITMAP
01FE00
078780
0E01E0
1C0070
380078
780038
70003C
F0003C
F1011C
F1031E
F1FF1E
F1FF1E
F1FF1E
F1011E
F1011C
F0003C
78003C
780038
3C0078
3E00F0
1F01E0
07FFC0
01FE00
ENDCHAR
STARTCHAR Iota
ENCODING 921
SWIDTH 357 0
DWIDTH 13 0
BBX 11 24 1 0
BITMAP
FFE0
7FC0
1E00
0E00
0E00
0E00
0E00
0E00
0E00
0E00
0E00
0E00
0E00
0E00
0E00
0E00
0E00
0E00
0E00
0E00
0E00
1E00
7FC0
FFE0
ENDCHAR
STARTCHAR Kappa
ENCODING 922
SWIDTH 702 0
DWIDTH 25 0
BBX 24 24 1 0
BITMAP
FFE3FE
7FC1FC
1E00E0
0E01C0
0E0180
0E0300
0E0600
0E0C00
0E1800
0E3000
0EE000
0FC000
0FE000
0EF800
0E7C00
0E3E00
0E1F00
0E0F80
0E07C0
0E03E0
0E01F0
1E00F8
7FC1FE
FFE3FF
ENDCHAR
STARTCHAR Lambda
ENCODING 923
SWIDTH 710 0
DWIDTH 26 0
BBX 25 23 0 0
BITMAP
00080000
001C0000
001C0000
003E0000
003E0000
006F0000
00670000
00478000
00C78000
00C38000
0183C000
0181C000
0301E000
0301E000
0300F000
0600F000
06007800
0C007800
0C003C00
1C003C00
18003E00
3C003F00
FF00FF80
ENDCHAR
STARTCHAR Mu
ENCODING 924
SWIDTH 895 0
DWIDTH 32 0
BBX 30 24 1 0
BITMAP
FF0001FC
7F0003F8
1F0003E0
1F8007E0
1F8007C0
1BC00FC0
1BC00DC0
19E00DC0
19E019C0
18E019C0
18F031C0
18F031C0
187831C0
187861C0
183861C0
183CC1C0
181CC1C0
181F81C0
181F81C0
180F81C0
180F01C0
1C0701E0
7F0607F8
FF020FFC
ENDCHAR
STARTCHAR Nu
ENCODING 925
SWIDTH 742 0
DWIDTH 27 0
BBX 25 24 1 0
BITMAP
FE00FF80
7E007F00
1F001C00
1F801C00
1FC00C00
1BC00800
19E00800
19F00800
18F80800
18780800
183C0800
183E0800
181F0800
180F0800
18078800
1803C800
1803E800
1801F800
1800F800
18007800
18003800
1C003800
7F001800
FF000800
ENDCHAR
STARTCHAR Xi
ENCODING 926
SWIDTH 648 0
DWIDTH 23 0
BBX 20 23 2 0
BITMAP
FFFFE0
FFFFE0
FFFFE0
E00060
C00020
C00020
000000
080300
080300
0C0300
0FFF00
0FFF00
0FFF00
080300
080300
000000
000000
800030
800030
C00060
FFFFE0
FFFFE0
FFFFE0
ENDCHAR
STARTCHAR Omicron
ENCODING 927
SWIDTH 738 0
DWIDTH 27 0
BBX 23 24 2 0
BITMAP
00FE00
07CFC0
0E01E0
1C00F0
380078
780038
70003C
F0003C
F0001C
F0001E
F0001E
F0001E
F0001E
F0001E
F0001E
F0001C
F0003C
70003C
780038
380078
1C0070
0E01E0
07CF80
00FE00
ENDCHAR
STARTCHAR Pi
ENCODING 928
SWIDTH 759 0
DWIDTH 27 0
BBX 25 23 1 0
BITMAP
FFFFFF80
1FFFFC00
0E003C00
0E003C00
0E003C00
0E003C00
0E003C00
0E003C00
0E003C00
0E003C00
0E003C00
0E003C00
0E003C00
0E003C00
0E003C00
0E003C00
0E003C00
0E003C00
0E003C00
0E003C00
0E003C00
1F007C00
FFC1FF80
ENDCHAR
STARTCHAR Rho
ENCODING 929
SWIDTH 569 0
DWIDTH 20 0
BBX 18 24 2 0
BITMAP
FFF800
3FFE00
1C0F00
1C0780
1C0380
1C03C0
1C03C0
1C0380
1C0380
1C0380
1C0700
1C1E00
1FFC00
1C8000
1C0000
1C0000
1C0000
1C0000
1C0000
1C0000
1C0000
3C0000
FF8000
FFC000
ENDCHAR
STARTCHAR Sigma
ENCODING 931
SWIDTH 604 0
DWIDTH 22 0
BBX 20 23 1 0
BITMAP
FFFFC0
7FFFC0
7C00C0
3C0040
1E0060
0F0060
078000
03C000
01E000
00F000
00F000
006000
00C000
01C000
038000
030000
060030
0C0020
180060
3000E0
7FFFE0
FFFFE0
FFFFE0
ENDCHAR
STARTCHAR Tau
ENCODING 932
SWIDTH 603 0
DWIDTH 22 0
BBX 20 24 1 0
BITMAP
FFFFF0
F8F3F0
C0F030
80F030
80F010
80F010
00F000
00F000
00F000
00F000
00F000
00F000
00F000
00F000
00F000
00F000
00F000
00F000
00F000
00F000
00F000
00F000
03FC00
07FE00
ENDCHAR
STARTCHAR Upsilon
ENCODING 933
SWIDTH 647 0
DWIDTH 23 0
BBX 23 24 0 0
BITMAP
FFC0FE
7F80FE
3E0030
1E0030
0F0060
0780C0
0780C0
03C180
01E180
01E300
00F600
007600
007C00
003C00
003800
003800
003800
003800
003800
003800
003800
003C00
01FF00
03FF80
ENDCHAR
STARTCHAR Phi
ENCODING 934
SWIDTH 718 0
DWIDTH 26 0
BBX 24 23 1 0
BITMAP
01FF80
003C00
003C00
00FF00
0FFFF0
3C3C7C
783C1E
703C1E
703C0E
F03C0F
F03C0F
F03C0F
F03C0E
703C0E
783C1E
3C3C3C
1F3C78
07FFE0
003C00
003C00
003C00
007E00
01FF80
ENDCHAR
STARTCHAR Chi
ENCODING 935
SWIDTH 664 0
DWIDTH 24 0
BBX 24 24 0 0
BITMAP
7FE1FE
7FC0FE
0F0070
0F8060
0780E0
03C0C0
01E180
01E300
00F600
007600
007C00
003C00
003E00
007E00
00CF00
00C780
018780
0303C0
0701E0
0601E0
0C00F0
1C00F8
7E01FE
FF03FF
ENDCHAR
STARTCHAR Psi
ENCODING 936
SWIDTH 720 0
DWIDTH 26 0
BBX 26 23 0 0
BITMAP
E0FFC1C0
383F0700
381E0700
3C1E0E00
3C1E0E00
3C1E0E00
3C1E0F00
3C1E0F00
3C1E0F00
3C1E0E00
1C1E0E00
1C1E1E00
0E1E1C00
079E7800
01FFE000
001E0000
001E0000
001E0000
001E0000
001E0000
001E0000
003F0000
00FFC000
ENDCHAR
STARTCHAR Omega
ENCODING 937
SWIDTH 777 0
DWIDTH 28 0
BBX 24 23 2 0
BITMAP
00FF00
03C3E0
0F00F0
1E0078
3C003C
38001C
78001E
78001E
78001E
78001E
78001E
78001E
78001E
38001C
3C003C
1C0038
1E0078
8E0071
8700E1
C381C3
FFC3FF
FFC3FF
FFC3FF
ENDCHAR
STARTCHAR Iotadieresis
ENCODING 938
SWIDTH 357 0
DWIDTH 13 0
BBX 12 30 0 0
BITMAP
7070
F0F0
F8F0
7070
0000
0000
7FF0
3FE0
0F00
0700
0700
0700
0700
0700
0700
0700
0700
0700
0700
0700
0700
0700
0700
0700
0700
0700
0700
0F00
3FE0
7FF0
ENDCHAR
STARTCHAR Upsilondieresis
ENCODING 939
SWIDTH 647 0
DWIDTH 23 0
BBX 23 30 0 0
BITMAP
01C1C0
03C3C0
03C3C0
01C1C0
000000
000000
FFC0FE
7F80FE
3E0030
1E0030
0F0060
0780C0
0780C0
03C180
01E180
01E300
00F600
007600
007C00
003C00
003800
003800
003800
003800
003800
003800
003800
003C00
01FF00
03FF80
ENDCHAR
STARTCHAR alphatonos
ENCODING 940
SWIDTH 561 0
DWIDTH 20 0
BBX 19 24 1 0
BITMAP
00E000
00E000
00E000
00C000
00C000
008000
000000
07C3C0
1FE380
3FF380
383700
601700
600E00
C00C00
C00C00
C00C00
C01C00
C01C00
C03C00
606C00
70EE20
7FCFE0
3F87C0
1F0780
ENDCHAR
STARTCHAR epsilontonos
ENCODING 941
SWIDTH 381 0
DWIDTH 14 0
BBX 12 24 1 0
BITMAP
01E0
01C0
01C0
0180
0180
0100
0000
0FE0
3FF0
7FF0
7020
6000
6000
6000
3700
1F80
2000
6000
6000
E020
7070
7FF0
3FE0
1FC0
ENDCHAR
STARTCHAR etatonos
ENCODING 942
SWIDTH 510 0
DWIDTH 18 0
BBX 16 32 0 -8
BITMAP
0038
0038
0030
0030
0030
0060
0000
383C
7C7E
FCFE
8CC6
0D83
0D03
0F03
0E03
0E03
0E03
0E03
0C03
0C03
1C03
1C03
1C03
1C07
0007
0007
0007
0007
0007
000F
000F
000C
ENDCHAR
STARTCHAR iotatonos
ENCODING 943
SWIDTH 259 0
DWIDTH 9 0
BBX 8 24 2 0
BITMAP
38
38
30
30
30
60
00
70
70
70
E0
E0
E0
E0
E0
E0
E0
E0
E0
E0
E0
7F
7E
38
ENDCHAR
STARTCHAR upsilondieresistonos
ENCODING 944
SWIDTH 491 0
DWIDTH 18 0
BBX 17 24 -1 0
BITMAP
00E000
1CEE00
1CCF00
1CCF00
1CCE00
008000
000000
1C0800
3E0600
7E0700
4E0300
C60380
0E0380
0E0180
0C0180
0C0180
0C0380
0C0380
0C0380
0C0700
0E0F00
07FE00
07FC00
03F000
ENDCHAR
STARTCHAR alpha
ENCODING 945
SWIDTH 561 0
DWIDTH 20 0
BBX 19 17 1 0
BITMAP
07C3C0
1FE380
3FF380
383700
601700
600E00
C00C00
C00C00
C00C00
C01C00
C01C00
C03C00
606C00
70EE20
7FCFE0
3F87C0
1F0780
ENDCHAR
STARTCHAR beta
ENCODING 946
SWIDTH 530 0
DWIDTH 19 0
BBX 16 33 2 -7
BITMAP
01F0
07FC
0FFC
0E0E
1C06
1806
3006
3006
300C
6008
6030
63E0
67E0
6318
600C
6006
6006
E006
E007
E007
F007
F006
FC1E
EFFE
E7FC
E3F0
E000
E000
E000
E000
E000
E000
E000
ENDCHAR
STARTCHAR gamma
ENCODING 947
SWIDTH 466 0
DWIDTH 17 0
BBX 16 25 0 -8
BITMAP
380F
7C0F
FE0E
8E1E
861C
071C
0338
0338
0330
0370
0360
0360
01C0
01C0
0180
0180
0380
0380
0380
0780
0700
0700
0700
0700
0300
ENDCHAR
STARTCHAR delta
ENCODING 948
SWIDTH 479 0
DWIDTH 17 0
BBX 15 26 1 0
BITMAP
07E0
0FF8
187C
181C
1808
0E00
0700
0380
01E0
03F0
0FF8
1FF8
381C
701C
600E
C00E
C00E
C00E
C00E
C00E
C00C
601C
7078
7FF8
3FE0
0F80
ENDCHAR
STARTCHAR epsilon
ENCODING 949
SWIDTH 381 0
DWIDTH 14 0
BBX 12 17 1 0
BITMAP
0FE0
3FF0
7FF0
7020
6000
6000
6000
3700
1F80
2000
6000
6000
E020
7070
7FF0
3FE0
1FC0
ENDCHAR
STARTCHAR zeta
ENCODING 950
SWIDTH 386 0
DWIDTH 14 0
BBX 14 34 1 -8
BITMAP
0200
0600
0C0C
0C3C
0E7C
07F8
01E0
0380
0700
0E00
1C00
3800
3000
6000
6000
4000
C000
C000
C000
C000
C000
E000
7C00
7FC0
3FF0
0FF8
0078
0018
0018
0018
0030
0FE0
07C0
0700
ENDCHAR
STARTCHAR eta
ENCODING 951
SWIDTH 510 0
DWIDTH 18 0
BBX 16 25 0 -8
BITMAP
383C
7C7E
FCFE
8CC6
0D83
0D03
0F03
0E03
0E03
0E03
0E03
0C03
0C03
1C03
1C03
1C03
1C07
0007
0007
0007
0007
0007
000F
000F
000C
ENDCHAR
STARTCHAR theta
ENCODING 952
SWIDTH 514 0
DWIDTH 19 0
BBX 15 26 2 0
BITMAP
07C0
0FE0
1FF0
3838
3018
601C
600C
C00C
C00C
C006
C006
C006
FFFE
FFFE
C006
C006
C006
C004
C00C
E00C
600C
7018
3878
3FF0
1FE0
07C0
ENDCHAR
STARTCHAR iota
ENCODING 953
SWIDTH 259 0
DWIDTH 9 0
BBX 8 17 2 0
BITMAP
70
70
70
E0
E0
E0
E0
E0
E0
E0
E0
E0
E0
E0
7F
7E
38
ENDCHAR
STARTCHAR kappa
ENCODING 954
SWIDTH 495 0
DWIDTH 18 0
BBX 19 17 -1 0
BITMAP
1E01C0
3E0780
7F0F80
471F80
C73C00
073800
067000
06C000
06E000
07A000
072000
073000
071800
071C20
061FC0
0E0FC0
0E0780
ENDCHAR
STARTCHAR lambda
ENCODING 955
SWIDTH 506 0
DWIDTH 18 0
BBX 18 26 1 0
BITMAP
0F0000
1F0000
1F8000
238000
218000
00C000
00C000
00C000
00C000
00C000
01C000
01C000
03E000
036000
076000
066000
0E6000
0E6000
1C3000
1C3000
383000
383800
7838C0
701F80
F01F00
E00E00
ENDCHAR
STARTCHAR mu
ENCODING 956
SWIDTH 552 0
DWIDTH 20 0
BBX 18 24 2 -7
BITMAP
701C00
701C00
701C00
701C00
601C00
601C00
601800
601800
601800
603800
603800
607800
E05800
F0DC40
DFDFC0
DF8F80
CF0F00
C00000
C00000
C00000
E00000
E00000
E00000
E00000
ENDCHAR
STARTCHAR nu
ENCODING 957
SWIDTH 453 0
DWIDTH 16 0
BBX 17 18 -1 -1
BITMAP
1C0E00
3E0700
7E0700
CF0700
070780
030700
030700
030700
030700
030E00
030E00
031C00
033800
033000
037000
03E000
03C000
038000
ENDCHAR
STARTCHAR xi
ENCODING 958
SWIDTH 390 0
DWIDTH 14 0
BBX 13 35 1 -8
BITMAP
0800
1800
3008
3878
1DF8
0FF8
07C0
1E00
3800
3800
3000
3000
3000
3000
19E0
0FE0
1FE0
3000
6000
C000
C000
C000
E000
7800
7F80
3FF0
0FF8
00F8
0018
0008
0008
0018
07F0
07E0
0700
ENDCHAR
STARTCHAR omicron
ENCODING 959
SWIDTH 475 0
DWIDTH 17 0
BBX 15 17 1 0
BITMAP
07E0
1FF0
3FF8
383C
700C
6006
C006
C006
C006
C006
C006
C00C
600C
783C
3FF8
1FF0
0FC0
ENDCHAR
STARTCHAR pi
ENCODING 960
SWIDTH 591 0
DWIDTH 21 0
BBX 20 17 1 0
BITMAP
1FFFF0
7FFFE0
7FFFE0
C30600
830600
030400
020C00
020C00
060C00
060C00
0E0C00
0C0C00
0C0C00
1C0E20
3C0FE0
380FC0
780780
ENDCHAR
STARTCHAR rho
ENCODING 961
SWIDTH 515 0
DWIDTH 19 0
BBX 15 24 2 -7
BITMAP
03E0
0FF8
1FFC
3C1C
300E
6006
6006
6006
6006
E006
E006
E006
F00C
F83C
EFF8
EFF0
E3E0
E000
E000
E000
E000
E000
E000
F000
ENDCHAR
STARTCHAR uni03C2
ENCODING 962
SWIDTH 377 0
DWIDTH 14 0
BBX 13 25 1 -8
BITMAP
07F0
1FF0
3FF0
7810
6000
4000
C000
C000
C000
C000
E000
7000
7C00
3F00
1FC0
0FE0
03F0
0070
0018
0018
0010
0030
0FE0
07C0
0700
ENDCHAR
STARTCHAR sigma
ENCODING 963
SWIDTH 545 0
DWIDTH 20 0
BBX 19 17 1 0
BITMAP
03FFE0
0FFFC0
3FFFC0
3C1800
700C00
600400
C00600
C00600
C00600
C00600
C00600
E00E00
600E00
783C00
3FFC00
1FF000
0FC000
ENDCHAR
STARTCHAR tau
ENCODING 964
SWIDTH 392 0
DWIDTH 14 0
BBX 14 17 0 0
BITMAP
1FFC
3FFC
7FFC
C100
8300
0300
0300
0300
0300
0300
0700
0700
0700
0708
07F0
03F0
01C0
ENDCHAR
STARTCHAR upsilon
ENCODING 965
SWIDTH 491 0
DWIDTH 18 0
BBX 17 17 -1 0
BITMAP
1C0800
3E0600
7E0700
4E0300
C60380
0E0380
0E0180
0C0180
0C0180
0C0380
0C0380
0C0380
0C0700
0E0F00
07FE00
07FC00
03F000
ENDCHAR
STARTCHAR phi
ENCODING 966
SWIDTH 603 0
DWIDTH 22 0
BBX 19 25 1 -7
BITMAP
010000
0F0F00
1F1FC0
3E3FC0
7838E0
607060
606060
C06020
C0E020
C0C020
C0C060
C0C060
60C0E0
70C1C0
3CC7C0
3FFF80
0FFE00
03F000
00C000
00E000
00E000
00E000
00E000
00E000
01E000
ENDCHAR
STARTCHAR chi
ENCODING 967
SWIDTH 462 0
DWIDTH 17 0
BBX 20 25 -2 -8
BITMAP
1E00F0
3F01E0
3F01C0
638380
418780
00C700
00CE00
00CE00
005C00
007800
007800
007000
00E000
00F000
01F000
03B000
039000
071800
0F1800
0E1800
1C0C00
3C0E20
380FE0
7807C0
F00380
ENDCHAR
STARTCHAR psi
ENCODING 968
SWIDTH 620 0
DWIDTH 22 0
BBX 21 32 0 -7
BITMAP
003C00
003800
003800
003800
003800
003800
001800
001800
3C3880
7C3860
FC3860
9C3830
8C3830
0C3838
1C3838
183838
183838
183038
183030
183070
1C30F0
0E33E0
0FFFC0
07FF80
01FC00
003000
003000
003800
003800
003800
007800
007800
ENDCHAR
STARTCHAR omega
ENCODING 969
SWIDTH 660 0
DWIDTH 24 0
BBX 22 17 1 0
BITMAP
070180
1E00E0
3E0060
380030
703838
607818
C07818
C07818
C07018
C0701C
C07018
402018
607038
70D078
3FDFF0
3F8FE0
0F07C0
ENDCHAR
STARTCHAR iotadieresis
ENCODING 970
SWIDTH 259 0
DWIDTH 9 0
BBX 11 23 -1 0
BITMAP
E0E0
F1E0
F1E0
E0E0
0000
0000
0E00
0E00
0E00
1C00
1C00
1C00
1C00
1C00
1C00
1C00
1C00
1C00
1C00
1C00
0FE0
0FC0
0700
ENDCHAR
STARTCHAR upsilondieresis
ENCODING 971
SWIDTH 491 0
DWIDTH 18 0
BBX 17 23 -1 0
BITMAP
0E0C00
1E1E00
1E1E00
0E0C00
000000
000000
1C0800
3E0600
7E0700
4E0300
C60380
0E0380
0E0180
0C0180
0C0180
0C0380
0C0380
0C0380
0C0700
0E0F00
07FE00
07FC00
03F000
ENDCHAR
STARTCHAR omicrontonos
ENCODING 972
SWIDTH 475 0
DWIDTH 17 0
BBX 15 24 1 0
BITMAP
00F0
00E0
00E0
00C0
00C0
0080
0000
07E0
1FF0
3FF8
383C
700C
6006
C006
C006
C006
C006
C006
C00C
600C
783C
3FF8
1FF0
0FC0
ENDCHAR
STARTCHAR upsilontonos
ENCODING 973
SWIDTH 491 0
DWIDTH 18 0
BBX 17 24 -1 0
BITMAP
007800
007000
007000
006000
006000
004000
000000
1C0800
3E0600
7E0700
4E0300
C60380
0E0380
0E0180
0C0180
0C0180
0C0380
0C0380
0C0380
0C0700
0E0F00
07FE00
07FC00
03F000
ENDCHAR
STARTCHAR omegatonos
ENCODING 974
SWIDTH 660 0
DWIDTH 24 0
BBX 22 24 1 0
BITMAP
003C00
003800
003800
003000
003000
003000
000000
070180
1E00E0
3E0060
380030
703838
607818
C07818
C07818
C07018
C0701C
C07018
402018
607038
70D078
3FDFF0
3F8FE0
0F07C0
ENDCHAR
STARTCHAR uni03D0
ENCODING 976
SWIDTH 438 0
DWIDTH 16 0
BBX 13 26 2 0
BITMAP
01E0
07F0
0FF0
1C18
1808
3008
3008
7018
7C30
6FF0
E7E0
C3C0
C000
C7C0
DFE0
FFF0
F830
E010
E018
E018
7018
7010
7830
3FF0
1FE0
0FC0
ENDCHAR
STARTCHAR uni03D1
ENCODING 977
SWIDTH 541 0
DWIDTH 19 0
BBX 18 26 0 0
BITMAP
01F000
03F800
07FC00
071E00
0C0600
0C0600
0C0300
0C0300
0C0300
0C0100
040100
060100
0381C0
01FFC0
00FFC0
1C3F80
3E0180
7E0180
CE0180
060180
060300
060700
070F00
07FE00
03FC00
01F800
ENDCHAR
STARTCHAR uni03D2
ENCODING 978
SWIDTH 616 0
DWIDTH 22 0
BBX 22 23 0 0
BITMAP
1F0078
FF81FC
03C31C
01C31C
00E61C
00E400
00E400
006C00
006800
007800
007800
007800
007800
007800
007800
007800
007800
007800
007800
007800
007800
00FC00
03FF00
ENDCHAR
STARTCHAR uni03D5
ENCODING 981
SWIDTH 575 0
DWIDTH 21 0
BBX 18 32 1 -8
BITMAP
007000
007000
007000
007000
007000
006000
006000
01F800
07FE00
1FFF00
3FEF80
78E3C0
70E0C0
60E0C0
C0E040
C0E040
C0E040
C0C040
C0C0C0
60C1C0
70C380
3ECF80
1FFF00
0FFC00
01E000
00C000
01C000
01C000
01C000
01C000
01C000
01C000
ENDCHAR
STARTCHAR uni03D6
ENCODING 982
SWIDTH 821 0
DWIDTH 30 0
BBX 30 17 0 0
BITMAP
0FFFFFFC
3FFFFFF8
7FFFFFF8
C1C00380
83000180
0303C180
060380C0
060380C0
060380C0
060380C0
060300C0
060301C0
070301C0
03878380
03FCFF80
01FCFF00
00F03C00
ENDCHAR
STARTCHAR uni03D8
ENCODING 984
SWIDTH 627 0
DWIDTH 23 0
BBX 20 23 1 0
BITMAP
03FC00
0F0F80
1C03C0
3801E0
7800E0
7000F0
F000F0
F00070
F00070
F000F0
F000F0
7000F0
7800E0
3801E0
1E03C0
0FFF00
01FC00
007000
007000
007000
00F000
00F800
07FE00
ENDCHAR
STARTCHAR uni03D9
ENCODING 985
SWIDTH 475 0
DWIDTH 17 0
BBX 15 25 1 -8
BITMAP
07E0
1FF0
3FF8
383C
700C
600E
C006
C006
C006
C006
C006
C004
600C
783C
3FF8
1FF0
0FC0
0300
0300
0300
0300
0380
0780
0780
0600
ENDCHAR
STARTCHAR uni03DA
ENCODING 986
SWIDTH 578 0
DWIDTH 21 0
BBX 18 23 1 0
BITMAP
01F840
0FFFC0
1E07C0
3C01C0
7800C0
7000C0
F000C0
F00040
F00000
F00000
F00000
780000
780000
3C0000
1F0000
0FFC00
03FC00
003C00
003C00
003C00
003C00
007E00
01FF80
ENDCHAR
STARTCHAR uni03DB
ENCODING 987
SWIDTH 490 0
DWIDTH 18 0
BBX 17 25 1 -8
BITMAP
01FF80
0FFF80
1FFF00
380000
600000
400000
C00000
C00000
C00000
C00000
E00000
700000
780000
3F0000
3FC000
0FE000
03F000
007000
003000
001000
003000
006000
0FC000
0F8000
060000
ENDCHAR
STARTCHAR uni03DC
ENCODING 988
SWIDTH 588 0
DWIDTH 21 0
BBX 20 24 1 0
BITMAP
FFFFE0
1FFFF0
0E0070
0E0030
0E0030
0E0030
0E0000
0E0100
0E0100
0E0100
0E0300
0FFF00
0E0700
0E0100
0E0100
0E0100
0E0000
0E0000
0E0000
0E0000
0E0000
0E0000
7FC000
FFE000
ENDCHAR
STARTCHAR uni03DD
ENCODING 989
SWIDTH 386 0
DWIDTH 14 0
BBX 18 25 -4 -8
BITMAP
01FFC0
01FF80
01FF80
018000
018000
018000
018000
018000
018000
018000
019E00
01FE00
01BE00
018000
018000
018000
018000
010000
030000
030000
030000
860000
FE0000
7C0000
380000
ENDCHAR
STARTCHAR uni03DE
ENCODING 990
SWIDTH 525 0
DWIDTH 19 0
BBX 17 23 1 0
BITMAP
1FE000
038000
030000
060000
060000
0C0000
180000
180000
300000
200000
7FFF80
FFFF80
FFFF00
000200
000600
000C00
000C00
001800
003000
003000
006000
00E000
03FC00
ENDCHAR
STARTCHAR uni03DF
ENCODING 991
SWIDTH 434 0
DWIDTH 16 0
BBX 17 23 -1 0
BITMAP
3C0000
7C0000
FC0000
8E0000
0E0000
040000
040000
0C0000
0C0000
081C00
08FC00
0FF800
1FE800
1E1800
301000
001000
003000
003000
003000
003180
003F00
003E00
001C00
ENDCHAR
STARTCHAR uni03E0
ENCODING 992
SWIDTH 697 0
DWIDTH 25 0
BBX 24 23 1 0
BITMAP
01E000
00F000
00F000
007800
007800
003C00
007C00
007E00
00DE00
00CF00
018F00
038780
030F80
060FC0
061BC0
0C39E0
1C31E0
1860F0
3860F0
30C078
61C078
61807C
C381FF
ENDCHAR
STARTCHAR uni03E1
ENCODING 993
SWIDTH 458 0
DWIDTH 16 0
BBX 16 32 -1 -7
BITMAP
4000
F000
FC00
7E00
1F00
0F80
03C0
01E0
00F0
0070
0038
00F8
07DC
3F8C
3E0E
1806
0006
0006
007F
03F3
03E3
0383
0003
0003
0003
0003
0003
0003
0002
0006
0006
0004
ENDCHAR
STARTCHAR uni03F0
ENCODING 1008
SWIDTH 504 0
DWIDTH 18 0
BBX 19 17 0 0
BITMAP
3803C0
7C0780
7C0780
8E0F00
061E00
061C00
063800
067800
06F000
06F000
05D000
079000
071800
0F1820
1E1FC0
3C0FC0
780780
ENDCHAR
STARTCHAR uni03F1
ENCODING 1009
SWIDTH 467 0
DWIDTH 17 0
BBX 14 25 2 -8
BITMAP
07C0
1FF0
3FF0
3838
6018
4018
C008
C00C
C00C
C018
E018
F078
FFF0
DFE0
C7C0
6000
7800
3E00
1F80
03C0
00C0
00C0
1F80
1F00
1C00
ENDCHAR
STARTCHAR uni03F4
ENCODING 1012
SWIDTH 737 0
DWIDTH 27 0
BBX 23 23 2 0
BITMAP
01FE00
0787C0
0E01E0
1C0070
380078
780038
70003C
F0001C
F0001C
F0001E
FFFFFE
FFFFFE
F0001E
F0001E
F0001C
F0003C
70003C
780038
380078
3C0070
1E00E0
078380
01FE00
ENDCHAR
STARTCHAR uni03F5
ENCODING 1013
SWIDTH 380 0
DWIDTH 14 0
BBX 12 17 1 0
BITMAP
07E0
1FF0
3FF0
3020
6000
4000
C000
FFC0
C300
C000
E000
6000
6020
7870
3FF0
1FE0
0F80
ENDCHAR
STARTCHAR uni03F6
ENCODING 1014
SWIDTH 382 0
DWIDTH 14 0
BBX 11 17 1 0
BITMAP
7E00
FF80
FFC0
40C0
0060
0020
0020
3FE0
0820
0060
0060
0060
80E0
E1C0
FFC0
7F80
3E00
ENDCHAR
STARTCHAR uni0400
ENCODING 1024
SWIDTH 626 0
DWIDTH 23 0
BBX 21 31 1 0
BITMAP
01E000
00E000
007000
003800
000C00
000000
000000
FFFFE0
1FFFE0
0E0060
0E0020
0E0020
0E0020
0E0000
0E0180
0E0180
0E0180
0E0380
0FFF80
0E0780
0E0180
0E0180
0E0180
0E0000
0E0018
0E0010
0E0010
0E0030
0E0070
1FFFF0
FFFFF0
ENDCHAR
STARTCHAR uni0401
ENCODING 1025
SWIDTH 626 0
DWIDTH 23 0
BBX 21 30 1 0
BITMAP
070700
078780
0F8F00
070700
000000
000000
FFFFE0
1FFFE0
0E0060
0E0020
0E0020
0E0020
0E0000
0E0180
0E0180
0E0180
0E0380
0FFF80
0E0780
0E0180
0E0180
0E0180
0E0000
0E0018
0E0010
0E0010
0E0030
0E0070
1FFFF0
FFFFF0
ENDCHAR
STARTCHAR uni0402
ENCODING 1026
SWIDTH 731 0
DWIDTH 26 0
BBX 24 24 1 0
BITMAP
FFFFF0
F8E1F0
C0E030
C0E010
80E018
80E018
00E000
00E000
00E000
00E000
00E7F8
00FC7C
00E01E
00E00F
00E00F
00E007
00E007
00E007
00E007
00E007
00E70F
00E78E
07E3DC
07E1F0
ENDCHAR
STARTCHAR uni0403
ENCODING 1027
SWIDTH 548 0
DWIDTH 20 0
BBX 17 31 2 0
BITMAP
007800
00F000
00E000
018000
030000
000000
000000
FFFF80
3FFF80
1C0380
1C0180
1C0180
1C0180
1C0080
1C0000
1C0000
1C0000
1C0000
1C0000
1C0000
1C0000
1C0000
1C0000
1C0000
1C0000
1C0000
1C0000
1C0000
3C0000
FF8000
FFC000
ENDCHAR
STARTCHAR uni0404
ENCODING 1028
SWIDTH 668 0
DWIDTH 24 0
BBX 21 24 2 0
BITMAP
00FE30
07CFF0
0E01F0
1C00F0
380070
700030
700030
F00030
F00030
E00000
FFFE00
E00000
E00000
F00000
F00000
F00000
F00000
780000
780018
3C0030
3E0060
1F83C0
07FF80
01FE00
ENDCHAR
STARTCHAR uni0405
ENCODING 1029
SWIDTH 504 0
DWIDTH 18 0
BBX 16 24 1 0
BITMAP
07E6
1EFE
381E
700E
7006
7006
7006
7802
7C00
3F00
1FC0
0FF0
03F8
00FC
007E
001F
800F
C00F
C007
E00F
E00E
F00E
7E7C
4FF0
ENDCHAR
STARTCHAR uni0406
ENCODING 1030
SWIDTH 357 0
DWIDTH 13 0
BBX 11 24 1 0
BITMAP
FFE0
7FC0
1E00
0E00
0E00
0E00
0E00
0E00
0E00
0E00
0E00
0E00
0E00
0E00
0E00
0E00
0E00
0E00
0E00
0E00
0E00
1E00
7FC0
FFE0
ENDCHAR
STARTCHAR uni0407
ENCODING 1031
SWIDTH 357 0
DWIDTH 13 0
BBX 12 30 0 0
BITMAP
7070
F0F0
F8F0
7070
0000
0000
7FF0
3FE0
0F00
0700
0700
0700
0700
0700
0700
0700
0700
0700
0700
0700
0700
0700
0700
0700
0700
0700
0700
0F00
3FE0
7FF0
ENDCHAR
STARTCHAR uni0408
ENCODING 1032
SWIDTH 396 0
DWIDTH 14 0
BBX 14 24 0 0
BITMAP
1FFC
0FF8
01E0
01C0
01C0
01C0
01C0
01C0
01C0
01C0
01C0
01C0
01C0
01C0
01C0
01C0
01C0
01C0
01C0
41C0
E1C0
F1C0
FB80
3E00
ENDCHAR
STARTCHAR uni0409
ENCODING 1033
SWIDTH 924 0
DWIDTH 33 0
BBX 33 24 -1 0
BITMAP
03FFFF0000
007FFC0000
0060780000
0020780000
0060780000
0060780000
0060780000
0060780000
0060780000
0060780000
00607FF800
004078FE00
0040781F00
00C0780F00
00C0780780
00C0780780
0080780780
0180780780
0180780780
0100780780
6300780F00
FE00781E00
FE00F8FC00
7803FFF000
ENDCHAR
STARTCHAR uni040A
ENCODING 1034
SWIDTH 1013 0
DWIDTH 36 0
BBX 34 24 1 0
BITMAP
FFE1FF8000
7FC0FF8000
1E003C0000
0E003C0000
0E003C0000
0E003C0000
0E003C0000
0E003C0000
0E003C0000
0E003C0000
0E003C0000
0FFFFFFC00
0E003C3F00
0E003C0780
0E003C03C0
0E003C03C0
0E003C01C0
0E003C01C0
0E003C01C0
0E003C03C0
0E003C03C0
0E003C0780
7FC0FC7F00
FFE1FFF800
ENDCHAR
STARTCHAR uni040B
ENCODING 1035
SWIDTH 761 0
DWIDTH 27 0
BBX 26 24 1 0
BITMAP
FFFFF000
F8E1F000
C0E03000
C0E01800
80E01800
80E01800
00E00000
00E00000
00E00000
00E00000
00E7F000
00FC7C00
00E01E00
00E01E00
00E00E00
00E00E00
00E00E00
00E00E00
00E00E00
00E00E00
00F00E00
00F00E00
07FC3F80
07FE7FC0
ENDCHAR
STARTCHAR uni040C
ENCODING 1036
SWIDTH 658 0
DWIDTH 24 0
BBX 22 31 2 0
BITMAP
001E00
003C00
003800
006000
00C000
000000
000000
FF8078
FF81F8
1C01F8
1C0338
1C0200
1C0600
1C0600
1C0400
1C0C00
1C0C00
1C1800
1FF000
1C7800
1C3C00
1C1E00
1C1E00
1C0F00
1C0700
1C0780
1C0380
1C03C0
1C01E0
FF81F8
FFC0FC
ENDCHAR
STARTCHAR uni040D
ENCODING 1037
SWIDTH 780 0
DWIDTH 28 0
BBX 26 31 1 0
BITMAP
01E00000
00F00000
00700000
00380000
000C0000
00000000
00000000
FFE1FFC0
7FC0FF80
0E001E00
0E001C00
0E001C00
0E003C00
0E007C00
0E00DC00
0E019C00
0E031C00
0E061C00
0E061C00
0E0C1C00
0E181C00
0E301C00
0E601C00
0EC01C00
0E801C00
0F801C00
0F001C00
0E001C00
1E001E00
7FC0FF80
FFE1FFC0
ENDCHAR
STARTCHAR uni040E
ENCODING 1038
SWIDTH 625 0
DWIDTH 23 0
BBX 23 33 0 0
BITMAP
018180
03C3C0
0381C0
0381C0
01C380
00FF00
000000
000000
000000
FF81FE
FF80FC
1E0038
1E0030
0E0060
0F0060
070040
0780C0
038080
01C180
01C100
00E300
00E200
007600
007600
003C00
003C00
001800
001800
003000
1C6000
1FE000
1FC000
0F8000
ENDCHAR
STARTCHAR uni040F
ENCODING 1039
SWIDTH 759 0
DWIDTH 27 0
BBX 25 32 1 -8
BITMAP
FFC1FF80
7FC0FF00
1E003C00
0E003C00
0E003C00
0E003C00
0E003C00
0E003C00
0E003C00
0E003C00
0E003C00
0E003C00
0E003C00
0E003C00
0E003C00
0E003C00
0E003C00
0E003C00
0E003C00
0E003C00
0E003C00
0E003C00
1E003C00
FFFFFF80
00080000
000C0000
001C0000
001C0000
001C0000
001E0000
001C0000
001C0000
ENDCHAR
STARTCHAR uni0410
ENCODING 1040
SWIDTH 718 0
DWIDTH 26 0
BBX 26 24 0 0
BITMAP
000C0000
001C0000
001E0000
003E0000
003E0000
003F0000
00670000
00678000
00C78000
00C3C000
00C3C000
0181E000
0181E000
0301E000
0300F000
07FFF000
06007800
06007800
0C003C00
0C003C00
18003E00
18003E00
7E007F80
FF00FFC0
ENDCHAR
STARTCHAR uni0411
ENCODING 1041
SWIDTH 617 0
DWIDTH 22 0
BBX 19 24 2 0
BITMAP
FFFF80
3FFF80
1C0180
1C0180
1C0080
1C0080
1C0000
1C0000
1C0000
1C0000
1FFC00
1C3F00
1C0780
1C03C0
1C01C0
1C01E0
1C01E0
1C01E0
1C01E0
1C01C0
1C03C0
1C0780
3E3F00
FFF800
ENDCHAR
STARTCHAR uni0412
ENCODING 1042
SWIDTH 618 0
DWIDTH 22 0
BBX 20 24 1 0
BITMAP
FFFE00
1FBF80
0E03C0
0E01C0
0E01E0
0E01E0
0E01E0
0E01E0
0E01C0
0E0380
0E0700
0FFC00
0E1F80
0E03C0
0E01E0
0E00F0
0E00F0
0E00F0
0E00F0
0E00F0
0E01E0
0E01E0
1E1F80
FFFE00
ENDCHAR
STARTCHAR uni0413
ENCODING 1043
SWIDTH 548 0
DWIDTH 20 0
BBX 17 24 2 0
BITMAP
FFFF80
3FFF80
1C0380
1C0180
1C0180
1C0180
1C0080
1C0000
1C0000
1C0000
1C0000
1C0000
1C0000
1C0000
1C0000
1C0000
1C0000
1C0000
1C0000
1C0000
1C0000
3C0000
FF8000
FFC000
ENDCHAR
STARTCHAR uni0414
ENCODING 1044
SWIDTH 663 0
DWIDTH 24 0
BBX 23 32 0 -8
BITMAP
0FFFFE
01FFF0
0180E0
0180E0
0180E0
0180E0
0180E0
0180E0
0180E0
0180E0
0100E0
0300E0
0300E0
0300E0
0300E0
0600E0
0600E0
0600E0
0C00E0
0C00E0
1800E0
3800E0
F000F8
FFFFFC
F0001C
E0000C
C0000C
C0000C
C0000C
C00004
800004
800004
ENDCHAR
STARTCHAR uni0415
ENCODING 1045
SWIDTH 626 0
DWIDTH 23 0
BBX 21 24 1 0
BITMAP
FFFFE0
1FFFE0
0E0060
0E0020
0E0020
0E0020
0E0000
0E0180
0E0180
0E0180
0E0380
0FFF80
0E0780
0E0180
0E0180
0E0180
0E0000
0E0018
0E0010
0E0010
0E0030
0E0070
1FFFF0
FFFFF0
ENDCHAR
STARTCHAR uni0416
ENCODING 1046
SWIDTH 937 0
DWIDTH 34 0
BBX 34 24 0 0
BITMAP
780FFC0F00
7E07F81F80
7E01E03F80
7301C03380
0301C02000
0101C06000
0181C06000
0181C04000
0081C0C000
00C1C0C000
0061C18000
003FFF0000
0079C78000
00E1C3C000
01E1C1C000
01C1C1E000
03C1C0F000
0381C07000
0781C07800
0F01C03800
0F01C03C00
1E01E01E00
7E07F81F00
FC0FFC0FC0
ENDCHAR
STARTCHAR uni0417
ENCODING 1047
SWIDTH 545 0
DWIDTH 20 0
BBX 17 24 1 0
BITMAP
67F000
7F7C00
780E00
700F00
600700
600700
600700
400F00
000E00
007C00
03F800
00F000
000E00
000700
000780
000380
000380
000380
400780
C00780
600F80
3C3F00
1FFE00
03F000
ENDCHAR
STARTCHAR uni0418
ENCODING 1048
SWIDTH 780 0
DWIDTH 28 0
BBX 26 24 1 0
BITMAP
FFE1FFC0
7FC0FF80
0E001E00
0E001C00
0E001C00
0E003C00
0E007C00
0E00DC00
0E019C00
0E031C00
0E061C00
0E061C00
0E0C1C00
0E181C00
0E301C00
0E601C00
0EC01C00
0E801C00
0F801C00
0F001C00
0E001C00
1E001E00
7FC0FF80
FFE1FFC0
ENDCHAR
STARTCHAR uni0419
ENCODING 1049
SWIDTH 780 0
DWIDTH 28 0
BBX 26 33 1 0
BITMAP
00408000
01E1E000
01E1E000
01C0E000
01C0E000
00E1C000
007F8000
00000000
00000000
FFE1FFC0
7FC0FF80
0E001E00
0E001C00
0E001C00
0E003C00
0E007C00
0E00DC00
0E019C00
0E031C00
0E061C00
0E061C00
0E0C1C00
0E181C00
0E301C00
0E601C00
0EC01C00
0E801C00
0F801C00
0F001C00
0E001C00
1E001E00
7FC0FF80
FFE1FFC0
ENDCHAR
STARTCHAR uni041A
ENCODING 1050
SWIDTH 658 0
DWIDTH 24 0
BBX 22 24 2 0
BITMAP
FF8078
FF81F8
1C01F8
1C0338
1C0200
1C0600
1C0600
1C0400
1C0C00
1C0C00
1C1800
1FF000
1C7800
1C3C00
1C1E00
1C1E00
1C0F00
1C0700
1C0780
1C0380
1C03C0
1C01E0
FF81F8
FFC0FC
ENDCHAR
STARTCHAR uni041B
ENCODING 1051
SWIDTH 684 0
DWIDTH 25 0
BBX 24 24 -1 0
BITMAP
03FFFF
007FFC
006078
002078
006078
006078
006078
006078
006078
006078
006078
004078
004078
00C078
00C078
00C078
008078
018078
018078
010078
630078
FE0078
FE01FE
7803FF
ENDCHAR
STARTCHAR uni041C
ENCODING 1052
SWIDTH 895 0
DWIDTH 32 0
BBX 30 24 1 0
BITMAP
FF0001FC
7F0003F8
1F0003E0
1F8007E0
1F8007C0
1BC00FC0
1BC00DC0
19E00DC0
19E019C0
18E019C0
18F031C0
18F031C0
187831C0
187861C0
183861C0
183CC1C0
181CC1C0
181F81C0
181F81C0
180F81C0
180F01C0
1C0701E0
7F0607F8
FF020FFC
ENDCHAR
STARTCHAR uni041D
ENCODING 1053
SWIDTH 777 0
DWIDTH 28 0
BBX 26 24 1 0
BITMAP
FFE1FFC0
7FC0FF80
1E001C00
0E001C00
0E001C00
0E001C00
0E001C00
0E001C00
0E001C00
0E001C00
0E001C00
0FFFFC00
0E001C00
0E001C00
0E001C00
0E001C00
0E001C00
0E001C00
0E001C00
0E001C00
0E001C00
0E001C00
7FC0FF80
FFE1FFC0
ENDCHAR
STARTCHAR uni041E
ENCODING 1054
SWIDTH 738 0
DWIDTH 27 0
BBX 23 24 2 0
BITMAP
00FE00
07CFC0
0E01E0
1C00F0
380078
780038
70003C
F0003C
F0001C
F0001E
F0001E
F0001E
F0001E
F0001E
F0001E
F0001C
F0003C
70003C
780038
380078
1C0070
0E01E0
07CF80
00FE00
ENDCHAR
STARTCHAR uni041F
ENCODING 1055
SWIDTH 759 0
DWIDTH 27 0
BBX 25 23 1 0
BITMAP
FFFFFF80
1FFFFC00
0E003C00
0E003C00
0E003C00
0E003C00
0E003C00
0E003C00
0E003C00
0E003C00
0E003C00
0E003C00
0E003C00
0E003C00
0E003C00
0E003C00
0E003C00
0E003C00
0E003C00
0E003C00
0E003C00
1F007C00
FFC1FF80
ENDCHAR
STARTCHAR uni0420
ENCODING 1056
SWIDTH 569 0
DWIDTH 20 0
BBX 18 24 2 0
BITMAP
FFF800
3FFE00
1C0F00
1C0780
1C0380
1C03C0
1C03C0
1C0380
1C0380
1C0380
1C0700
1C1E00
1FFC00
1C8000
1C0000
1C0000
1C0000
1C0000
1C0000
1C0000
1C0000
3C0000
FF8000
FFC000
ENDCHAR
STARTCHAR uni0421
ENCODING 1057
SWIDTH 670 0
DWIDTH 24 0
BBX 21 24 2 0
BITMAP
00FE30
07EFF0
0E01F0
1C0070
380070
780030
700030
F00030
F00010
F00000
F00000
F00000
F00000
F00000
F00000
F00000
F00000
780000
780000
3C0018
1E0070
0FC1E0
07FF80
01FE00
ENDCHAR
STARTCHAR uni0422
ENCODING 1058
SWIDTH 603 0
DWIDTH 22 0
BBX 20 24 1 0
BITMAP
FFFFF0
F8F3F0
C0F030
80F030
80F010
80F010
00F000
00F000
00F000
00F000
00F000
00F000
00F000
00F000
00F000
00F000
00F000
00F000
00F000
00F000
00F000
00F000
03FC00
07FE00
ENDCHAR
STARTCHAR uni0423
ENCODING 1059
SWIDTH 625 0
DWIDTH 23 0
BBX 23 24 0 0
BITMAP
FF81FE
FF80FC
1E0038
1E0030
0E0060
0F0060
070040
0780C0
038080
01C180
01C100
00E300
00E200
007600
007600
003C00
003C00
001800
001800
003000
1C6000
1FE000
1FC000
0F8000
ENDCHAR
STARTCHAR uni0424
ENCODING 1060
SWIDTH 725 0
DWIDTH 26 0
BBX 24 24 1 0
BITMAP
01FF80
00FF00
003C00
003C00
07FFE0
1F3CF8
3C3C3C
783C1E
703C0E
703C0F
F03C0F
F03C0F
F03C0F
F03C0F
703C0E
783C0E
383C1C
1E3C38
0FBDF0
01FF80
003C00
003C00
00FF00
01FF80
ENDCHAR
STARTCHAR uni0425
ENCODING 1061
SWIDTH 664 0
DWIDTH 24 0
BBX 24 24 0 0
BITMAP
7FE1FE
7FC0FE
0F0070
0F8060
0780E0
03C0C0
01E180
01E300
00F600
007600
007C00
003C00
003E00
007E00
00CF00
00C780
018780
0303C0
0701E0
0601E0
0C00F0
1C00F8
7E01FE
FF03FF
ENDCHAR
STARTCHAR uni0426
ENCODING 1062
SWIDTH 756 0
DWIDTH 27 0
BBX 25 32 1 -8
BITMAP
FFC1FF80
7FC1FF00
1E003C00
0E003800
0E003800
0E003800
0E003800
0E003800
0E003800
0E003800
0E003800
0E003800
0E003800
0E003800
0E003800
0E003800
0E003800
0E003800
0E003800
0E003800
0E003800
0E003C00
1E003E00
FFFFFF80
00000780
00000380
00000380
00000180
00000180
00000180
00000180
00000180
ENDCHAR
STARTCHAR uni0427
ENCODING 1063
SWIDTH 650 0
DWIDTH 23 0
BBX 22 24 0 0
BITMAP
FF8FFC
7F87F8
1E01E0
1C01E0
1C01E0
1C01E0
1C01E0
1C01E0
1C01E0
1E01E0
1E01E0
0F03E0
07FFE0
0001E0
0001E0
0001E0
0001E0
0001E0
0001E0
0001E0
0001E0
0001E0
000FF8
000FFC
ENDCHAR
STARTCHAR uni0428
ENCODING 1064
SWIDTH 1053 0
DWIDTH 38 0
BBX 36 24 1 0
BITMAP
FFC7FE3FF0
7FC3FC3FE0
1E00F00700
0E00F00700
0E00F00700
0E00F00700
0E00F00700
0E00F00700
0E00F00700
0E00F00700
0E00F00700
0E00F00700
0E00F00700
0E00F00700
0E00F00700
0E00F00700
0E00F00700
0E00F00700
0E00F00700
0E00F00700
0E00F00700
0E00F00700
1E00F00780
FFFFFFFFF0
ENDCHAR
STARTCHAR uni0429
ENCODING 1065
SWIDTH 1044 0
DWIDTH 38 0
BBX 35 32 1 -8
BITMAP
FFC7FC7FE0
7FC3FC3FE0
1E00F00F00
0E00E00F00
0E00E00F00
0E00E00F00
0E00E00F00
0E00E00F00
0E00E00F00
0E00E00F00
0E00E00F00
0E00E00F00
0E00E00F00
0E00E00F00
0E00E00F00
0E00E00F00
0E00E00F00
0E00E00F00
0E00E00F00
0E00E00F00
0E00E00F00
0E00E00F00
1E00E00F80
FFFFFFFFE0
00000001E0
00000000E0
0000000060
0000000060
0000000060
0000000060
0000000020
0000000020
ENDCHAR
STARTCHAR uni042A
ENCODING 1066
SWIDTH 723 0
DWIDTH 26 0
BBX 24 24 1 0
BITMAP
FFFE00
FFF800
C0F000
80F000
80F000
80F000
00F000
00F000
00F000
00F000
00FFF0
00F1FC
00F03E
00F01E
00F00F
00F00F
00F00F
00F00F
00F00F
00F00E
00F01E
00F03C
00F1F8
07FFE0
ENDCHAR
STARTCHAR uni042B
ENCODING 1067
SWIDTH 887 0
DWIDTH 32 0
BBX 30 24 1 0
BITMAP
FFE01FFC
7FC00FF8
0E0001C0
0E0001C0
0E0001C0
0E0001C0
0E0001C0
0E0001C0
0E0001C0
0E0001C0
0FFE01C0
0E1F81C0
0E03C1C0
0E01C1C0
0E01E1C0
0E01E1C0
0E01E1C0
0E01E1C0
0E01E1C0
0E01E1C0
0E01C1C0
1E0381C0
7E3F0FF8
7FFC1FFC
ENDCHAR
STARTCHAR uni042C
ENCODING 1068
SWIDTH 606 0
DWIDTH 22 0
BBX 20 24 1 0
BITMAP
FFE000
7FC000
1E0000
0E0000
0E0000
0E0000
0E0000
0E0000
0E0000
0E0000
0FFE00
0E1F80
0E03C0
0E01E0
0E00E0
0E00F0
0E00F0
0E00F0
0E00F0
0E00E0
0E01E0
0E03C0
1E1F80
7FFC00
ENDCHAR
STARTCHAR uni042D
ENCODING 1069
SWIDTH 667 0
DWIDTH 24 0
BBX 21 24 1 0
BITMAP
63FC00
7F9F00
7C03C0
7801E0
7000E0
600070
600070
600078
400078
000078
03FFF8
000038
000078
000078
000078
000078
000070
0000F0
C000F0
6001E0
3003C0
1E0F80
0FFF00
03F800
ENDCHAR
STARTCHAR uni042E
ENCODING 1070
SWIDTH 1042 0
DWIDTH 38 0
BBX 35 24 1 0
BITMAP
FFE00FE000
7FC07EFC00
1E00F01E00
0E01E00F00
0E03C00780
0E03800380
0E078003C0
0E078001C0
0E070001C0
0E070001E0
0FFF0001E0
0E070001E0
0E070001E0
0E070001E0
0E070001C0
0E070001C0
0E078001C0
0E038003C0
0E03800380
0E01C00780
0E01E00700
0E00F00E00
7FC03E7800
FFE00FE000
ENDCHAR
STARTCHAR uni042F
ENCODING 1071
SWIDTH 654 0
DWIDTH 24 0
BBX 22 24 0 0
BITMAP
00FFFC
03F9F0
0781E0
0F01E0
0E01E0
0E01E0
0E01E0
0E01E0
0F01E0
0781E0
03E1E0
00FFE0
00F9E0
01E1E0
01E1E0
03C1E0
0381E0
0781E0
0781E0
0F01E0
0F01E0
1E01E0
FE07F8
FC0FFC
ENDCHAR
STARTCHAR uni0430
ENCODING 1072
SWIDTH 480 0
DWIDTH 17 0
BBX 16 18 1 0
BITMAP
0FC0
1DF0
3070
7038
7038
3038
0038
0078
03F8
0E38
3838
7038
7038
F038
F038
7079
7DBE
3E1C
ENDCHAR
STARTCHAR uni0431
ENCODING 1073
SWIDTH 520 0
DWIDTH 19 0
BBX 17 27 1 0
BITMAP
000100
000700
007E00
03FE00
07F800
1FC000
3C0000
380000
700000
63F000
677C00
4C1E00
D80E00
F00700
F00700
F00700
F00700
F00780
700700
700700
700700
700700
380700
380E00
1C1C00
0F7800
07E000
ENDCHAR
STARTCHAR uni0432
ENCODING 1074
SWIDTH 505 0
DWIDTH 18 0
BBX 16 18 1 0
BITMAP
FFF0
3C7C
1C1E
1C0E
1C0E
1C0E
1C0E
1C38
1FF0
1C3C
1C0E
1C0F
1C0F
1C07
1C0F
1C0E
3C7E
FFF8
ENDCHAR
STARTCHAR uni0433
ENCODING 1075
SWIDTH 429 0
DWIDTH 15 0
BBX 14 18 1 0
BITMAP
FFFC
3C7C
1C1C
1C0C
1C0C
1C0C
1C04
1C00
1C00
1C00
1C00
1C00
1C00
1C00
1C00
3C00
7F00
FF80
ENDCHAR
STARTCHAR uni0434
ENCODING 1076
SWIDTH 530 0
DWIDTH 19 0
BBX 18 25 0 -7
BITMAP
1FFFC0
060F00
020E00
020E00
020E00
020E00
020E00
020E00
060E00
060E00
040E00
040E00
0C0E00
0C0E00
180E00
380E00
700F00
FFFFC0
E001C0
E000C0
C000C0
C000C0
C000C0
C00040
800040
ENDCHAR
STARTCHAR uni0435
ENCODING 1077
SWIDTH 464 0
DWIDTH 17 0
BBX 15 18 1 0
BITMAP
07C0
1EF0
3838
7038
701C
601C
E01C
FFFC
E002
E000
E000
F000
7004
7806
3C0C
3FF8
1FF0
07E0
ENDCHAR
STARTCHAR uni0436
ENCODING 1078
SWIDTH 754 0
DWIDTH 27 0
BBX 27 18 0 0
BITMAP
783F83C0
7C3F87C0
7C0E07E0
260E0C80
020E0800
020E0800
030E1800
018E3000
01FFF000
03CE7800
038E3800
078E1C00
070E1C00
0E0E0E00
1E0E0F00
1C0E0700
7C1F07C0
F83F83E0
ENDCHAR
STARTCHAR uni0437
ENCODING 1079
SWIDTH 435 0
DWIDTH 16 0
BBX 13 18 1 0
BITMAP
5FC0
79E0
6070
4078
4078
4070
0070
00E0
0F80
01E0
0070
0038
0038
0038
8038
C070
7BE0
1F80
ENDCHAR
STARTCHAR uni0438
ENCODING 1080
SWIDTH 609 0
DWIDTH 22 0
BBX 20 18 1 0
BITMAP
FF0FF0
7E0FE0
1C0380
1C0380
1C0780
1C0F80
1C0B80
1C1380
1C2380
1C6380
1CC380
1D8380
1F0380
1E0380
1C0380
1C0380
7F0FE0
FF0FF0
ENDCHAR
STARTCHAR uni0439
ENCODING 1081
SWIDTH 609 0
DWIDTH 22 0
BBX 20 26 1 0
BITMAP
060600
0F0F00
0E0700
0E0700
070E00
03FC00
000000
000000
FF0FF0
7E0FE0
1C0380
1C0380
1C0780
1C0F80
1C0B80
1C1380
1C2380
1C6380
1CC380
1D8380
1F0380
1E0380
1C0380
1C0380
7F0FE0
FF0FF0
ENDCHAR
STARTCHAR uni043A
ENCODING 1082
SWIDTH 521 0
DWIDTH 19 0
BBX 18 18 1 0
BITMAP
FF0780
7F0F80
1C1F80
1C1900
1C1000
1C3000
1C2000
1C6000
1FE000
1CE000
1C7000
1C7800
1C3800
1C3C00
1C1C00
1C1E00
7E0F80
FF0FC0
ENDCHAR
STARTCHAR uni043B
ENCODING 1083
SWIDTH 553 0
DWIDTH 20 0
BBX 19 18 0 0
BITMAP
0FFFE0
018780
018700
018700
018700
010700
010700
010700
030700
030700
030700
020700
060700
060700
C40700
FC0700
F81FC0
F01FE0
ENDCHAR
STARTCHAR uni043C
ENCODING 1084
SWIDTH 697 0
DWIDTH 25 0
BBX 23 18 1 0
BITMAP
FC007E
7E00FE
3E00F8
3E00F0
3F01F0
370170
378370
338370
33C670
31C670
31C470
31EC70
30E870
30F870
307870
307078
7C30FE
FC21FE
ENDCHAR
STARTCHAR uni043D
ENCODING 1085
SWIDTH 605 0
DWIDTH 22 0
BBX 20 18 1 0
BITMAP
FF0FF0
7E0FE0
1C0380
1C0380
1C0380
1C0380
1C0380
1C0380
1FFF80
1C0380
1C0380
1C0380
1C0380
1C0380
1C0380
1C0380
7E07E0
FF0FF0
ENDCHAR
STARTCHAR uni043E
ENCODING 1086
SWIDTH 514 0
DWIDTH 19 0
BBX 16 18 1 0
BITMAP
07E0
1F78
381C
380E
700F
7007
F007
F007
F007
F007
F007
F007
7007
700E
380E
3C1C
1F78
07E0
ENDCHAR
STARTCHAR uni043F
ENCODING 1087
SWIDTH 591 0
DWIDTH 21 0
BBX 19 18 1 0
BITMAP
FFFFE0
3C0380
1C0380
1C0380
1C0380
1C0380
1C0380
1C0380
1C0380
1C0380
1C0380
1C0380
1C0380
1C0380
1C0380
1C0780
7E0FC0
FF1FE0
ENDCHAR
STARTCHAR uni0440
ENCODING 1088
SWIDTH 537 0
DWIDTH 19 0
BBX 17 26 1 -8
BITMAP
187800
F9FE00
FBFF00
3E0F00
3C0780
380780
380380
380380
380380
380380
380380
380380
380700
380700
3C0600
3E0E00
3FBC00
3BF000
380000
380000
380000
380000
380000
3C0000
7F0000
FF8000
ENDCHAR
STARTCHAR uni0441
ENCODING 1089
SWIDTH 446 0
DWIDTH 16 0
BBX 14 18 1 0
BITMAP
07E0
1EF8
3838
303C
601C
6000
E000
E000
E000
E000
E000
F000
7004
7804
7C18
3FF8
1FF0
07C0
ENDCHAR
STARTCHAR uni0442
ENCODING 1090
SWIDTH 456 0
DWIDTH 16 0
BBX 16 18 0 0
BITMAP
7FFF
F9CF
E1C3
C1C3
C1C1
81C1
01C0
01C0
01C0
01C0
01C0
01C0
01C0
01C0
01C0
01C0
07E0
0FF8
ENDCHAR
STARTCHAR uni0443
ENCODING 1091
SWIDTH 483 0
DWIDTH 17 0
BBX 18 27 0 -9
BITMAP
FE0FC0
FE0F80
380300
3C0600
1C0600
1C0600
1E0C00
0E0C00
0F0800
071800
079800
039000
03B000
01F000
01E000
01E000
00C000
00C000
00C000
018000
018000
030000
430000
FE0000
FE0000
FC0000
200000
ENDCHAR
STARTCHAR uni0444
ENCODING 1092
SWIDTH 710 0
DWIDTH 26 0
BBX 23 35 1 -8
BITMAP
000800
007800
00F800
003800
003800
003800
003800
003800
003800
0FB9E0
1EFB78
387C1C
30381C
70380E
70380E
70380E
F0380E
F0380E
F0380E
F0380E
70380E
70380E
70381C
70381C
387C18
1FFF78
0FB9E0
003800
003800
003800
003800
003800
003800
007E00
00FF00
ENDCHAR
STARTCHAR uni0445
ENCODING 1093
SWIDTH 479 0
DWIDTH 17 0
BBX 17 18 0 0
BITMAP
FF1F80
7F1F00
1C0C00
1E0C00
0F1800
073000
03A000
03E000
01C000
01E000
03F000
067000
063800
0C3C00
181C00
381E00
F81F80
FC3F80
ENDCHAR
STARTCHAR uni0446
ENCODING 1094
SWIDTH 590 0
DWIDTH 21 0
BBX 19 25 1 -7
BITMAP
FF1FE0
7F1FC0
1C0780
1C0700
1C0700
1C0700
1C0700
1C0700
1C0700
1C0700
1C0700
1C0700
1C0700
1C0700
1C0700
1C0700
3E0FC0
FFFFE0
0000E0
000060
000060
000060
000020
000020
000020
ENDCHAR
STARTCHAR uni0447
ENCODING 1095
SWIDTH 535 0
DWIDTH 19 0
BBX 18 18 0 0
BITMAP
FF3FC0
7E1F80
380F00
380700
380700
380700
380700
380700
1C0700
1E1F00
0FF700
000700
000700
000700
000700
000F00
001F80
003FC0
ENDCHAR
STARTCHAR uni0448
ENCODING 1096
SWIDTH 812 0
DWIDTH 29 0
BBX 27 18 1 0
BITMAP
FF3F9FE0
7E3F8FE0
1C0E0380
1C0E0380
1C0E0380
1C0E0380
1C0E0380
1C0E0380
1C0E0380
1C0E0380
1C0E0380
1C0E0380
1C0E0380
1C0E0380
1C0E0380
1C0E0380
7E1F0FE0
FFFFFFE0
ENDCHAR
STARTCHAR uni0449
ENCODING 1097
SWIDTH 814 0
DWIDTH 29 0
BBX 27 25 1 -7
BITMAP
FF3F9FE0
7E3F8FE0
1C0E0780
1C0E0300
1C0E0300
1C0E0300
1C0E0300
1C0E0300
1C0E0300
1C0E0300
1C0E0300
1C0E0300
1C0E0300
1C0E0300
1C0E0300
1C0E0780
3E1F0FC0
FFFFFFE0
000000E0
00000060
00000060
00000060
00000020
00000020
00000020
ENDCHAR
STARTCHAR uni044A
ENCODING 1098
SWIDTH 568 0
DWIDTH 20 0
BBX 20 18 0 0
BITMAP
7FF000
71C000
61C000
C1C000
C1C000
C1C000
01C000
01C000
01FF80
01C7C0
01C1E0
01C0E0
01C0F0
01C0F0
01C0E0
01C1E0
03C7C0
0FFF00
ENDCHAR
STARTCHAR uni044B
ENCODING 1099
SWIDTH 728 0
DWIDTH 26 0
BBX 24 18 1 0
BITMAP
FF00FF
7E007E
1C003C
1C001C
1C001C
1C001C
1C001C
1C001C
1FF01C
1C7C1C
1C1E1C
1C0E1C
1C0E1C
1C0E1C
1C0E1C
3C1C3C
7CFC7E
FFF0FF
ENDCHAR
STARTCHAR uni044C
ENCODING 1100
SWIDTH 489 0
DWIDTH 18 0
BBX 16 18 1 0
BITMAP
FF00
7E00
1C00
1C00
1C00
1C00
1C00
1C00
1FF8
1C7C
1C1E
1C0F
1C0F
1C0F
1C0E
1C1E
3CFC
FFF0
ENDCHAR
STARTCHAR uni044D
ENCODING 1101
SWIDTH 467 0
DWIDTH 17 0
BBX 15 18 1 0
BITMAP
4FC0
7DF0
6038
4038
401C
401C
001C
001C
0FFE
001E
001C
001C
001C
001C
8038
4078
39F0
0FC0
ENDCHAR
STARTCHAR uni044E
ENCODING 1102
SWIDTH 774 0
DWIDTH 28 0
BBX 26 18 1 0
BITMAP
FF01F800
7F07BE00
1C0E0F00
1C1C0700
1C1C0380
1C3C0380
1C380380
1C3803C0
1FF803C0
1C3803C0
1C3803C0
1C380380
1C1C0380
1C1C0380
1C1C0700
1C0E0700
7E07DC00
FF01F800
ENDCHAR
STARTCHAR uni044F
ENCODING 1103
SWIDTH 518 0
DWIDTH 19 0
BBX 18 18 0 0
BITMAP
03FFC0
0F9F80
1C0E00
3C0E00
380E00
380E00
3C0E00
1C0E00
0F0E00
03FE00
03CE00
078E00
070E00
0F0E00
0E0E00
1E0E00
7C1F80
FC7FC0
ENDCHAR
STARTCHAR uni0450
ENCODING 1104
SWIDTH 464 0
DWIDTH 17 0
BBX 15 25 1 0
BITMAP
0E00
0F00
0700
0300
0180
00C0
0000
07C0
1EF0
3838
7038
701C
601C
E01C
FFFC
E002
E000
E000
F000
7004
7806
3C0C
3FF8
1FF0
07E0
ENDCHAR
STARTCHAR uni0451
ENCODING 1105
SWIDTH 464 0
DWIDTH 17 0
BBX 15 25 1 0
BITMAP
3838
3C3C
3C3C
3838
0000
0000
0000
07C0
1EF0
3838
7038
701C
601C
E01C
FFFC
E002
E000
E000
F000
7004
7806
3C0C
3FF8
1FF0
07E0
ENDCHAR
STARTCHAR uni0452
ENCODING 1106
SWIDTH 563 0
DWIDTH 20 0
BBX 17 35 1 -8
BITMAP
040000
7C0000
FC0000
3C0000
1C0000
1C0000
FFE000
1C0000
1C0000
1C7C00
1DFE00
1F8F00
1E0700
1C0700
1C0700
1C0380
1C0380
1C0380
1C0380
1C0380
1C0380
1C0380
1C0380
1C0380
1C0300
7F0300
FF0300
000700
000700
000700
000600
030600
078C00
03F800
01F000
ENDCHAR
STARTCHAR uni0453
ENCODING 1107
SWIDTH 429 0
DWIDTH 15 0
BBX 14 25 1 0
BITMAP
01E0
01C0
0380
0380
0700
0600
0000
FFFC
3C7C
1C1C
1C0C
1C0C
1C0C
1C04
1C00
1C00
1C00
1C00
1C00
1C00
1C00
1C00
3C00
7F00
FF80
ENDCHAR
STARTCHAR uni0454
ENCODING 1108
SWIDTH 460 0
DWIDTH 17 0
BBX 15 18 1 0
BITMAP
07F0
1EF8
383C
301C
701C
7000
F000
F000
FFE0
F000
F000
F000
7000
7004
7806
3E1C
1FF8
07E0
ENDCHAR
STARTCHAR uni0455
ENCODING 1109
SWIDTH 394 0
DWIDTH 14 0
BBX 12 18 1 0
BITMAP
1FA0
3BE0
6060
6060
E020
F020
7800
7E00
3F80
0FC0
03E0
00F0
8070
C070
C070
E070
FDE0
DF80
ENDCHAR
STARTCHAR uni0456
ENCODING 1110
SWIDTH 285 0
DWIDTH 10 0
BBX 8 24 1 0
BITMAP
1C
3C
3C
1C
00
00
3C
FC
3C
1C
1C
1C
1C
1C
1C
1C
1C
1C
1C
1C
1C
1C
7F
FF
ENDCHAR
STARTCHAR uni0457
ENCODING 1111
SWIDTH 285 0
DWIDTH 10 0
BBX 11 24 -1 0
BITMAP
60C0
F1E0
F1E0
60C0
0000
0000
0F00
3F00
0F00
0700
0700
0700
0700
0700
0700
0700
0700
0700
0700
0700
0700
0700
1FC0
3FC0
ENDCHAR
STARTCHAR uni0458
ENCODING 1112
SWIDTH 263 0
DWIDTH 9 0
BBX 10 33 -3 -9
BITMAP
0180
03C0
03C0
0180
0000
0000
03C0
0FC0
03C0
01C0
01C0
01C0
01C0
01C0
01C0
01C0
01C0
01C0
01C0
01C0
01C0
01C0
01C0
01C0
01C0
01C0
0180
0180
4380
E380
F300
FE00
1000
ENDCHAR
STARTCHAR uni0459
ENCODING 1113
SWIDTH 742 0
DWIDTH 27 0
BBX 26 18 0 0
BITMAP
0FFFC000
01870000
01870000
01870000
01870000
01070000
01070000
01070000
0307FE00
03070F00
03070380
020703C0
060703C0
060703C0
CC070380
FC070380
F80F1F00
F03FFC00
ENDCHAR
STARTCHAR uni045A
ENCODING 1114
SWIDTH 790 0
DWIDTH 28 0
BBX 27 18 1 0
BITMAP
FF1FF000
7E0FE000
1C038000
1C038000
1C038000
1C038000
1C038000
1C038000
1FFFFF00
1C038780
1C0381C0
1C0381E0
1C0381E0
1C0381E0
1C0381C0
1C0383C0
7E0F8F80
FF1FFE00
ENDCHAR
STARTCHAR uni045B
ENCODING 1115
SWIDTH 579 0
DWIDTH 21 0
BBX 19 26 1 0
BITMAP
1C0000
FC0000
3C0000
1C0000
1C0000
FFE000
1C0000
1C0000
1C7C00
1DFE00
1F8F00
1E0700
1C0700
1C0700
1C0700
1C0700
1C0700
1C0700
1C0700
1C0700
1C0700
1C0700
1C0700
1C0780
7F1FC0
FF1FE0
ENDCHAR
STARTCHAR uni045C
ENCODING 1116
SWIDTH 521 0
DWIDTH 19 0
BBX 18 25 1 0
BITMAP
007000
00F000
00E000
01C000
018000
030000
000000
FF0780
7F0F80
1C1F80
1C1900
1C1000
1C3000
1C2000
1C6000
1FE000
1CE000
1C7000
1C7800
1C3800
1C3C00
1C1C00
1C1E00
7E0F80
FF0FC0
ENDCHAR
STARTCHAR uni045D
ENCODING 1117
SWIDTH 609 0
DWIDTH 22 0
BBX 20 25 1 0
BITMAP
078000
038000
01C000
00C000
00E000
006000
000000
FF0FF0
7E0FE0
1C0380
1C0380
1C0780
1C0F80
1C0B80
1C1380
1C2380
1C6380
1CC380
1D8380
1F0380
1E0380
1C0380
1C0380
7F0FE0
FF0FF0
ENDCHAR
STARTCHAR uni045E
ENCODING 1118
SWIDTH 483 0
DWIDTH 17 0
BBX 18 34 0 -8
BITMAP
0E0E00
1E0E00
1E0E00
1C0E00
0E0E00
07F800
000000
000000
FE0FC0
FE0F80
380300
3C0600
1C0600
1C0600
1E0C00
0E0C00
0F0800
071800
071800
039000
039000
01F000
01E000
01E000
00C000
00C000
00C000
008000
018000
010000
430000
FE0000
FE0000
780000
ENDCHAR
STARTCHAR uni045F
ENCODING 1119
SWIDTH 587 0
DWIDTH 21 0
BBX 19 25 1 -7
BITMAP
FF1FE0
7F1FE0
1C0780
1C0700
1C0700
1C0700
1C0700
1C0700
1C0700
1C0700
1C0700
1C0700
1C0700
1C0700
1C0700
1C0780
3E0F80
FFFFE0
004000
006000
00E000
00E000
00E000
00E000
00E000
ENDCHAR
STARTCHAR uni0462
ENCODING 1122
SWIDTH 727 0
DWIDTH 26 0
BBX 24 27 1 0
BITMAP
0FFE00
03F800
01E000
00E000
00E000
FFFFFC
F0E07C
C0E01C
80E00C
80E00C
80E00C
00E000
00E000
00E000
00FFE0
00E1F8
00E03C
00E01E
00E00F
00E00F
00E00F
00E00F
00E00E
00E01E
00E03C
01E1F8
07FFC0
ENDCHAR
STARTCHAR uni0463
ENCODING 1123
SWIDTH 561 0
DWIDTH 20 0
BBX 19 26 0 0
BITMAP
018000
0F8000
038000
018000
018000
018000
018000
018000
7FFF00
F98F00
C18300
C18100
C18100
818100
018000
018000
01FF00
0187C0
0181E0
0180E0
0180E0
0180E0
0380E0
0381E0
038FC0
0FFF00
ENDCHAR
STARTCHAR uni046A
ENCODING 1130
SWIDTH 881 0
DWIDTH 32 0
BBX 33 24 -1 0
BITMAP
01FFFFE000
01E000C000
00F0018000
0078038000
0038030000
003C060000
001E0C0000
000F1C0000
0007980000
0007B00000
0003E00000
001FFE0000
0079CF8000
00F1C38000
00E1C3C000
01E1C1E000
01C1C1E000
03C1C0F000
0781C0F000
0781C07800
0F01C07800
0F01E03C00
3E07F83F00
FE0FF81F80
ENDCHAR
STARTCHAR uni046B
ENCODING 1131
SWIDTH 667 0
DWIDTH 24 0
BBX 26 18 -1 0
BITMAP
07FFF800
07803000
03C02000
01E06000
00E0C000
00F18000
00798000
003F0000
001E0000
01FFE000
03CCF000
038C7000
078C7800
070C3800
0F0C3C00
1E1E1C00
1E1E1E00
FC7F8FC0
ENDCHAR
STARTCHAR uni0472
ENCODING 1138
SWIDTH 737 0
DWIDTH 27 0
BBX 23 24 2 0
BITMAP
00FE00
07EFC0
0E01E0
1C0070
380078
780038
70003C
F0001C
F1C01C
F7F01E
EFFC3E
F8FFFE
E03F9E
F00F1E
F0001E
F0001C
F0003C
70003C
780038
380078
1C00F0
0E01E0
07EF80
01FE00
ENDCHAR
STARTCHAR uni0473
ENCODING 1139
SWIDTH 514 0
DWIDTH 19 0
BBX 16 18 1 0
BITMAP
07E0
1F78
381C
380E
700F
7007
F007
EF87
FFFF
F1F7
F007
F007
7007
700E
780E
381C
1F78
07E0
ENDCHAR
STARTCHAR uni0474
ENCODING 1140
SWIDTH 705 0
DWIDTH 25 0
BBX 26 24 0 0
BITMAP
FF800780
FF000FC0
3E001FC0
1E0019C0
1E001800
0F003000
0F003000
07006000
07806000
07806000
03C0C000
03C0C000
01E08000
01E18000
00E18000
00F10000
00F30000
00730000
007A0000
003E0000
003C0000
001C0000
001C0000
00180000
ENDCHAR
STARTCHAR uni0475
ENCODING 1141
SWIDTH 520 0
DWIDTH 19 0
BBX 20 18 0 0
BITMAP
FE01E0
FE03F0
3803F0
3C0660
1C0400
1C0C00
1E0C00
0E0800
0E1800
071800
071000
07B000
03B000
03A000
03E000
01C000
01C000
00C000
ENDCHAR
STARTCHAR uni0490
ENCODING 1168
SWIDTH 525 0
DWIDTH 19 0
BBX 17 30 2 0
BITMAP
000180
000180
000180
000180
000380
000780
FFFF00
3FFF00
1C0000
1C0000
1C0000
1C0000
1C0000
1C0000
1C0000
1C0000
1C0000
1C0000
1C0000
1C0000
1C0000
1C0000
1C0000
1C0000
1C0000
1C0000
1C0000
3C0000
FF8000
FFC000
ENDCHAR
STARTCHAR uni0491
ENCODING 1169
SWIDTH 404 0
DWIDTH 15 0
BBX 13 23 1 0
BITMAP
0008
0008
0008
0018
0018
FFF8
3C00
1C00
1C00
1C00
1C00
1C00
1C00
1C00
1C00
1C00
1C00
1C00
1C00
1C00
1C00
7F00
FF80
ENDCHAR
STARTCHAR uni1D00
ENCODING 7424
SWIDTH 511 0
DWIDTH 18 0
BBX 20 18 -1 0
BITMAP
006000
00F000
00F000
00F800
01B800
013800
033C00
031C00
021E00
061E00
040E00
0FFF00
0C0700
080780
180780
1003C0
7C07E0
FC0FF0
ENDCHAR
STARTCHAR uni1D07
ENCODING 7431
SWIDTH 495 0
DWIDTH 18 0
BBX 16 18 1 0
BITMAP
FFFE
3C3E
1C06
1C06
1C02
1C00
1C18
1C18
1FF8
1C38
1C18
1C18
1C00
1C03
1C02
1C06
3C1E
FFFE
ENDCHAR
STARTCHAR uni1D1C
ENCODING 7452
SWIDTH 584 0
DWIDTH 21 0
BBX 19 18 1 0
BITMAP
FF07E0
FE07E0
380180
380180
380180
380180
380180
380180
380180
380180
380180
380180
380180
380180
1C0100
1C0300
0F9E00
03F800
ENDCHAR
STARTCHAR uni1D81
ENCODING 7553
SWIDTH 539 0
DWIDTH 19 0
BBX 18 36 1 -9
BITMAP
000200
001E00
007E00
000E00
000E00
000E00
000E00
000E00
000E00
03EE00
0F7E00
181E00
300E00
700E00
700E00
600E00
E00E00
E00E00
E00E00
E00E00
F00E00
F00E00
780E00
7C1E00
3FFE00
3FCFC0
0F8EC0
0000C0
0000C0
000080
000080
000080
003080
003980
003F00
000400
ENDCHAR
STARTCHAR uni1D84
ENCODING 7556
SWIDTH 542 0
DWIDTH 20 0
BBX 18 36 1 -9
BITMAP
040000
7C0000
FC0000
3C0000
1C0000
1C0000
1C0000
1C0000
1C0000
1C7F80
1C3F00
1C1C00
1C3800
1C6000
1CC000
1D8000
1F0000
1F8000
1FC000
1DE000
1CF000
1C7800
1C3C00
1C1E00
3C0F00
FF0F80
FF3FC0
000040
000040
000040
000040
000040
0018C0
001C80
001F80
000400
ENDCHAR
STARTCHAR uni1D85
ENCODING 7557
SWIDTH 283 0
DWIDTH 10 0
BBX 8 36 1 -9
BITMAP
04
7C
FC
3C
1C
1C
1C
1C
1C
1C
1C
1C
1C
1C
1C
1C
1C
1C
1C
1C
1C
1C
1C
1C
3C
7F
FF
01
01
01
01
01
63
72
7E
10
ENDCHAR
STARTCHAR uni1D8A
ENCODING 7562
SWIDTH 395 0
DWIDTH 14 0
BBX 12 27 1 -9
BITMAP
1FA0
3BE0
6060
6060
E020
F020
7800
7E00
3F80
0FC0
03E0
00F0
8070
C070
C070
E070
F9E0
DFA0
0020
0020
0020
0020
0020
0C60
0E40
0FC0
0200
ENDCHAR
STARTCHAR uni1D8D
ENCODING 7565
SWIDTH 479 0
DWIDTH 17 0
BBX 17 27 0 -9
BITMAP
FF1F80
7F1F00
1C0C00
1E0C00
0F1800
073000
03A000
03E000
01C000
01E000
03F000
067000
063800
0C3C00
181C00
381E00
F81F80
FC3F80
000080
000080
000080
000080
000080
003180
003900
003F00
000800
ENDCHAR
STARTCHAR uni1D8E
ENCODING 7566
SWIDTH 458 0
DWIDTH 16 0
BBX 14 27 1 -9
BITMAP
7FFC
783C
6038
4078
40F0
00E0
01E0
03C0
0380
0780
0F00
0E00
1E04
3C04
380C
780C
F07C
FFFC
000C
000C
000C
000C
000C
0388
0398
01F0
0040
ENDCHAR
STARTCHAR uni1D98
ENCODING 7576
SWIDTH 368 0
DWIDTH 13 0
BBX 17 36 0 -9
BITMAP
003F00
006780
00C380
00C380
00C000
01C000
01C000
01C000
01C000
01C000
01C000
01C000
01C000
01C000
01C000
01C000
01C000
01C000
01C000
01C000
01C000
01C000
01C000
01C000
61C000
F1C000
F18000
FF0000
C00000
C00000
C00000
400000
430000
670000
3F0000
080000
ENDCHAR
STARTCHAR uni1D9B
ENCODING 7579
SWIDTH 462 0
DWIDTH 17 0
BBX 14 14 1 9
BITMAP
F1E0
F7F8
3838
301C
301C
301C
300C
300C
300C
301C
3018
3818
3C70
2FC0
ENDCHAR
STARTCHAR uni1DA3
ENCODING 7587
SWIDTH 488 0
DWIDTH 18 0
BBX 16 20 1 3
BITMAP
FE7F
783C
381C
381C
381C
381C
381C
381C
381C
381C
381C
3C7C
1FDC
0F1C
001C
001C
001C
001C
001F
001E
ENDCHAR
STARTCHAR uni1E00
ENCODING 7680
SWIDTH 718 0
DWIDTH 26 0
BBX 26 33 0 -9
BITMAP
000C0000
001C0000
001E0000
003E0000
003E0000
003F0000
00670000
00678000
00C78000
00C3C000
00C3C000
0181E000
0181E000
0301E000
0300F000
07FFF000
06007800
06007800
0C003C00
0C003C00
18003E00
18003E00
7E007F80
FF00FFC0
00000000
00000000
003C0000
00660000
00430000
00C30000
00C30000
00660000
003E0000
ENDCHAR
STARTCHAR uni1E01
ENCODING 7681
SWIDTH 480 0
DWIDTH 17 0
BBX 16 27 1 -9
BITMAP
0FC0
1DF0
3070
7038
7038
3038
0038
0078
03F8
0E38
3838
7038
7038
F038
F038
7079
7DBE
3E1C
0000
0000
0780
0CC0
0860
0860
0860
0C60
07C0
ENDCHAR
STARTCHAR uni1E02
ENCODING 7682
SWIDTH 618 0
DWIDTH 22 0
BBX 20 30 1 0
BITMAP
00E000
00F000
00F000
00E000
000000
000000
FFFE00
1FBF80
0E03C0
0E01C0
0E01E0
0E01E0
0E01E0
0E01E0
0E01C0
0E0380
0E0700
0FFC00
0E1F80
0E03C0
0E01E0
0E00F0
0E00F0
0E00F0
0E00F0
0E00F0
0E01E0
0E01E0
1E1F80
FFFE00
ENDCHAR
STARTCHAR uni1E03
ENCODING 7683
SWIDTH 522 0
DWIDTH 19 0
BBX 18 31 0 0
BITMAP
00C000
01E000
01E000
00C000
040000
7C0000
FC0000
1C0000
1C0000
1C0000
1C0000
1C0000
1C0000
1C7C00
1CFE00
1DFF00
1F0F80
1C0780
1C0380
1C0380
1C03C0
1C03C0
1C0380
1C0380
1C0380
1C0380
1C0300
1C0700
1C0E00
1FBC00
07F000
ENDCHAR
STARTCHAR uni1E04
ENCODING 7684
SWIDTH 618 0
DWIDTH 22 0
BBX 20 31 1 -7
BITMAP
FFFE00
1FBF80
0E03C0
0E01C0
0E01E0
0E01E0
0E01E0
0E01E0
0E01C0
0E0380
0E0700
0FFC00
0E1F80
0E03C0
0E01E0
0E00F0
0E00F0
0E00F0
0E00F0
0E00F0
0E01E0
0E01E0
1E1F80
FFFE00
000000
000000
000000
00E000
00F000
00F000
00E000
ENDCHAR
STARTCHAR uni1E05
ENCODING 7685
SWIDTH 522 0
DWIDTH 19 0
BBX 18 34 0 -7
BITMAP
040000
7C0000
FC0000
1C0000
1C0000
1C0000
1C0000
1C0000
1C0000
1C7C00
1CFE00
1DFF00
1F0F80
1C0780
1C0380
1C0380
1C03C0
1C03C0
1C0380
1C0380
1C0380
1C0380
1C0300
1C0700
1C0E00
1FBC00
07F000
000000
000000
000000
00C000
01E000
01E000
00C000
ENDCHAR
STARTCHAR uni1E06
ENCODING 7686
SWIDTH 618 0
DWIDTH 22 0
BBX 20 29 1 -5
BITMAP
FFFE00
1FBF80
0E03C0
0E01C0
0E01E0
0E01E0
0E01E0
0E01E0
0E01C0
0E0380
0E0700
0FFC00
0E1F80
0E03C0
0E01E0
0E00F0
0E00F0
0E00F0
0E00F0
0E00F0
0E01E0
0E01E0
1E1F80
FFFE00
000000
000000
000000
0FFE00
0FFE00
ENDCHAR
STARTCHAR uni1E07
ENCODING 7687
SWIDTH 522 0
DWIDTH 19 0
BBX 18 32 0 -5
BITMAP
040000
7C0000
FC0000
1C0000
1C0000
1C0000
1C0000
1C0000
1C0000
1C7C00
1CFE00
1DFF00
1F0F80
1C0780
1C0380
1C0380
1C03C0
1C03C0
1C0380
1C0380
1C0380
1C0380
1C0300
1C0700
1C0E00
1FBC00
07F000
000000
000000
000000
0FFC00
0FFC00
ENDCHAR
STARTCHAR uni1E08
ENCODING 7688
SWIDTH 670 0
DWIDTH 24 0
BBX 21 39 2 -8
BITMAP
000F00
001E00
003800
007000
00C000
000000
000000
00FE30
07EFF0
0E01F0
1C0070
380070
780030
700030
F00030
F00010
F00000
F00000
F00000
F00000
F00000
F00000
F00000
F00000
780000
780000
3C0018
1E0070
0FC1E0
07FF80
01FE00
002000
004000
007800
001C00
000C00
000C00
008C00
00F800
ENDCHAR
STARTCHAR uni1E09
ENCODING 7689
SWIDTH 446 0
DWIDTH 16 0
BBX 14 33 1 -8
BITMAP
00F0
00E0
01C0
0180
0380
0300
0000
07E0
1EF8
3838
303C
601C
6000
E000
E000
E000
E000
E000
F000
7004
7804
7C18
3FF8
1FF0
0FC0
0100
0300
03C0
00E0
0060
0060
06E0
03C0
ENDCHAR
STARTCHAR uni1E0A
ENCODING 7690
SWIDTH 730 0
DWIDTH 26 0
BBX 23 30 1 0
BITMAP
003800
007800
007800
003800
000000
000000
FFFE00
1FFFC0
0E03F0
0E00F8
0E0078
0E003C
0E001E
0E001E
0E001E
0E001E
0E000E
0E000E
0E000E
0E000E
0E000E
0E001E
0E001E
0E001C
0E003C
0E0038
0E0078
0E01E0
1E1FC0
FFFE00
ENDCHAR
STARTCHAR uni1E0B
ENCODING 7691
SWIDTH 539 0
DWIDTH 19 0
BBX 18 31 1 0
BITMAP
01C000
01E000
01E000
01C000
000200
001E00
007E00
000E00
000E00
000E00
000E00
000E00
000E00
03EE00
0F7E00
181E00
300E00
700E00
700E00
600E00
E00E00
E00E00
E00E00
E00E00
F00E00
F00E00
780E00
7C1E00
3FFE00
3FCFC0
0F8E00
ENDCHAR
STARTCHAR uni1E0C
ENCODING 7692
SWIDTH 730 0
DWIDTH 26 0
BBX 23 31 1 -7
BITMAP
FFFE00
1FFFC0
0E03F0
0E00F8
0E0078
0E003C
0E001E
0E001E
0E001E
0E001E
0E000E
0E000E
0E000E
0E000E
0E000E
0E001E
0E001E
0E001C
0E003C
0E0038
0E0078
0E01E0
1E1FC0
FFFE00
000000
000000
000000
007000
007800
007800
007000
ENDCHAR
STARTCHAR uni1E0D
ENCODING 7693
SWIDTH 539 0
DWIDTH 19 0
BBX 18 34 1 -7
BITMAP
000200
001E00
007E00
000E00
000E00
000E00
000E00
000E00
000E00
03EE00
0F7E00
181E00
300E00
700E00
700E00
600E00
E00E00
E00E00
E00E00
E00E00
F00E00
F00E00
780E00
7C1E00
3FFE00
3FCFC0
0F8E00
000000
000000
000000
01C000
01E000
01E000
01C000
ENDCHAR
STARTCHAR uni1E0E
ENCODING 7694
SWIDTH 730 0
DWIDTH 26 0
BBX 23 29 1 -5
BITMAP
FFFE00
1FFFC0
0E03F0
0E00F8
0E0078
0E003C
0E001E
0E001E
0E001E
0E001E
0E000E
0E000E
0E000E
0E000E
0E000E
0E001E
0E001E
0E001C
0E003C
0E0038
0E0078
0E01E0
1E1FC0
FFFE00
000000
000000
000000
07FF00
07FF00
ENDCHAR
STARTCHAR uni1E0F
ENCODING 7695
SWIDTH 539 0
DWIDTH 19 0
BBX 18 32 1 -5
BITMAP
000200
001E00
007E00
000E00
000E00
000E00
000E00
000E00
000E00
03EE00
0F7E00
181E00
300E00
700E00
700E00
600E00
E00E00
E00E00
E00E00
E00E00
F00E00
F00E00
780E00
7C1E00
3FFE00
3FCFC0
0F8E00
000000
000000
000000
1FFC00
1FFC00
ENDCHAR
STARTCHAR uni1E10
ENCODING 7696
SWIDTH 730 0
DWIDTH 26 0
BBX 23 34 1 -10
BITMAP
FFFE00
1FFFC0
0E03F0
0E00F8
0E0078
0E003C
0E001E
0E001E
0E001E
0E001E
0E000E
0E000E
0E000E
0E000E
0E000E
0E001E
0E001E
0E001C
0E003C
0E0038
0E0078
0E01E0
1E1FC0
FFFE00
000000
000000
007000
00F800
00F800
007800
001800
001800
003000
00E000
ENDCHAR
STARTCHAR uni1E11
ENCODING 7697
SWIDTH 539 0
DWIDTH 19 0
BBX 18 37 1 -10
BITMAP
000200
001E00
007E00
000E00
000E00
000E00
000E00
000E00
000E00
03EE00
0F7E00
181E00
300E00
700E00
700E00
600E00
E00E00
E00E00
E00E00
E00E00
F00E00
F00E00
780E00
7C1E00
3FFE00
3FCFC0
0F8E00
000000
000000
01C000
03E000
03E000
01E000
006000
006000
00C000
018000
ENDCHAR
STARTCHAR uni1E12
ENCODING 7698
SWIDTH 730 0
DWIDTH 26 0
BBX 23 32 1 -8
BITMAP
FFFE00
1FFFC0
0E03F0
0E00F8
0E0078
0E003C
0E001E
0E001E
0E001E
0E001E
0E000E
0E000E
0E000E
0E000E
0E000E
0E001E
0E001E
0E001C
0E003C
0E0038
0E0078
0E01E0
1E1FC0
FFFE00
000000
000000
007000
007000
00F800
01CC00
018600
020300
ENDCHAR
STARTCHAR uni1E13
ENCODING 7699
SWIDTH 539 0
DWIDTH 19 0
BBX 18 35 1 -8
BITMAP
000200
001E00
007E00
000E00
000E00
000E00
000E00
000E00
000E00
03EE00
0F7E00
181E00
300E00
700E00
700E00
600E00
E00E00
E00E00
E00E00
E00E00
F00E00
F00E00
780E00
7C1E00
3FFE00
3FCFC0
0F8E00
000000
000000
01C000
01E000
03E000
073000
061800
0C0C00
ENDCHAR
STARTCHAR uni1E14
ENCODING 7700
SWIDTH 626 0
DWIDTH 23 0
BBX 21 35 1 0
BITMAP
01E000
00E000
007000
003800
000C00
000000
07FF00
000000
000000
000000
000000
FFFFE0
1FFFE0
0E0060
0E0020
0E0020
0E0020
0E0000
0E0180
0E0180
0E0180
0E0380
0FFF80
0E0780
0E0180
0E0180
0E0180
0E0000
0E0018
0E0010
0E0010
0E0030
0E0070
1FFFF0
FFFFF0
ENDCHAR
STARTCHAR uni1E15
ENCODING 7701
SWIDTH 464 0
DWIDTH 17 0
BBX 15 30 1 0
BITMAP
0E00
0F00
0700
0300
0180
00C0
0000
3FF8
3FF8
0000
0000
0000
07C0
1EF0
3838
7038
701C
601C
E01C
FFFC
E002
E000
E000
F000
7004
7806
3C0C
3FF8
1FF0
07E0
ENDCHAR
STARTCHAR uni1E16
ENCODING 7702
SWIDTH 626 0
DWIDTH 23 0
BBX 21 35 1 0
BITMAP
003C00
003C00
007000
00E000
018000
000000
07FF00
000000
000000
000000
000000
FFFFE0
1FFFE0
0E0060
0E0020
0E0020
0E0020
0E0000
0E0180
0E0180
0E0180
0E0380
0FFF80
0E0780
0E0180
0E0180
0E0180
0E0000
0E0018
0E0010
0E0010
0E0030
0E0070
1FFFF0
FFFFF0
ENDCHAR
STARTCHAR uni1E17
ENCODING 7703
SWIDTH 464 0
DWIDTH 17 0
BBX 15 30 1 0
BITMAP
00F0
00E0
01C0
01C0
0380
0300
0000
3FF8
3FF8
0000
0000
0000
07C0
1EF0
3838
7038
701C
601C
E01C
FFFC
E002
E000
E000
F000
7004
7806
3C0C
3FF8
1FF0
07E0
ENDCHAR
STARTCHAR uni1E18
ENCODING 7704
SWIDTH 626 0
DWIDTH 23 0
BBX 21 32 1 -8
BITMAP
FFFFE0
1FFFE0
0E0060
0E0020
0E0020
0E0020
0E0000
0E0180
0E0180
0E0180
0E0380
0FFF80
0E0780
0E0180
0E0180
0E0180
0E0000
0E0018
0E0010
0E0010
0E0030
0E0070
1FFFF0
FFFFF0
000000
000000
007000
007000
00F800
01CC00
030600
060300
ENDCHAR
STARTCHAR uni1E19
ENCODING 7705
SWIDTH 464 0
DWIDTH 17 0
BBX 15 26 1 -8
BITMAP
07C0
1EF0
3838
7038
701C
601C
E01C
FFFC
E002
E000
E000
F000
7004
7806
3C0C
3FF8
1FF0
07E0
0000
0000
0180
03C0
07C0
0E60
0C30
1818
ENDCHAR
STARTCHAR uni1E1A
ENCODING 7706
SWIDTH 626 0
DWIDTH 23 0
BBX 21 30 1 -6
BITMAP
FFFFE0
1FFFE0
0E0060
0E0020
0E0020
0E0020
0E0000
0E0180
0E0180
0E0180
0E0380
0FFF80
0E0780
0E0180
0E0180
0E0180
0E0000
0E0018
0E0010
0E0010
0E0030
0E0070
1FFFF0
FFFFF0
000000
000000
03C100
07F300
047E00
043C00
ENDCHAR
STARTCHAR uni1E1B
ENCODING 7707
SWIDTH 464 0
DWIDTH 17 0
BBX 15 24 1 -6
BITMAP
07C0
1EF0
3838
7038
701C
601C
E01C
FFFC
E002
E000
E000
F000
7004
7806
3C0C
3FF8
1FF0
07E0
0000
0000
0E08
1F98
33F0
20E0
ENDCHAR
STARTCHAR uni1E1C
ENCODING 7708
SWIDTH 626 0
DWIDTH 23 0
BBX 21 40 1 -8
BITMAP
040100
060300
060200
038600
01FC00
00F800
000000
000000
FFFFE0
1FFFE0
0E0060
0E0020
0E0020
0E0020
0E0000
0E0180
0E0180
0E0180
0E0380
0FFF80
0E0780
0E0180
0E0180
0E0180
0E0000
0E0018
0E0010
0E0010
0E0030
0E0070
1FFFF0
FFFFF0
002000
004000
007800
001C00
000C00
000C00
019C00
00F800
ENDCHAR
STARTCHAR uni1E1D
ENCODING 7709
SWIDTH 464 0
DWIDTH 17 0
BBX 15 34 1 -8
BITMAP
3008
3008
1018
1C30
0FF0
07C0
0000
0000
07C0
1EF0
3838
7038
701C
601C
E01C
FFFC
E002
E000
E000
F000
7004
7806
3C0C
3FF8
1FF0
07E0
0100
0200
03C0
00E0
0060
0060
0CE0
07C0
ENDCHAR
STARTCHAR uni1E1E
ENCODING 7710
SWIDTH 588 0
DWIDTH 21 0
BBX 20 30 1 0
BITMAP
007000
007800
007800
007000
000000
000000
FFFFE0
1FFFF0
0E0070
0E0030
0E0030
0E0030
0E0000
0E0100
0E0100
0E0100
0E0300
0FFF00
0E0700
0E0100
0E0100
0E0100
0E0000
0E0000
0E0000
0E0000
0E0000
0E0000
7FC000
FFE000
ENDCHAR
STARTCHAR uni1E1F
ENCODING 7711
SWIDTH 307 0
DWIDTH 11 0
BBX 13 31 1 0
BITMAP
1C00
3C00
3C00
1C00
0000
03F0
0EF0
0C78
1C30
1C00
1C00
1C00
1C00
FFC0
1C00
1C00
1C00
1C00
1C00
1C00
1C00
1C00
1C00
1C00
1C00
1C00
1C00
1C00
3C00
FF00
FF80
ENDCHAR
STARTCHAR uni1E20
ENCODING 7712
SWIDTH 720 0
DWIDTH 26 0
BBX 23 29 2 0
BITMAP
03FF80
000000
000000
000000
000000
00FE10
07EFF0
0E01F0
1C0070
380070
780030
700030
F00030
F00010
F00000
F00000
F00000
F003FE
F001F8
F00070
F00070
F00070
700070
780070
380070
3C0070
1F00F0
07E7E0
01FF00
ENDCHAR
STARTCHAR uni1E21
ENCODING 7713
SWIDTH 484 0
DWIDTH 17 0
BBX 16 32 1 -9
BITMAP
3FF8
3FF8
0000
0000
0000
07FF
1EF8
3838
703C
703C
701C
701C
701C
7038
3838
1C70
1FE0
3000
7000
7000
7FF8
7FFE
3FFE
200F
6003
E003
E002
E006
F00C
FFF8
7FE0
0400
ENDCHAR
STARTCHAR uni1E22
ENCODING 7714
SWIDTH 777 0
DWIDTH 28 0
BBX 26 30 1 0
BITMAP
000C0000
001E0000
001E0000
000C0000
00000000
00000000
FFE1FFC0
7FC0FF80
1E001C00
0E001C00
0E001C00
0E001C00
0E001C00
0E001C00
0E001C00
0E001C00
0E001C00
0FFFFC00
0E001C00
0E001C00
0E001C00
0E001C00
0E001C00
0E001C00
0E001C00
0E001C00
0E001C00
0E001C00
7FC0FF80
FFE1FFC0
ENDCHAR
STARTCHAR uni1E23
ENCODING 7715
SWIDTH 577 0
DWIDTH 21 0
BBX 19 31 1 0
BITMAP
00E000
00F000
00F000
00E000
000000
1C0000
FC0000
3C0000
1C0000
1C0000
1C0000
1C0000
1C0000
1C7C00
1DFE00
1F0F00
1E0700
1C0700
1C0700
1C0700
1C0700
1C0700
1C0700
1C0700
1C0700
1C0700
1C0700
1C0700
3C0780
7E1FC0
FF1FE0
ENDCHAR
STARTCHAR uni1E24
ENCODING 7716
SWIDTH 777 0
DWIDTH 28 0
BBX 26 31 1 -7
BITMAP
FFE1FFC0
7FC0FF80
1E001C00
0E001C00
0E001C00
0E001C00
0E001C00
0E001C00
0E001C00
0E001C00
0E001C00
0FFFFC00
0E001C00
0E001C00
0E001C00
0E001C00
0E001C00
0E001C00
0E001C00
0E001C00
0E001C00
0E001C00
7FC0FF80
FFE1FFC0
00000000
00000000
00000000
000C0000
001E0000
001E0000
000C0000
ENDCHAR
STARTCHAR uni1E25
ENCODING 7717
SWIDTH 577 0
DWIDTH 21 0
BBX 19 33 1 -7
BITMAP
1C0000
FC0000
3C0000
1C0000
1C0000
1C0000
1C0000
1C0000
1C7C00
1DFE00
1F0F00
1E0700
1C0700
1C0700
1C0700
1C0700
1C0700
1C0700
1C0700
1C0700
1C0700
1C0700
1C0700
3C0780
7E1FC0
FF1FE0
000000
000000
000000
00E000
01F000
00F000
00E000
ENDCHAR
STARTCHAR uni1E26
ENCODING 7718
SWIDTH 777 0
DWIDTH 28 0
BBX 26 30 1 0
BITMAP
00C0C000
01E1E000
01E1E000
00C0C000
00000000
00000000
FFE1FFC0
7FC0FF80
1E001C00
0E001C00
0E001C00
0E001C00
0E001C00
0E001C00
0E001C00
0E001C00
0E001C00
0FFFFC00
0E001C00
0E001C00
0E001C00
0E001C00
0E001C00
0E001C00
0E001C00
0E001C00
0E001C00
0E001C00
7FC0FF80
FFE1FFC0
ENDCHAR
STARTCHAR uni1E27
ENCODING 7719
SWIDTH 577 0
DWIDTH 21 0
BBX 19 31 1 0
BITMAP
0E0E00
0F0E00
0F1F00
0E0E00
000000
1C0000
FC0000
3C0000
1C0000
1C0000
1C0000
1C0000
1C0000
1C7C00
1DFE00
1F0F00
1E0700
1C0700
1C0700
1C0700
1C0700
1C0700
1C0700
1C0700
1C0700
1C0700
1C0700
1C0700
3C0780
7E1FC0
FF1FE0
ENDCHAR
STARTCHAR uni1E28
ENCODING 7720
SWIDTH 777 0
DWIDTH 28 0
BBX 26 32 1 -8
BITMAP
FFE1FFC0
7FC0FF80
1E001C00
0E001C00
0E001C00
0E001C00
0E001C00
0E001C00
0E001C00
0E001C00
0E001C00
0FFFFC00
0E001C00
0E001C00
0E001C00
0E001C00
0E001C00
0E001C00
0E001C00
0E001C00
0E001C00
0E001C00
7FC0FF80
FFE1FFC0
08000000
08000000
0F000000
03800000
01800000
01800000
23000000
1F000000
ENDCHAR
STARTCHAR uni1E29
ENCODING 7721
SWIDTH 577 0
DWIDTH 21 0
BBX 19 34 1 -8
BITMAP
1C0000
FC0000
3C0000
1C0000
1C0000
1C0000
1C0000
1C0000
1C7C00
1DFE00
1F0F00
1E0700
1C0700
1C0700
1C0700
1C0700
1C0700
1C0700
1C0700
1C0700
1C0700
1C0700
1C0700
3C0780
7E1FC0
FF1FE0
100000
100000
3C0000
060000
060000
060000
460000
7C0000
ENDCHAR
STARTCHAR uni1E2A
ENCODING 7722
SWIDTH 777 0
DWIDTH 28 0
BBX 26 32 1 -8
BITMAP
FFE1FFC0
7FC0FF80
1E001C00
0E001C00
0E001C00
0E001C00
0E001C00
0E001C00
0E001C00
0E001C00
0E001C00
0FFFFC00
0E001C00
0E001C00
0E001C00
0E001C00
0E001C00
0E001C00
0E001C00
0E001C00
0E001C00
0E001C00
7FC0FF80
FFE1FFC0
00000000
00000000
00804000
00804000
00C0C000
00E1C000
007F8000
003F0000
ENDCHAR
STARTCHAR uni1E2B
ENCODING 7723
SWIDTH 577 0
DWIDTH 21 0
BBX 19 34 1 -8
BITMAP
1C0000
FC0000
3C0000
1C0000
1C0000
1C0000
1C0000
1C0000
1C7C00
1DFE00
1F0F00
1E0700
1C0700
1C0700
1C0700
1C0700
1C0700
1C0700
1C0700
1C0700
1C0700
1C0700
1C0700
3C0780
7E1FC0
FF1FE0
000000
000000
080200
0C0600
040400
060C00
03F800
01F000
ENDCHAR
STARTCHAR uni1E2C
ENCODING 7724
SWIDTH 357 0
DWIDTH 13 0
BBX 11 30 1 -6
BITMAP
FFE0
7FC0
1E00
0E00
0E00
0E00
0E00
0E00
0E00
0E00
0E00
0E00
0E00
0E00
0E00
0E00
0E00
0E00
0E00
0E00
0E00
1E00
7FC0
FFE0
0000
0000
7820
FE60
8FC0
8780
ENDCHAR
STARTCHAR uni1E2D
ENCODING 7725
SWIDTH 285 0
DWIDTH 10 0
BBX 12 30 -1 -6
BITMAP
0700
0F00
0F00
0700
0000
0000
0F00
3F00
0F00
0700
0700
0700
0700
0700
0700
0700
0700
0700
0700
0700
0700
0700
1FC0
3FC0
0000
0000
3C10
7F20
4FE0
83C0
ENDCHAR
STARTCHAR uni1E2E
ENCODING 7726
SWIDTH 357 0
DWIDTH 13 0
BBX 13 36 0 0
BITMAP
03C0
0380
0700
0E00
1800
0000
7070
70F0
F8F8
7070
0000
0000
7FF0
3FE0
0F00
0700
0700
0700
0700
0700
0700
0700
0700
0700
0700
0700
0700
0700
0700
0700
0700
0700
0700
0F00
3FE0
7FF0
ENDCHAR
STARTCHAR uni1E2F
ENCODING 7727
SWIDTH 285 0
DWIDTH 10 0
BBX 11 31 -1 0
BITMAP
0380
0380
0700
0600
0C00
0800
0000
60C0
F1E0
F1E0
60C0
0000
0000
0F00
3F00
0F00
0700
0700
0700
0700
0700
0700
0700
0700
0700
0700
0700
0700
0700
1FC0
3FC0
ENDCHAR
STARTCHAR uni1E30
ENCODING 7728
SWIDTH 702 0
DWIDTH 25 0
BBX 24 31 1 0
BITMAP
000F00
001E00
003800
007000
00E000
000000
000000
FFE3FE
7FC1FC
1E00E0
0E01C0
0E0180
0E0300
0E0600
0E0C00
0E1800
0E3000
0EE000
0FC000
0FE000
0EF800
0E7C00
0E3E00
0E1F00
0E0F80
0E07C0
0E03E0
0E01F0
1E00F8
7FC1FE
FFE3FF
ENDCHAR
STARTCHAR uni1E31
ENCODING 7729
SWIDTH 542 0
DWIDTH 20 0
BBX 18 32 1 0
BITMAP
007800
00F000
01C000
038000
070000
000000
1C0000
FC0000
3C0000
1C0000
1C0000
1C0000
1C0000
1C0000
1C7F80
1C3F00
1C1C00
1C3800
1C6000
1CC000
1D8000
1F0000
1F8000
1FC000
1DE000
1CF000
1C7800
1C3C00
1C1E00
3C0F00
FF0F80
FF3FC0
ENDCHAR
STARTCHAR uni1E32
ENCODING 7730
SWIDTH 702 0
DWIDTH 25 0
BBX 24 31 1 -7
BITMAP
FFE3FE
7FC1FC
1E00E0
0E01C0
0E0180
0E0300
0E0600
0E0C00
0E1800
0E3000
0EE000
0FC000
0FE000
0EF800
0E7C00
0E3E00
0E1F00
0E0F80
0E07C0
0E03E0
0E01F0
1E00F8
7FC1FE
FFE3FF
000000
000000
000000
003800
003C00
003C00
003800
ENDCHAR
STARTCHAR uni1E33
ENCODING 7731
SWIDTH 542 0
DWIDTH 20 0
BBX 18 33 1 -7
BITMAP
1C0000
FC0000
3C0000
1C0000
1C0000
1C0000
1C0000
1C0000
1C7F80
1C3F00
1C1C00
1C3800
1C6000
1CC000
1D8000
1F0000
1F8000
1FC000
1DE000
1CF000
1C7800
1C3C00
1C1E00
3C0F00
FF0F80
FF3FC0
000000
000000
000000
01C000
01E000
01E000
01C000
ENDCHAR
STARTCHAR uni1E34
ENCODING 7732
SWIDTH 702 0
DWIDTH 25 0
BBX 24 29 1 -5
BITMAP
FFE3FE
7FC1FC
1E00E0
0E01C0
0E0180
0E0300
0E0600
0E0C00
0E1800
0E3000
0EE000
0FC000
0FE000
0EF800
0E7C00
0E3E00
0E1F00
0E0F80
0E07C0
0E03E0
0E01F0
1E00F8
7FC1FE
FFE3FF
000000
000000
000000
03FF80
03FF80
ENDCHAR
STARTCHAR uni1E35
ENCODING 7733
SWIDTH 542 0
DWIDTH 20 0
BBX 18 31 1 -5
BITMAP
1C0000
FC0000
3C0000
1C0000
1C0000
1C0000
1C0000
1C0000
1C7F80
1C3F00
1C1C00
1C3800
1C6000
1CC000
1D8000
1F0000
1F8000
1FC000
1DE000
1CF000
1C7800
1C3C00
1C1E00
3C0F00
FF0F80
FF3FC0
000000
000000
000000
0FFC00
0FFC00
ENDCHAR
STARTCHAR uni1E36
ENCODING 7734
SWIDTH 585 0
DWIDTH 21 0
BBX 18 31 2 -7
BITMAP
FFC000
FF8000
3C0000
1C0000
1C0000
1C0000
1C0000
1C0000
1C0000
1C0000
1C0000
1C0000
1C0000
1C0000
1C0000
1C0000
1C0000
1C0040
1C0040
1C00C0
1C00C0
1C01C0
3F0FC0
FFFF80
000000
000000
000000
01C000
03E000
03C000
01C000
ENDCHAR
STARTCHAR uni1E37
ENCODING 7735
SWIDTH 283 0
DWIDTH 10 0
BBX 8 33 1 -7
BITMAP
1C
FC
3C
1C
1C
1C
1C
1C
1C
1C
1C
1C
1C
1C
1C
1C
1C
1C
1C
1C
1C
1C
1C
3C
7F
FF
00
00
00
18
3C
3C
18
ENDCHAR
STARTCHAR uni1E38
ENCODING 7736
SWIDTH 585 0
DWIDTH 21 0
BBX 19 36 1 -7
BITMAP
FFE000
000000
000000
000000
000000
7FE000
7FC000
1E0000
0E0000
0E0000
0E0000
0E0000
0E0000
0E0000
0E0000
0E0000
0E0000
0E0000
0E0000
0E0000
0E0000
0E0000
0E0020
0E0020
0E0060
0E0060
0E00E0
1F87E0
7FFFC0
000000
000000
000000
00E000
01F000
01E000
00E000
ENDCHAR
STARTCHAR uni1E39
ENCODING 7737
SWIDTH 283 0
DWIDTH 10 0
BBX 10 37 0 -7
BITMAP
FFC0
0000
0000
0000
0E00
7E00
1E00
0E00
0E00
0E00
0E00
0E00
0E00
0E00
0E00
0E00
0E00
0E00
0E00
0E00
0E00
0E00
0E00
0E00
0E00
0E00
0E00
1E00
3F80
7F80
0000
0000
0000
0C00
1E00
1E00
0C00
ENDCHAR
ENDFONT
